<svg xmlns="http://www.w3.org/2000/svg" xmlns:xlink="http://www.w3.org/1999/xlink" width="1920" height="1233" viewBox="0 0 1920 1233">
  <defs>
    <linearGradient id="linear-gradient" x1="0.5" x2="0.5" y2="1" gradientUnits="objectBoundingBox">
      <stop offset="0"/>
      <stop offset="1" stop-color="#545454" stop-opacity="0.741"/>
    </linearGradient>
    <clipPath id="clip-path">
      <rect id="Rectangle_1828" data-name="Rectangle 1828" width="1920" height="1233" fill="url(#linear-gradient)"/>
    </clipPath>
    <radialGradient id="radial-gradient" cx="0.5" cy="0.5" r="0.5" gradientUnits="objectBoundingBox">
      <stop offset="0" stop-color="#fff" stop-opacity="0"/>
      <stop offset="0.754" stop-color="#fff" stop-opacity="0.827"/>
      <stop offset="1" stop-color="#fff"/>
    </radialGradient>
  </defs>
  <g id="Group_619" data-name="Group 619" opacity="0.598">
    <g id="Mask_Group_7" data-name="Mask Group 7" clip-path="url(#clip-path)">
      <g id="Group_618" data-name="Group 618" transform="translate(-541.644 -476.939)">
        <path id="Path_5808" data-name="Path 5808" d="M1842.167,35.62c-52.077-42.062-123.854-42.475-185.5-21.524s-116.457,60.48-173.154,94.435c-80.393,48.155-166.371,86.074-240.215,145.674S1107.055,401.311,1101.216,502.2c-4.9,84.654,30.224,167.77,23.855,252.307-5.15,68.333-37.24,131.134-77.309,183.476-184.091,240.523-516.039,278.865-716.895,502.378-118.7,132.088-178.114,313.932-234.08,489.566Q49.8,2077.383,2.808,2224.849c-1.992,6.263,4.546,12.2,4.419,18.832s-11.074-1.579-5.172-.392" transform="translate(1272.378 -0.499)" fill="none" stroke="#000" stroke-width="1"/>
        <path id="Path_5809" data-name="Path 5809" d="M1851.371,35.7c-51.78-41.5-123.112-41.712-184.4-20.729s-115.821,60.406-172.221,94.276c-79.991,48.049-165.534,85.915-239.05,145.261-38.734,31.273-74.321,70.2-100.221,114.687-23.283,40-38.755,84.473-41.648,131.929-5.14,84.134,29.419,166.711,22.806,250.707-5.331,67.9-37.4,130.308-77.362,182.363-30.966,40.345-66.108,75-104.1,105.8-187.058,151.673-443.149,209.8-609.192,395.068-62.292,69.6-108.18,152.987-145.886,241.9-33.849,79.842-61.106,164.146-87.642,247.019q-47.133,147.2-94.414,294.168c-2.013,6.242,4.451,12.166,4.292,18.779s-11.022-1.537-5.182-.339" transform="translate(1247.151 -0.455)" fill="none" stroke="#000" stroke-width="1"/>
        <path id="Path_5810" data-name="Path 5810" d="M1860.542,35.8c-51.483-40.96-122.37-40.949-183.306-19.945-60.947,21.026-115.185,60.321-171.289,94.117-79.577,47.943-164.7,85.756-237.884,144.848-38.575,31.146-74.035,69.881-99.882,114.115-23.251,39.773-38.745,83.986-41.776,131.145-5.384,83.6,28.6,165.651,21.767,249.117-5.521,67.464-37.547,129.481-77.415,181.24-30.881,40.112-65.9,74.586-103.729,105.255-186.221,150.952-440.838,209.355-605.949,394.082-62.028,69.605-107.714,152.913-145.325,241.7-33.774,79.747-61.053,163.892-87.642,246.584Q80.836,2065,33.274,2211.471c-2.024,6.221,4.356,12.124,4.165,18.716-.159,6.56-10.968-1.484-5.193-.286" transform="translate(1221.957 -0.41)" fill="none" stroke="#000" stroke-width="1"/>
        <path id="Path_5811" data-name="Path 5811" d="M1869.726,35.881c-51.186-40.409-121.639-40.186-182.2-19.15-60.6,21.068-114.549,60.247-170.367,93.958-79.175,47.837-163.849,85.6-236.718,144.424-38.416,31.019-73.738,69.552-99.543,113.543-23.219,39.55-38.734,83.488-41.892,130.35-5.627,83.085,27.8,164.591,20.718,247.517-5.7,67.019-37.706,128.655-77.479,180.127-30.8,39.879-65.684,74.172-103.369,104.715-185.373,150.221-438.528,208.91-602.706,393.1-61.763,69.594-107.247,152.849-144.763,241.5-33.711,79.662-61,163.648-87.642,246.15Q96.342,2058.785,48.5,2204.772c-2.035,6.2,4.239,12.092,4.048,18.652s-10.916-1.441-5.2-.222" transform="translate(1196.749 -0.367)" fill="none" stroke="#000" stroke-width="1"/>
        <path id="Path_5812" data-name="Path 5812" d="M1878.92,35.975c-50.89-39.868-120.9-39.434-181.113-18.366-60.247,21.11-113.913,60.173-169.434,93.789-78.772,47.732-163.012,85.438-235.553,144.011-38.257,30.892-73.452,69.234-99.214,112.96-23.177,39.328-38.734,83-42.019,129.555-5.871,82.555,26.981,163.531,19.68,245.917-5.892,66.585-37.865,127.817-77.532,179-30.7,39.656-65.472,73.77-103.009,104.164-184.536,149.5-436.218,208.465-599.452,392.111-61.487,69.584-106.781,152.785-144.2,241.3-33.637,79.566-60.947,163.4-87.642,245.716q-47.562,146.422-95.7,291.921c-2.045,6.178,4.143,12.05,3.921,18.6s-10.862-1.4-5.214-.169" transform="translate(1171.531 -0.323)" fill="none" stroke="#000" stroke-width="1"/>
        <path id="Path_5813" data-name="Path 5813" d="M1888.1,36.058c-50.6-39.306-120.166-38.671-180.021-17.571-59.9,21.153-113.278,60.1-168.5,93.63-78.369,47.626-162.175,85.279-234.376,143.6-38.1,30.765-73.166,68.916-98.875,112.387-23.145,39.095-38.723,82.5-42.136,128.761-6.115,82.036,26.176,162.471,18.63,244.317-6.072,66.15-38.013,126.991-77.6,177.891-30.616,39.423-65.26,73.357-102.648,103.623-183.7,148.769-433.9,208.02-596.21,391.125C345.148,1483.4,300.055,1566.541,262.73,1654.9c-33.563,79.482-60.894,163.15-87.653,245.281q-47.705,146.167-96.12,291.169c-2.066,6.157,4.038,12.018,3.794,18.535s-10.809-1.346-5.224-.117" transform="translate(1146.334 -0.279)" fill="none" stroke="#000" stroke-width="1"/>
        <path id="Path_5814" data-name="Path 5814" d="M1897.27,36.142c-50.307-38.755-119.424-37.908-178.93-16.776-59.548,21.2-112.642,60.025-167.569,93.471-77.956,47.52-161.338,85.12-233.21,143.173-37.939,30.648-72.88,68.588-98.536,111.815-23.1,38.872-38.713,82.015-42.263,127.966-6.359,81.506,25.371,161.412,17.592,242.717-6.263,65.7-38.173,126.164-77.649,176.768-30.532,39.19-65.048,72.954-102.277,103.083-182.851,148.048-431.99,207.225-592.967,390.14-61.116,69.435-105.849,152.658-143.078,240.883-33.488,79.4-60.841,162.906-87.652,244.847q-47.848,145.9-96.544,290.417c-2.077,6.146,3.942,11.975,3.677,18.471s-10.757-1.3-5.246-.063" transform="translate(1121.144 -0.236)" fill="none" stroke="#000" stroke-width="1"/>
        <path id="Path_5815" data-name="Path 5815" d="M1906.474,36.237c-50.01-38.215-118.682-37.155-177.828-15.992-59.2,21.238-112.006,59.951-166.636,93.312-77.553,47.414-160.49,84.961-232.045,142.76-37.781,30.521-72.594,68.27-98.2,111.232-23.071,38.649-38.7,81.517-42.39,127.182-6.6,80.976,24.555,160.352,16.543,241.116-6.443,65.271-38.331,125.338-77.7,175.655-30.436,38.957-64.836,72.541-101.917,102.542C844.289,1161.361,596.559,1220.771,436.578,1403.2c-60.872,69.414-105.382,152.584-142.527,240.682-33.414,79.3-60.787,162.663-87.653,244.4q-47.991,145.643-96.979,289.664c-2.088,6.125,3.836,11.943,3.55,18.418s-10.7-1.25-5.257,0" transform="translate(1095.917 -0.193)" fill="none" stroke="#000" stroke-width="1"/>
        <path id="Path_5816" data-name="Path 5816" d="M1915.658,36.321c-49.713-37.653-117.941-36.392-176.736-15.2-58.849,21.28-111.37,59.876-165.7,93.142-77.15,47.308-159.653,84.8-230.879,142.347-37.621,30.394-72.3,67.941-97.858,110.66-23.029,38.427-38.7,81.029-42.507,126.387-6.846,80.457,23.749,159.292,15.5,239.527-6.623,64.836-38.48,124.511-77.765,174.542-30.352,38.724-64.624,72.127-101.557,102-181.166,146.6-427.5,206.229-586.481,388.168-60.629,69.382-104.916,152.52-141.965,240.48-33.351,79.217-60.735,162.408-87.653,243.967q-48.135,145.388-97.4,288.911c-2.109,6.1,3.741,11.9,3.423,18.355s-10.651-1.208-5.267.042" transform="translate(1070.71 -0.149)" fill="none" stroke="#000" stroke-width="1"/>
        <path id="Path_5817" data-name="Path 5817" d="M1924.862,36.415C1875.445-.7,1807.663.776,1749.228,22c-58.5,21.322-110.734,59.792-164.771,92.983-76.748,47.2-158.815,84.643-229.713,141.923-37.462,30.267-72.01,67.623-97.53,110.088-23,38.2-38.692,80.531-42.634,125.592-7.09,79.927,22.944,158.243,14.455,237.926-6.814,64.391-38.639,123.684-77.818,173.419-30.267,38.49-64.412,71.724-101.2,101.461-180.329,145.865-425.249,205.731-583.238,387.183-60.385,69.361-104.45,152.457-141.4,240.269-33.276,79.122-60.682,162.164-87.653,243.533q-48.277,145.134-97.837,288.159c-2.12,6.083,3.635,11.869,3.3,18.292s-10.6-1.155-5.278.1" transform="translate(1045.483 -0.106)" fill="none" stroke="#000" stroke-width="1"/>
        <path id="Path_5818" data-name="Path 5818" d="M1934.034,36.5c-49.12-36.562-116.468-34.866-174.542-13.628-58.16,21.365-110.1,59.717-163.839,92.824-76.345,47.1-157.978,84.484-228.547,141.51-37.3,30.15-71.724,67.305-97.19,109.5-22.954,37.982-38.681,80.044-42.751,124.8-7.333,79.408,22.128,157.183,13.417,236.326-6.995,63.956-38.787,122.858-77.882,172.306-30.171,38.257-64.2,71.311-100.825,100.921-179.481,145.134-423,205.233-580,386.2-60.141,69.329-103.983,152.393-140.842,240.067-33.2,79.037-60.629,161.921-87.663,243.1q-48.4,144.864-98.261,287.417c-2.13,6.062,3.539,11.827,3.179,18.239s-10.545-1.113-5.288.159" transform="translate(1020.286 -0.063)" fill="none" stroke="#000" stroke-width="1"/>
        <path id="Path_5819" data-name="Path 5819" d="M1943.218,36.584c-48.834-36-115.736-34.1-173.451-12.834-57.81,21.407-109.463,59.643-162.906,92.655-75.932,46.99-157.13,84.325-227.382,141.1-37.145,30.023-71.438,66.977-96.851,108.933-22.923,37.759-38.671,79.545-42.878,124-7.577,78.878,21.323,156.124,12.367,234.726-7.185,63.522-38.946,122.021-77.935,171.183-30.087,38.035-63.988,70.909-100.465,100.38-178.644,144.413-420.745,204.735-576.752,385.212-59.9,69.308-103.517,152.33-140.28,239.866-33.128,78.941-60.576,161.666-87.663,242.663q-48.548,144.609-98.685,286.665c-2.141,6.041,3.433,11.795,3.052,18.175s-10.492-1.07-5.3.212" transform="translate(995.09 -0.021)" fill="none" stroke="#000" stroke-width="1"/>
        <path id="Path_5820" data-name="Path 5820" d="M1952.4,36.679C1903.863,1.22,1837.406,3.329,1780.041,24.63c-57.46,21.45-108.827,59.569-161.974,92.5-75.529,46.894-156.293,84.166-226.216,140.672-36.986,29.9-71.152,66.659-96.512,108.36-22.891,37.537-38.671,79.058-43,123.218-7.821,78.358,20.517,155.064,11.329,233.126-7.365,63.077-39.105,121.194-77.988,170.07-30,37.8-63.776,70.5-100.1,99.84-177.806,143.682-418.5,204.237-573.5,384.226-59.665,69.276-103.051,152.256-139.719,239.654-33.065,78.857-60.523,161.423-87.663,242.229Q236,2002.876,185.571,2144.433c-2.162,6.03,3.328,11.753,2.925,18.111s-10.439-1.017-5.309.265" transform="translate(969.883 0.021)" fill="none" stroke="#000" stroke-width="1"/>
        <path id="Path_5821" data-name="Path 5821" d="M1961.584,36.764c-48.24-34.908-114.253-32.588-171.257-11.255C1733.217,47,1682.136,85,1629.286,117.846c-75.126,46.788-155.456,84.007-225.05,140.259-36.827,29.769-70.855,66.33-96.173,107.777-22.848,37.314-38.66,78.56-43.122,122.423-8.065,77.829,19.7,154,10.28,231.525-7.556,62.642-39.254,120.367-78.051,168.947-29.906,37.568-63.564,70.092-99.744,99.3-176.958,142.961-416.241,203.739-570.256,383.24-59.421,69.255-102.585,152.192-139.157,239.453-32.99,78.772-60.47,161.179-87.663,241.784q-48.834,144.085-99.543,285.16c-2.173,6.009,3.232,11.721,2.8,18.058s-10.386-.975-5.32.318" transform="translate(944.676 0.064)" fill="none" stroke="#000" stroke-width="1"/>
        <path id="Path_5822" data-name="Path 5822" d="M1970.777,36.859C1922.823,2.5,1857.266,5.035,1800.611,26.4c-56.761,21.534-107.555,59.421-160.108,92.178-74.724,46.682-154.619,83.848-223.885,139.846-36.667,29.641-70.569,66.012-95.844,107.205-22.817,37.092-38.65,78.072-43.249,121.628-8.309,77.3,18.9,152.944,9.231,229.936-7.736,62.208-39.413,119.541-78.1,167.834-29.822,37.335-63.352,69.679-99.374,98.759-176.121,142.23-413.995,203.251-567.013,382.255-59.177,69.223-102.118,152.128-138.6,239.251-32.916,78.677-60.417,160.924-87.663,241.349q-48.977,143.83-99.978,284.407c-2.183,5.988,3.126,11.678,2.681,17.995s-10.333-.922-5.33.371" transform="translate(919.46 0.107)" fill="none" stroke="#000" stroke-width="1"/>
        <path id="Path_5823" data-name="Path 5823" d="M1980,36.945c-47.657-33.806-112.78-31.072-169.074-9.676C1754.513,48.846,1704,86.616,1651.738,119.277c-74.321,46.576-153.771,83.689-222.719,139.422-36.509,29.525-70.283,65.694-95.505,106.633-22.774,36.869-38.649,77.574-43.376,120.834-8.552,76.779,18.079,151.885,8.192,228.336-7.927,61.763-39.571,118.714-78.168,166.711-29.737,37.1-63.14,69.266-99.013,98.219-175.274,141.51-411.738,202.753-563.77,381.28-58.933,69.2-101.652,152.065-138.033,239.05-32.842,78.592-60.364,160.681-87.674,240.915q-49.12,143.576-100.4,283.655c-2.2,5.966,3.031,11.647,2.554,17.942s-10.28-.879-5.352.424" transform="translate(894.216 0.148)" fill="none" stroke="#000" stroke-width="1"/>
        <path id="Path_5824" data-name="Path 5824" d="M1989.171,37.03C1941.81,3.775,1877.133,6.721,1821.2,28.149,1765.138,49.768,1714.916,87.411,1662.946,120c-73.908,46.47-152.934,83.53-221.553,139.008-36.35,29.4-70,65.366-95.166,106.05-22.742,36.646-38.639,77.087-43.492,120.039-8.8,76.25,17.274,150.825,7.143,226.735-8.107,61.328-39.72,117.888-78.221,165.6-29.641,36.869-62.928,68.863-98.653,97.678C958.567,1115.886,723.512,1177.373,572.475,1355.4c-58.689,69.171-101.186,152-137.483,238.838-32.768,78.5-60.311,160.437-87.674,240.48q-49.263,143.306-100.826,282.9c-2.215,5.945,2.925,11.6,2.427,17.878s-10.227-.827-5.363.477" transform="translate(869.029 0.19)" fill="none" stroke="#000" stroke-width="1"/>
        <path id="Path_5825" data-name="Path 5825" d="M1998.344,37.126c-47.064-32.7-111.3-29.546-166.88-8.086-55.712,21.661-105.647,59.188-157.321,91.69-73.5,46.364-152.1,83.371-220.377,138.6-36.191,29.271-69.711,65.048-94.827,105.478-22.7,36.424-38.628,76.589-43.62,119.255-9.04,75.73,16.469,149.765,6.1,225.135-8.3,60.894-39.879,117.061-78.274,164.475-29.557,36.636-62.717,68.45-98.293,97.137-173.589,140.058-407.233,201.778-557.285,379.309-58.446,69.149-100.72,151.938-136.921,238.636-32.7,78.412-60.258,160.183-87.674,240.046q-49.406,143.052-101.26,282.161c-2.225,5.935,2.83,11.573,2.311,17.814s-10.174-.784-5.373.53" transform="translate(843.833 0.232)" fill="none" stroke="#000" stroke-width="1"/>
        <path id="Path_5826" data-name="Path 5826" d="M2007.527,37.212c-46.767-32.153-110.565-28.783-165.789-7.3-55.362,21.7-105.011,59.113-156.389,91.531-73.1,46.258-151.259,83.223-219.211,138.171-36.032,29.143-69.425,64.719-94.488,104.905-22.668,36.2-38.618,76.1-43.736,118.46-9.283,75.2,15.653,148.705,5.055,223.535-8.478,60.449-40.027,116.224-78.337,163.362-29.472,36.4-62.5,68.047-97.922,96.6C983.959,1105.8,751.734,1167.762,602.669,1344.795c-58.2,69.128-100.253,151.864-136.359,238.435-32.63,78.316-60.205,159.939-87.674,239.612q-49.549,142.8-101.684,281.408c-2.247,5.913,2.723,11.53,2.183,17.761s-10.121-.741-5.383.594" transform="translate(818.627 0.273)" fill="none" stroke="#000" stroke-width="1"/>
        <path id="Path_5827" data-name="Path 5827" d="M2016.722,37.308C1970.241,5.706,1906.9,9.277,1852.036,30.8c-55.012,21.746-104.375,59.039-155.456,91.362-72.7,46.152-150.422,83.064-218.045,137.758-35.873,29.027-69.128,64.4-94.159,104.323-22.626,35.979-38.618,75.6-43.864,117.665-9.527,74.681,14.847,147.646,4.016,221.935-8.658,60.014-40.186,115.4-78.39,162.239-29.376,36.18-62.282,67.634-97.561,96.057-171.914,138.606-402.719,200.8-550.8,377.338-57.958,69.1-99.787,151.8-135.8,238.234-32.556,78.232-60.152,159.695-87.684,239.177Q344.6,1959.413,292.187,2097.542c-2.257,5.892,2.628,11.488,2.056,17.7s-10.068-.689-5.394.646" transform="translate(793.407 0.315)" fill="none" stroke="#000" stroke-width="1"/>
        <path id="Path_5828" data-name="Path 5828" d="M2025.927,37.394c-46.184-31.051-109.081-27.268-163.595-5.723-54.673,21.778-103.74,58.965-154.523,91.2-72.286,46.046-149.574,82.9-216.88,137.345-35.714,28.9-68.842,64.084-93.82,103.75-22.594,35.756-38.607,75.116-43.991,116.87-9.76,74.151,14.042,146.586,2.967,220.345-8.849,59.58-40.345,114.571-78.454,161.126-29.292,35.947-62.07,67.221-97.2,95.516-171.066,137.875-400.461,200.316-547.546,376.352-57.714,69.075-99.321,151.736-135.236,238.022-32.482,78.147-60.1,159.441-87.684,238.732q-49.835,142.272-102.542,279.9c-2.268,5.871,2.522,11.456,1.928,17.634s-10.015-.646-5.4.7" transform="translate(768.18 0.356)" fill="none" stroke="#000" stroke-width="1"/>
        <path id="Path_5829" data-name="Path 5829" d="M2035.078,37.48c-45.888-30.51-108.35-26.5-162.5-4.928-54.323,21.82-103.1,58.891-153.591,91.044-71.884,45.941-148.737,82.746-215.714,136.921-35.555,28.772-68.556,63.755-93.481,103.178-22.562,35.534-38.6,74.618-44.107,116.086-10,73.621,13.226,145.526,1.928,218.745-9.029,59.134-40.493,113.744-78.507,160-29.207,35.714-61.858,66.818-96.841,94.976-170.229,137.154-398.2,199.828-544.3,375.367-57.471,69.054-98.854,151.673-134.674,237.821-32.407,78.051-60.046,159.2-87.684,238.3q-49.978,142.018-102.966,279.151c-2.279,5.85,2.427,11.414,1.812,17.582s-9.962-.594-5.416.752" transform="translate(743.015 0.397)" fill="none" stroke="#000" stroke-width="1"/>
        <path id="Path_5830" data-name="Path 5830" d="M2044.273,37.577c-45.591-29.959-107.608-25.742-161.4-4.144C1828.9,55.3,1780.4,92.25,1730.213,124.308c-71.481,45.835-147.9,82.587-214.548,136.507-35.407,28.645-68.27,63.437-93.142,102.6-22.52,35.3-38.586,74.13-44.234,115.291-10.248,73.1,12.42,144.466.88,217.144-9.22,58.7-40.652,112.917-78.56,158.89-29.112,35.481-61.646,66.4-96.48,94.424-169.381,136.423-395.947,199.341-541.06,374.381-57.227,69.033-98.388,151.609-134.113,237.619-32.344,77.966-59.982,158.953-87.684,237.863q-50.121,141.748-103.4,278.4c-2.3,5.829,2.321,11.382,1.685,17.518s-9.909-.552-5.426.805" transform="translate(717.797 0.438)" fill="none" stroke="#000" stroke-width="1"/>
        <path id="Path_5831" data-name="Path 5831" d="M2053.447,37.664c-45.294-29.408-106.866-24.989-160.31-3.349-53.624,21.905-101.832,58.732-151.725,90.715-71.078,45.729-147.063,82.428-213.383,136.094-35.248,28.518-67.984,63.109-92.8,102.023-22.488,35.078-38.586,73.632-44.351,114.5-10.492,72.572,11.615,143.406-.159,215.544-9.4,58.266-40.811,112.091-78.623,157.766-29.027,35.248-61.434,66-96.11,93.884-168.544,135.7-393.689,198.853-537.817,373.4-56.983,69-97.922,151.535-133.551,237.418-32.27,77.871-59.93,158.71-87.684,237.429q-50.264,141.493-103.825,277.646c-2.31,5.818,2.225,11.339,1.558,17.454s-9.856-.5-5.437.858" transform="translate(692.599 0.478)" fill="none" stroke="#000" stroke-width="1"/>
        <path id="Path_5832" data-name="Path 5832" d="M2062.659,37.761c-45.008-28.857-106.135-24.226-159.218-2.554-53.274,21.948-101.2,58.658-150.793,90.556-70.675,45.633-146.215,82.269-212.217,135.67-35.089,28.4-67.687,62.791-92.474,101.451-22.446,34.855-38.575,73.145-44.478,113.7-10.735,72.053,10.8,142.347-1.208,213.944-9.591,57.82-40.96,111.264-78.676,156.654-28.942,35.014-61.222,65.589-95.749,93.344-167.7,134.971-391.422,198.376-534.574,372.41-56.74,68.98-97.455,151.472-132.989,237.206-32.2,77.786-59.876,158.455-87.7,236.994q-50.407,141.239-104.248,276.9c-2.321,5.8,2.119,11.308,1.43,17.4-.657,5.776-9.8-.456-5.447.912" transform="translate(667.364 0.519)" fill="none" stroke="#000" stroke-width="1"/>
        <path id="Path_5833" data-name="Path 5833" d="M2071.851,37.848c-44.711-28.306-105.393-23.463-158.116-1.77-52.924,21.99-100.561,58.583-149.86,90.4C1693.612,172,1618.5,208.586,1552.823,261.733c-34.93,28.274-67.4,62.473-92.135,100.868-22.414,34.633-38.565,72.646-44.605,112.907-10.979,71.523,9.994,141.287-2.247,212.354-9.771,57.386-41.119,110.427-78.74,155.53-28.846,34.781-61.01,65.186-95.389,92.8-166.859,134.25-389.164,197.889-531.331,371.424-56.5,68.958-96.989,151.408-132.427,237-32.121,77.691-59.823,158.211-87.695,236.559-33.7,93.979-68.513,186.284-104.683,276.152-2.321,5.775,2.024,11.265,1.314,17.338-.668,5.733-9.76-.413-5.469.975" transform="translate(642.149 0.559)" fill="none" stroke="#000" stroke-width="1"/>
        <path id="Path_5834" data-name="Path 5834" d="M2081.045,37.936c-44.414-27.755-104.651-22.7-157.024-.975-52.574,22.032-99.925,58.509-148.928,90.228-69.859,45.421-144.54,81.951-209.885,134.844-34.771,28.147-67.114,62.144-91.8,100.3-22.372,34.41-38.554,72.159-44.722,112.122-11.223,71,9.177,140.227-3.3,210.754-9.962,56.951-41.267,109.6-78.793,154.417-28.762,34.548-60.8,64.772-95.028,92.263C1085.551,1065.4,864.665,1129.3,723.484,1302.323c-56.252,68.937-96.523,151.344-131.876,236.8-32.058,77.606-59.77,157.968-87.695,236.114-33.8,93.81-68.746,185.871-105.107,275.4-2.342,5.765,1.929,11.223,1.187,17.274-.689,5.7-9.707-.361-5.479,1.028" transform="translate(616.93 0.599)" fill="none" stroke="#000" stroke-width="1"/>
        <path id="Path_5835" data-name="Path 5835" d="M2090.241,38.033c-44.118-27.2-103.92-21.948-155.933-.191-52.225,22.075-99.289,58.435-148.006,90.069-69.457,45.315-143.7,81.792-208.72,134.42-34.612,28.02-66.828,61.826-91.457,99.723-22.34,34.188-38.554,71.661-44.849,111.328-11.467,70.474,8.372,139.168-4.345,209.154-10.142,56.506-41.426,108.774-78.846,153.294-28.666,34.326-60.586,64.359-94.657,91.722-165.174,132.8-384.639,196.924-524.846,369.453-56.008,68.916-96.056,151.281-131.314,236.6-31.984,77.521-59.718,157.713-87.7,235.68-33.88,93.64-68.98,185.458-105.541,274.647-2.353,5.744,1.823,11.191,1.06,17.221-.71,5.659-9.654-.318-5.49,1.081" transform="translate(591.722 0.639)" fill="none" stroke="#000" stroke-width="1"/>
        <path id="Path_5836" data-name="Path 5836" d="M2099.392,38.121c-43.821-26.653-103.178-21.185-154.831.6-51.875,22.117-98.653,58.361-147.073,89.91-69.054,45.209-142.855,81.633-207.543,134.007-34.453,27.9-66.542,61.5-91.118,99.14-22.308,33.965-38.459,71.184-44.966,110.533-11.573,69.976,7.567,138.108-5.384,207.554-10.333,56.072-41.585,107.947-78.91,152.181-28.582,34.092-60.375,63.956-94.3,91.182C1110.934,1055.3,892.889,1119.679,753.679,1291.7c-55.754,68.895-95.59,151.206-130.753,236.39-31.91,77.426-59.665,157.47-87.706,235.245C501.244,1856.8,466,1948.379,429.255,2037.229c-2.363,5.723,1.727,11.149.943,17.157-.731,5.628-9.6-.265-5.5,1.134" transform="translate(566.547 0.678)" fill="none" stroke="#000" stroke-width="1"/>
        <path id="Path_5837" data-name="Path 5837" d="M2108.6,38.212c-43.535-26.1-102.489-20.528-153.739,1.388-51.578,22.054-98.017,58.287-146.141,89.751-68.651,45.1-142.018,81.474-206.377,133.593-34.294,27.776-66.245,61.18-90.789,98.568-22.265,33.743-38.459,70.686-45.093,109.738-11.806,69.446,6.751,137.048-6.433,205.954-10.513,55.637-41.733,107.12-78.963,151.058-28.5,33.859-60.162,63.543-93.937,90.641-163.489,131.346-380.114,195.97-518.349,367.482-55.51,68.874-95.124,151.143-130.191,236.188-31.835,77.341-59.611,157.226-87.706,234.811-34.071,93.29-69.456,184.631-106.389,273.142-2.385,5.7,1.622,11.117.816,17.094-.752,5.585-9.548-.222-5.511,1.187" transform="translate(541.318 0.715)" fill="none" stroke="#000" stroke-width="1"/>
        <path id="Path_5838" data-name="Path 5838" d="M2117.8,38.31c-43.238-25.551-101.747-19.764-152.647,2.183-51.229,22.1-97.381,58.2-145.208,89.581-68.238,45-141.181,81.315-205.212,133.169-34.135,27.649-65.959,60.862-90.45,98-22.234,33.52-38.448,70.2-45.22,108.943-12.05,68.927,5.945,135.988-7.471,204.353-10.693,55.192-41.892,106.294-79.026,149.945-28.4,33.626-59.951,63.141-93.577,90.1-162.652,130.615-377.847,195.494-515.106,366.5-55.266,68.853-94.658,151.079-129.63,235.987-31.761,77.246-59.558,156.971-87.706,234.376-34.167,93.121-69.69,184.218-106.824,272.4-2.4,5.68,1.526,11.074.689,17.041-.774,5.553-9.5-.17-5.521,1.24" transform="translate(516.09 0.754)" fill="none" stroke="#000" stroke-width="1"/>
        <path id="Path_5839" data-name="Path 5839" d="M2126.965,38.4c-42.941-25-101.016-19.012-151.545,2.978S1878.674,99.5,1831.144,130.8C1763.309,175.69,1690.8,211.955,1627.1,263.555c-33.976,27.522-65.673,60.533-90.111,97.413-22.191,33.3-38.437,69.7-45.336,108.159-12.283,68.4,5.14,134.928-8.521,202.764-10.884,54.758-42.051,105.457-79.079,148.822-28.317,33.393-59.739,62.727-93.206,89.56-161.8,129.884-375.578,195.017-511.863,365.511-55.023,68.831-94.191,151.016-129.068,235.786-31.7,77.161-59.505,156.728-87.706,233.942-34.262,92.951-69.933,183.8-107.247,271.648-2.406,5.659,1.42,11.032.561,16.977-.794,5.521-9.442-.127-5.531,1.293" transform="translate(490.904 0.793)" fill="none" stroke="#000" stroke-width="1"/>
        <path id="Path_5840" data-name="Path 5840" d="M2136.129,38.5c-42.645-24.449-100.274-18.26-150.454,3.762-50.529,22.17-96.109,58.054-143.343,89.263-67.432,44.785-139.5,81-202.88,132.343-33.817,27.395-65.387,60.215-89.772,96.841-22.159,33.075-38.427,69.213-45.464,107.364-12.526,67.877,4.324,133.869-9.559,201.163-11.064,54.323-42.2,104.63-79.132,147.709-28.232,33.16-59.527,62.324-92.845,89.02-160.967,129.163-373.311,194.55-508.621,364.536-54.779,68.81-93.725,150.952-128.506,235.574-31.623,77.066-59.452,156.484-87.706,233.5-34.357,92.771-70.166,183.391-107.671,270.9-2.416,5.649,1.325,11,.445,16.914-.816,5.479-9.389-.085-5.542,1.346" transform="translate(465.726 0.832)" fill="none" stroke="#000" stroke-width="1"/>
        <path id="Path_5841" data-name="Path 5841" d="M2145.356,38.587c-42.348-23.9-99.543-17.5-149.362,4.557s-95.474,57.979-142.41,89.094c-67.03,44.679-138.659,80.838-201.714,131.919-33.658,27.278-65.1,59.887-89.433,96.268-22.117,32.853-38.416,68.725-45.591,106.569-12.76,67.348,3.518,132.809-10.608,199.563-11.255,53.878-42.359,103.8-79.2,146.586-28.137,32.927-59.315,61.911-92.485,88.479-160.129,128.432-371.043,194.074-505.378,363.55-54.525,68.789-93.259,150.888-127.945,235.372-31.549,76.981-59.4,156.23-87.716,233.062-34.453,92.6-70.4,182.978-108.106,270.143-2.437,5.627,1.219,10.958.318,16.861-.837,5.447-9.337-.032-5.553,1.409" transform="translate(440.476 0.87)" fill="none" stroke="#000" stroke-width="1"/>
        <path id="Path_5842" data-name="Path 5842" d="M2154.535,38.677c-42.062-23.357-98.8-16.744-148.26,5.341-49.84,22.255-94.838,57.905-141.478,88.935-66.616,44.573-137.822,80.679-200.549,131.505-33.5,27.151-64.815,59.569-89.1,95.686-22.085,32.63-38.406,68.227-45.708,105.775-13,66.828,2.713,131.749-11.647,197.963-11.435,53.444-42.507,102.977-79.249,145.473-28.052,32.693-59.1,61.5-92.125,87.939C1187.135,1025,977.641,1090.89,844.282,1259.858,790,1328.636,751.489,1410.672,716.9,1495.029c-31.475,76.9-59.346,155.986-87.716,232.628-34.548,92.432-70.644,182.565-108.53,269.391-2.448,5.606,1.124,10.926.191,16.8-.858,5.405-9.283.011-5.574,1.463" transform="translate(415.273 0.907)" fill="none" stroke="#000" stroke-width="1"/>
        <path id="Path_5843" data-name="Path 5843" d="M2163.751,38.776c-41.765-22.806-98.07-15.981-147.169,6.136-49.491,22.287-94.2,57.831-140.545,88.776-66.214,44.467-136.984,80.52-199.383,131.092-33.34,27.024-64.518,59.251-88.765,95.113-22.043,32.407-38.4,67.74-45.835,104.99-13.247,66.309,1.9,130.689-12.7,196.363-11.626,53.009-42.666,102.15-79.312,144.35-27.967,32.471-58.891,61.1-91.754,87.4-158.445,126.98-366.507,193.13-498.892,361.579-54.037,68.757-92.326,150.751-126.832,234.97-31.4,76.8-59.294,155.742-87.716,232.193-34.644,92.252-70.877,182.151-108.965,268.638-2.459,5.585,1.028,10.884.064,16.734-.88,5.373-9.231.064-5.585,1.515" transform="translate(390.034 0.945)" fill="none" stroke="#000" stroke-width="1"/>
        <path id="Path_5844" data-name="Path 5844" d="M2172.9,38.867c-41.469-22.255-97.328-15.229-146.077,6.92-49.141,22.329-93.555,57.757-139.613,88.617C1821.4,178.765,1751.067,214.765,1689,265.072c-33.181,26.9-64.232,58.923-88.427,94.541-22.011,32.185-38.384,67.242-45.951,104.2-13.48,65.779,1.092,129.63-13.734,194.762-11.806,52.564-42.91,101.249-79.365,143.237-27.946,32.174-58.679,60.682-91.394,86.858-157.6,126.26-364.229,192.654-495.639,360.593-53.783,68.736-91.86,150.687-126.27,234.758-31.337,76.716-59.24,155.488-87.716,231.759-34.739,92.082-71.12,181.738-109.388,267.886-2.469,5.564.922,10.841-.053,16.681-.9,5.331-9.177.106-5.6,1.568" transform="translate(364.857 0.982)" fill="none" stroke="#000" stroke-width="1"/>
        <path id="Path_5845" data-name="Path 5845" d="M2182.078,38.967c-41.171-21.7-96.6-14.466-144.975,7.715s-92.92,57.672-138.68,88.447c-65.408,44.266-135.3,80.2-197.052,130.255-33.022,26.78-63.946,58.6-88.087,93.958-21.979,31.962-38.374,66.754-46.078,103.4-13.724,65.26.276,128.57-14.783,193.173-12,52.13-43.058,100.412-79.418,142.114-27.851,31.941-58.467,60.279-91.034,86.317-156.759,125.528-361.96,192.187-492.4,359.608-53.539,68.715-91.394,150.624-125.709,234.556-31.263,76.621-59.187,155.244-87.716,231.324-34.834,91.913-71.353,181.325-109.812,267.144-2.491,5.553.826,10.809-.18,16.617-.911,5.3-9.125.148-5.606,1.622" transform="translate(339.671 1.02)" fill="none" stroke="#000" stroke-width="1"/>
        <path id="Path_5846" data-name="Path 5846" d="M2191.294,39.058c-40.875-21.153-95.855-13.713-143.883,8.51s-92.284,57.6-137.747,88.288c-65.006,44.16-134.462,80.054-195.886,129.842-32.863,26.653-63.66,58.276-87.748,93.386-21.937,31.729-38.363,66.267-46.205,102.606-13.957,64.73-.53,127.51-15.822,191.573-12.176,51.7-43.217,99.586-79.482,141-27.765,31.708-58.255,59.866-90.673,85.777-155.912,124.808-359.693,191.721-489.153,358.622-53.3,68.7-90.927,150.56-125.147,234.355-31.189,76.536-59.135,155-87.727,230.879-34.929,91.733-71.6,180.911-110.247,266.392-2.5,5.532.721,10.767-.307,16.564-.932,5.256-9.072.2-5.616,1.675" transform="translate(314.431 1.056)" fill="none" stroke="#000" stroke-width="1"/>
        <path id="Path_5847" data-name="Path 5847" d="M2200.468,39.149c-40.589-20.6-95.124-12.95-142.792,9.294s-91.648,57.524-136.825,88.13c-64.592,44.054-133.625,79.9-194.709,129.418-32.7,26.526-63.374,57.958-87.419,92.814-21.905,31.507-38.353,65.769-46.322,101.811-14.2,64.211-1.335,126.461-16.871,189.972-12.357,51.25-43.376,98.759-79.535,139.878-27.681,31.475-58.043,59.452-90.3,85.236-155.074,124.077-357.414,191.255-485.91,357.637-53.041,68.683-90.462,150.486-124.585,234.154-31.115,76.44-59.082,154.746-87.727,230.445-35.025,91.563-71.831,180.5-110.671,265.639-2.512,5.511.625,10.725-.424,16.5-.954,5.225-9.019.244-5.627,1.727" transform="translate(289.234 1.092)" fill="none" stroke="#000" stroke-width="1"/>
        <path id="Path_5848" data-name="Path 5848" d="M2209.674,39.25c-40.292-20.051-94.382-12.187-141.69,10.089-47.753,22.488-91.012,57.45-135.893,87.971-64.19,43.948-132.788,79.736-193.544,129-32.545,26.4-63.077,57.64-87.08,92.231-21.863,31.284-38.342,65.281-46.449,101.027-14.434,63.692-2.152,125.4-17.921,188.372-12.548,50.815-43.535,97.932-79.6,138.765-27.6,31.242-57.831,59.05-89.942,84.685-154.237,123.356-355.136,190.788-482.667,356.651-52.8,68.662-89.995,150.422-124.024,233.942-31.051,76.356-59.029,154.5-87.727,230.01-35.121,91.394-72.064,180.085-111.105,264.887-2.522,5.49.53,10.693-.551,16.437-.975,5.182-8.966.3-5.638,1.791" transform="translate(264.004 1.128)" fill="none" stroke="#000" stroke-width="1"/>
        <path id="Path_5849" data-name="Path 5849" d="M2218.848,39.342c-40-19.5-93.64-11.435-140.6,10.873-47.413,22.53-90.376,57.375-134.96,87.8-63.787,43.842-131.94,79.577-192.378,128.591-32.386,26.271-62.791,57.312-86.741,91.659-21.831,31.062-38.331,64.783-46.566,100.232-14.677,63.162-2.957,124.341-18.959,186.772-12.728,50.381-43.694,97.1-79.651,137.652-27.5,31.009-57.609,58.636-89.581,84.145-153.39,122.625-352.868,190.322-479.424,355.666-52.543,68.651-89.528,150.359-123.462,233.74-30.977,76.271-58.976,154.258-87.727,229.575-35.216,91.213-72.307,179.672-111.529,264.134-2.543,5.468.424,10.651-.678,16.384-1,5.151-8.912.339-5.648,1.844" transform="translate(238.806 1.164)" fill="none" stroke="#000" stroke-width="1"/>
        <path id="Path_5850" data-name="Path 5850" d="M2228.045,39.444c-39.7-18.948-92.909-10.672-139.507,11.668-47.064,22.562-89.74,57.3-134.028,87.642-63.384,43.736-131.1,79.418-191.212,128.167-32.227,26.155-62.5,56.994-86.4,91.086-21.789,30.839-38.321,64.3-46.693,99.437-14.922,62.642-3.762,123.282-20.008,185.172-12.918,49.936-43.842,96.268-79.7,136.529-27.416,30.775-57.4,58.234-89.221,83.6-152.552,121.9-350.589,189.856-476.182,354.68-52.3,68.63-89.062,150.3-122.9,233.539-30.9,76.176-58.923,154-87.737,229.141-35.311,91.044-72.541,179.258-111.953,263.382-2.554,5.458.329,10.619-.805,16.32-1.017,5.119-8.86.392-5.659,1.9" transform="translate(213.596 1.2)" fill="none" stroke="#000" stroke-width="1"/>
        <path id="Path_5851" data-name="Path 5851" d="M2237.246,39.536c-39.4-18.4-92.167-9.919-138.415,12.463-46.714,22.6-89.1,57.227-133.095,87.483-62.981,43.63-130.266,79.259-190.046,127.754-32.069,26.028-62.219,56.665-86.063,90.5-21.757,30.616-38.31,63.8-46.82,98.642-15.155,62.123-4.578,122.222-21.047,183.582-13.1,49.5-44,95.442-79.768,135.416-27.331,30.542-57.185,57.82-88.861,83.064-151.7,121.173-348.311,189.39-472.938,353.695-52.045,68.619-88.6,150.231-122.339,233.338-30.828,76.091-58.859,153.76-87.737,228.707-35.406,90.874-72.784,178.834-112.387,262.629-2.565,5.437.233,10.576-.922,16.257-1.028,5.076-8.807.435-5.68,1.95" transform="translate(188.372 1.234)" fill="none" stroke="#000" stroke-width="1"/>
        <path id="Path_5852" data-name="Path 5852" d="M2246.42,39.629c-39.116-17.846-91.436-9.156-137.313,13.247s-88.469,57.153-132.162,87.314c-62.568,43.524-129.428,79.1-188.881,127.341-31.909,25.9-61.932,56.347-85.735,89.931-21.714,30.394-38.3,63.31-46.937,97.848-15.4,61.593-5.384,121.162-22.1,181.982-13.29,49.067-44.16,94.6-79.821,134.293-27.246,30.309-56.973,57.418-88.49,82.523-150.867,120.452-346.032,188.934-469.7,352.709-51.8,68.6-88.129,150.168-121.777,233.126-30.754,76-58.806,153.517-87.737,228.261-35.491,90.694-73.017,178.421-112.811,261.888-2.586,5.415.127,10.534-1.049,16.2-1.049,5.045-8.754.477-5.691,2" transform="translate(163.174 1.269)" fill="none" stroke="#000" stroke-width="1"/>
        <path id="Path_5853" data-name="Path 5853" d="M2255.616,39.732c-38.819-17.3-90.694-8.4-136.221,14.042-46.026,22.689-87.833,57.068-131.23,87.155C1926,184.347,1859.585,219.87,1800.45,267.845c-31.75,25.773-61.636,56.029-85.4,89.359-21.683,30.171-38.3,62.823-47.064,97.063-15.642,61.074-6.189,120.1-23.134,180.381-13.47,48.622-44.319,93.778-79.885,133.18-27.162,30.076-56.761,57-88.13,81.983C1326.823,969.533,1133.1,1038.279,1010.4,1201.535c-51.547,68.588-87.663,150.094-121.226,232.924-30.691,75.911-58.753,153.262-87.738,227.827-35.587,90.525-73.261,178.008-113.235,261.135-2.6,5.394.032,10.5-1.176,16.14-1.07,5-8.7.53-5.7,2.056" transform="translate(137.954 1.303)" fill="none" stroke="#000" stroke-width="1"/>
        <path id="Path_5854" data-name="Path 5854" d="M2264.813,39.826c-38.522-16.744-89.963-7.641-135.13,14.826-45.676,22.721-87.2,56.994-130.3,87-61.763,43.312-127.743,78.782-186.549,126.5-31.592,25.646-61.286,55.754-85.056,88.776-21.587,29.991-38.289,62.324-47.181,96.268-15.875,60.544-7,119.043-24.183,178.781-13.661,48.187-44.468,92.951-79.938,132.056-27.066,29.853-56.549,56.591-87.769,81.443-149.182,119-341.465,188.012-463.2,350.737-51.292,68.566-87.2,150.03-120.664,232.723-30.616,75.815-58.7,153.019-87.737,227.392-35.682,90.355-73.505,177.594-113.67,260.383-2.607,5.373-.064,10.46-1.3,16.077-1.092,4.97-8.648.572-5.713,2.109" transform="translate(112.734 1.336)" fill="none" stroke="#000" stroke-width="1"/>
        <path id="Path_5855" data-name="Path 5855" d="M2273.988,39.93c-38.225-16.2-89.221-6.888-134.028,15.621-45.326,22.764-86.561,56.92-129.365,86.837-61.36,43.206-126.906,78.624-185.383,126.09-31.432,25.53-61,55.425-84.717,88.2-21.545,29.769-38.278,61.837-47.307,95.474-16.119,60.025-7.81,117.983-25.222,177.181-13.84,47.753-44.626,92.114-79.99,130.944-26.981,29.62-56.337,56.188-87.409,80.9-148.345,118.269-339.186,187.556-459.956,349.752-51.049,68.556-86.731,149.966-120.1,232.522-30.542,75.73-58.647,152.775-87.748,226.958-35.777,90.185-73.738,177.181-114.094,259.63-2.617,5.352-.169,10.417-1.42,16.024-1.113,4.928-8.594.625-5.722,2.162" transform="translate(87.536 1.37)" fill="none" stroke="#000" stroke-width="1"/>
        <path id="Path_5856" data-name="Path 5856" d="M2283.184,40.025c-37.929-15.653-88.49-6.125-132.936,16.405s-85.925,56.845-128.432,86.667c-60.947,43.1-126.069,78.465-184.218,125.666-31.274,25.4-60.7,55.107-84.378,87.631-21.513,29.546-38.268,61.339-47.435,94.679-16.363,59.505-8.743,116.881-26.271,175.581-14.126,47.286-44.785,91.288-80.054,129.82-26.9,29.387-56.125,55.775-87.038,80.362-147.5,117.548-336.9,187.09-456.714,348.767-50.794,68.545-86.264,149.9-119.541,232.31-30.468,75.646-58.445,152.584-87.748,226.523-35.693,90.079-73.982,176.768-114.528,258.878-2.639,5.341-.265,10.386-1.547,15.96-1.123,4.9-8.542.668-5.733,2.225" transform="translate(62.326 1.403)" fill="none" stroke="#000" stroke-width="1"/>
        <path id="Path_5857" data-name="Path 5857" d="M2292.37,40.12c-37.643-15.1-87.748-5.362-131.844,17.2-44.637,22.848-85.289,56.771-127.5,86.508-60.544,43.005-125.221,78.306-183.052,125.253-31.125,25.275-60.417,54.789-84.05,87.049-21.471,29.324-38.257,60.851-47.551,93.895-16.6,58.975-9.548,115.821-27.31,173.991-14.307,46.841-44.934,90.461-80.107,128.708-26.812,29.154-55.913,55.372-86.678,79.821-146.66,116.817-334.619,186.634-453.471,347.791-50.54,68.524-85.8,149.839-118.979,232.108-30.4,75.55-58.393,152.34-87.748,226.089-35.788,89.91-74.215,176.354-114.952,258.125-2.649,5.32-.36,10.344-1.675,15.9-1.145,4.853-8.489.72-5.744,2.278" transform="translate(37.117 1.435)" fill="none" stroke="#000" stroke-width="1"/>
        <path id="Path_5858" data-name="Path 5858" d="M2301.556,40.225c-37.346-14.55-87.017-4.61-130.742,17.995-44.287,22.88-84.654,56.7-126.567,86.349-60.141,42.9-124.384,78.147-181.886,124.84-30.966,25.148-60.131,54.461-83.71,86.476-21.439,29.1-38.247,60.364-47.678,93.1-16.84,58.456-10.365,114.761-28.359,172.391-14.5,46.407-45.093,89.634-80.171,127.584-26.716,28.921-55.7,54.959-86.317,79.28-145.812,116.1-332.33,186.178-450.228,346.806-50.285,68.513-85.332,149.765-118.417,231.907-30.33,75.465-58.34,152.086-87.748,225.644-35.884,89.74-74.458,175.941-115.376,257.384-2.66,5.3-.455,10.3-1.791,15.843-1.166,4.822-8.436.763-5.754,2.331" transform="translate(11.908 1.467)" fill="none" stroke="#000" stroke-width="1"/>
        <path id="Path_5859" data-name="Path 5859" d="M2310.763,40.321c-37.049-14-86.275-3.847-129.651,18.779s-84.018,56.623-125.645,86.19c-59.739,42.793-123.547,77.988-180.71,124.416-30.807,25.031-59.844,54.143-83.371,85.9-21.4,28.878-38.236,59.866-47.806,92.3-17.083,57.937-11.17,113.7-29.4,170.791-14.677,45.962-45.251,88.8-80.224,126.471-26.632,28.688-55.489,54.546-85.957,78.74-144.975,115.365-330.041,185.723-446.985,345.82-50.042,68.5-84.865,149.7-117.855,231.706-30.256,75.37-58.287,151.842-87.759,225.209-35.979,89.56-74.7,175.528-115.81,256.631-2.681,5.278-.562,10.269-1.918,15.78-1.177,4.779-8.383.805-5.765,2.385" transform="translate(-13.322 1.499)" fill="none" stroke="#000" stroke-width="1"/>
        <path id="Path_5860" data-name="Path 5860" d="M2319.938,40.428c-36.753-13.448-85.544-3.095-128.56,19.574-43.588,22.965-83.382,56.538-124.713,86.021-59.336,42.687-122.709,77.829-179.544,124-30.648,24.9-59.548,53.825-83.032,85.321-21.365,28.656-38.225,59.378-47.922,91.51-17.316,57.407-11.986,112.642-30.447,169.19-14.869,45.527-45.411,87.971-80.277,125.348-26.547,28.454-55.277,54.143-85.586,78.2-144.127,114.634-327.752,185.278-443.742,344.835-49.787,68.492-84.4,149.638-117.294,231.493-30.182,75.285-58.234,151.6-87.759,224.775-36.063,89.391-74.935,175.115-116.234,255.879-2.692,5.256-.657,10.227-2.045,15.716-1.2,4.748-8.33.858-5.776,2.438" transform="translate(-38.522 1.53)" fill="none" stroke="#000" stroke-width="1"/>
        <path id="Path_5861" data-name="Path 5861" d="M2329.133,40.525c-36.456-12.9-84.8-2.331-127.457,20.358s-82.81,56.379-123.78,85.862c-59.007,42.465-121.872,77.67-178.379,123.589-30.489,24.777-59.262,53.507-82.693,84.749-21.322,28.433-38.215,58.891-48.049,90.715-17.56,56.888-12.791,111.582-31.5,167.59-15.049,45.093-45.559,87.144-80.34,124.235-26.452,28.221-55.065,53.73-85.226,77.659C1428.422,929.2,1246.25,1000.1,1131.224,1159.132c-49.533,68.482-83.933,149.574-116.732,231.292-30.108,75.19-58.17,151.355-87.759,224.34-36.159,89.221-75.179,174.7-116.669,255.126-2.7,5.246-.752,10.184-2.173,15.663-1.218,4.705-8.277.9-5.8,2.49" transform="translate(-63.729 1.56)" fill="none" stroke="#000" stroke-width="1"/>
        <path id="Path_5862" data-name="Path 5862" d="M2338.318,40.622c-36.17-12.346-84.071-1.568-126.366,21.153-42.9,23.05-82.173,56.3-122.847,85.7-58.6,42.359-121.024,77.511-177.213,123.165-30.33,24.65-58.975,53.179-82.364,84.177-21.291,28.211-38.215,58.393-48.166,89.931-17.8,56.369-13.607,110.522-32.535,165.99-15.239,44.648-45.718,86.307-80.393,123.112-26.367,27.988-54.853,53.327-84.866,77.119-142.453,113.182-323.173,184.366-437.245,342.864-49.279,68.46-83.467,149.511-116.182,231.091-30.044,75.105-58.117,151.1-87.759,223.906-36.254,89.052-75.423,174.288-117.093,254.374-2.713,5.224-.848,10.152-2.289,15.6-1.24,4.673-8.224.954-5.808,2.543" transform="translate(-88.939 1.59)" fill="none" stroke="#000" stroke-width="1"/>
        <path id="Path_5863" data-name="Path 5863" d="M2347.526,40.73c-35.873-11.8-83.329-.816-125.274,21.937C2179.7,85.759,2140.714,118.9,2100.337,148.2c-58.2,42.253-120.187,77.352-176.047,122.752-30.171,24.523-58.689,52.861-82.025,83.594-21.248,27.988-38.2,57.905-48.293,89.136-18.048,55.839-14.413,109.462-33.584,164.4-15.42,44.213-45.877,85.48-80.457,122-26.282,27.755-54.641,52.914-84.505,76.578-141.6,112.462-320.884,183.921-434,341.878-49.024,68.449-83,149.436-115.62,230.89-29.97,75.02-58.064,150.856-87.759,223.471-36.35,88.871-75.656,173.875-117.516,253.621-2.734,5.2-.954,10.11-2.416,15.536-1.25,4.631-8.171,1-5.818,2.607" transform="translate(-114.17 1.619)" fill="none" stroke="#000" stroke-width="1"/>
        <path id="Path_5864" data-name="Path 5864" d="M2356.713,40.829c-35.576-11.244-82.6-.053-124.172,22.732-42.2,23.124-80.9,56.157-120.982,85.374-57.8,42.147-119.35,77.193-174.881,122.339-30.012,24.406-58.393,52.543-81.686,83.021-21.217,27.766-38.194,57.407-48.421,88.341-18.281,55.319-15.229,108.4-34.622,162.8-15.61,43.768-46.036,84.654-80.51,120.876-26.2,27.522-54.429,52.511-84.134,76.038-140.768,111.73-318.585,183.465-430.76,340.893-48.77,68.439-82.534,149.373-115.057,230.677-29.9,74.925-58.011,150.613-87.77,223.037-36.445,88.7-75.9,173.461-117.951,252.869-2.745,5.182-1.049,10.068-2.543,15.483-1.271,4.6-8.118,1.049-5.828,2.66" transform="translate(-139.38 1.648)" fill="none" stroke="#000" stroke-width="1"/>
        <path id="Path_5865" data-name="Path 5865" d="M2365.9,40.928c-35.279-10.693-81.856.7-123.08,23.527s-80.266,56.082-120.049,85.215c-57.4,42.041-118.513,77.044-173.716,121.915-29.853,24.279-58.106,52.214-81.347,82.449-21.174,27.543-38.183,56.92-48.537,87.547-18.524,54.8-16.034,107.343-35.672,161.2-15.79,43.334-46.184,83.827-80.563,119.763-26.1,27.289-54.217,52.1-83.774,75.5-139.92,111.01-316.3,183.02-427.517,339.907-48.516,68.429-82.068,149.309-114.5,230.476-29.821,74.84-57.958,150.369-87.769,222.592-36.541,88.532-76.144,173.048-118.375,252.127-2.756,5.161-1.145,10.036-2.671,15.42-1.282,4.557-8.065,1.091-5.839,2.713" transform="translate(-164.591 1.675)" fill="none" stroke="#000" stroke-width="1"/>
        <path id="Path_5866" data-name="Path 5866" d="M2375.088,41.038C2340.106,30.9,2293.964,42.5,2253.1,65.349s-79.63,56-119.117,85.056c-56.994,41.935-117.665,76.885-172.55,121.5-29.694,24.152-57.82,51.9-81.018,81.866-21.142,27.321-38.173,56.432-48.664,86.752-18.768,54.27-16.85,106.283-36.71,159.6-15.981,42.888-46.343,82.99-80.626,118.64-26.017,27.056-54.005,51.684-83.414,74.946-139.083,110.278-314,182.575-424.274,338.922-48.261,68.418-81.6,149.246-113.935,230.275-29.748,74.745-57.905,150.115-87.769,222.157-36.625,88.362-76.376,172.624-118.8,251.375-2.777,5.14-1.24,9.993-2.787,15.356-1.3,4.525-8.012,1.134-5.85,2.766" transform="translate(-189.792 1.703)" fill="none" stroke="#000" stroke-width="1"/>
        <path id="Path_5867" data-name="Path 5867" d="M2384.276,41.139c-34.7-9.591-80.383,2.225-120.887,25.106-41.161,23.251-78.994,55.923-118.184,84.887-56.591,41.829-116.828,76.727-171.384,121.088-29.535,24.025-57.534,51.578-80.68,81.294-21.1,27.1-38.162,55.934-48.781,85.968-19.012,53.751-17.656,105.213-37.759,158-16.172,42.454-46.5,82.163-80.679,117.527-25.932,26.822-53.794,51.282-83.054,74.406-138.235,109.558-311.707,182.13-421.031,337.936-48.007,68.418-81.135,149.182-113.373,230.074-29.683,74.66-57.852,149.871-87.769,221.723-36.721,88.182-76.62,172.211-119.233,250.622-2.787,5.129-1.335,9.951-2.914,15.3-1.325,4.483-7.959,1.187-5.86,2.819" transform="translate(-215.003 1.73)" fill="none" stroke="#000" stroke-width="1"/>
        <path id="Path_5868" data-name="Path 5868" d="M2393.463,41.251c-34.4-9.05-79.651,2.978-119.795,25.89-40.812,23.294-78.358,55.849-117.252,84.728-56.188,41.723-115.99,76.568-170.218,120.664-29.376,23.908-57.248,51.25-80.34,80.722-21.068,26.875-38.162,55.447-48.908,85.173-19.245,53.232-18.461,104.153-38.8,156.4-16.352,42.009-46.651,81.337-80.743,116.4-25.837,26.589-53.582,50.868-82.682,73.865-137.4,108.827-309.407,181.685-417.789,336.95-47.742,68.407-80.669,149.119-112.811,229.862-29.61,74.565-57.8,149.627-87.769,221.288-36.816,88.013-76.865,171.8-119.657,249.87-2.8,5.108-1.431,9.919-3.042,15.239-1.335,4.451-7.906,1.229-5.871,2.872" transform="translate(-240.214 1.756)" fill="none" stroke="#000" stroke-width="1"/>
        <path id="Path_5869" data-name="Path 5869" d="M2402.663,41.353c-34.1-8.5-78.91,3.741-118.7,26.685s-77.723,55.775-116.319,84.569c-55.785,41.617-115.154,76.409-169.053,120.251-29.218,23.781-56.951,50.932-80,80.139-21.025,26.653-38.151,54.959-49.035,84.378-19.489,52.7-19.277,103.093-39.847,154.81-16.543,41.574-46.81,80.51-80.8,115.291-25.752,26.356-53.37,50.466-82.322,73.325-136.56,108.106-307.107,181.24-414.535,335.965-47.488,68.4-80.2,149.044-112.25,229.66-29.535,74.48-57.746,149.373-87.78,220.854-36.911,87.844-77.108,171.384-120.092,249.117-2.808,5.087-1.536,9.877-3.158,15.186-1.356,4.409-7.853,1.282-5.882,2.925" transform="translate(-265.436 1.781)" fill="none" stroke="#000" stroke-width="1"/>
        <path id="Path_5870" data-name="Path 5870" d="M2411.836,41.455c-33.806-7.948-78.178,4.5-117.6,27.469-40.122,23.368-77.1,55.7-115.386,84.41-55.372,41.511-114.305,76.25-167.876,119.827-29.059,23.654-56.665,50.614-79.662,79.567-20.994,26.43-38.141,54.461-49.152,83.583-19.733,52.182-20.082,102.034-40.885,153.209-16.723,41.14-46.968,79.673-80.86,114.168-25.667,26.123-53.157,50.052-81.961,72.784-135.713,107.375-304.808,180.795-411.293,334.979-47.233,68.386-79.736,148.981-111.687,229.459-29.461,74.4-57.693,149.129-87.78,220.419C1030.685,1649,990.34,1732.3,947.176,1809.695c-2.83,5.066-1.633,9.835-3.286,15.123-1.377,4.377-7.8,1.325-5.9,2.978" transform="translate(-290.635 1.806)" fill="none" stroke="#000" stroke-width="1"/>
        <path id="Path_5871" data-name="Path 5871" d="M2421.056,41.569c-33.51-7.4-77.437,5.256-116.51,28.264s-76.461,55.627-114.465,84.24c-54.969,41.4-113.468,76.091-166.71,119.414-28.9,23.527-56.379,50.286-79.334,78.994-20.951,26.208-38.13,53.973-49.279,82.8-19.977,51.663-20.9,100.974-41.935,151.609-16.914,40.695-47.117,78.846-80.912,113.055-25.583,25.89-52.935,49.639-81.6,72.244-134.876,106.654-302.5,180.36-408.05,333.994-46.979,68.376-79.27,148.917-111.126,229.257-29.4,74.3-57.64,148.885-87.78,219.974-37.1,87.494-77.584,170.557-120.94,247.613-2.84,5.044-1.727,9.8-3.412,15.059-1.388,4.334-7.747,1.378-5.914,3.042" transform="translate(-315.878 1.83)" fill="none" stroke="#000" stroke-width="1"/>
        <path id="Path_5872" data-name="Path 5872" d="M2430.236,41.674c-33.224-6.846-76.705,6.019-115.418,29.059s-75.826,55.542-113.532,84.081c-54.567,41.3-112.631,75.932-165.545,119-28.74,23.4-56.093,49.968-78.994,78.412-20.92,25.985-38.12,53.475-49.4,82-20.22,51.133-21.7,99.914-42.973,150.009-17.094,40.26-47.276,78.019-80.966,111.932-25.487,25.657-52.723,49.236-81.231,71.7-134.028,105.923-300.2,179.915-404.806,333.008-46.714,68.376-78.8,148.854-110.575,229.046-29.324,74.215-57.577,148.642-87.78,219.54-37.2,87.324-77.829,170.144-121.374,246.87-2.851,5.034-1.823,9.76-3.54,15.006-1.41,4.3-7.694,1.42-5.924,3.094" transform="translate(-341.071 1.852)" fill="none" stroke="#000" stroke-width="1"/>
        <path id="Path_5873" data-name="Path 5873" d="M2439.434,41.789c-32.927-6.295-75.964,6.782-114.316,29.843-39.073,23.495-75.19,55.468-112.6,83.922-54.164,41.193-111.794,75.773-164.379,118.576-28.582,23.283-55.8,49.639-78.655,77.839-20.887,25.763-38.119,52.988-49.522,81.209-20.464,50.614-22.52,98.854-44.022,148.409-17.285,39.815-47.435,77.193-81.029,110.819-25.4,25.424-52.511,48.823-80.87,71.163-133.19,105.2-297.9,179.47-401.563,332.023-46.46,68.365-78.338,148.79-110.014,228.844-29.25,74.119-57.524,148.387-87.791,219.1-37.293,87.155-78.072,169.72-121.8,246.118-2.872,5.012-1.919,9.718-3.656,14.942-1.42,4.271-7.641,1.462-5.935,3.147" transform="translate(-366.292 1.875)" fill="none" stroke="#000" stroke-width="1"/>
        <path id="Path_5874" data-name="Path 5874" d="M2448.645,41.9c-32.63-5.744-75.222,7.545-113.224,30.638s-74.554,55.394-111.667,83.753c-53.761,41.087-110.946,75.614-163.213,118.163-28.422,23.156-55.51,49.321-78.316,77.267-20.846,25.54-38.109,52.5-49.65,80.414-20.7,50.095-23.325,97.795-45.072,146.808-17.465,39.381-47.583,76.356-81.082,109.7a920.952,920.952,0,0,1-80.51,70.622c-132.343,104.471-295.588,179.036-398.321,331.037-46.195,68.354-77.871,148.716-109.452,228.643-29.175,74.035-57.471,148.144-87.791,218.671-37.388,86.974-78.316,169.307-122.232,245.366-2.883,4.991-2.013,9.686-3.783,14.879-1.441,4.229-7.588,1.516-5.946,3.2" transform="translate(-391.527 1.896)" fill="none" stroke="#000" stroke-width="1"/>
        <path id="Path_5875" data-name="Path 5875" d="M2457.835,42c-32.333-5.193-74.491,8.3-112.133,31.422-38.384,23.58-73.918,55.319-110.734,83.594-53.358,40.981-110.109,75.455-162.047,117.75-28.264,23.029-55.224,49-77.977,76.684-20.814,25.318-38.1,52-49.766,79.62-20.941,49.565-24.131,96.735-46.11,145.219-17.645,38.935-47.742,75.529-81.146,108.583-25.222,24.957-52.087,48.007-80.15,70.082-131.505,103.75-293.278,178.6-395.078,330.062-45.941,68.354-77.405,148.652-108.89,228.442-29.1,73.939-57.417,147.9-87.791,218.236-37.484,86.8-78.56,168.893-122.656,244.613-2.893,4.97-2.109,9.644-3.91,14.826-1.452,4.2-7.535,1.558-5.956,3.253" transform="translate(-416.74 1.916)" fill="none" stroke="#000" stroke-width="1"/>
        <path id="Path_5876" data-name="Path 5876" d="M2467.036,42.121C2435,37.479,2393.287,51.182,2356,74.337c-38.035,23.622-73.283,55.245-109.8,83.435-52.956,40.875-109.271,75.3-160.882,117.326-28.1,22.9-54.938,48.675-77.648,76.112-20.771,25.1-38.088,51.515-49.893,78.835-21.184,49.046-24.947,95.664-47.159,143.619-17.836,38.5-47.9,74.7-81.2,107.46a951.933,951.933,0,0,1-79.789,69.541c-130.668,103.019-290.978,178.167-391.835,329.076-45.676,68.344-76.938,148.589-108.329,228.23-29.037,73.854-57.365,147.646-87.791,217.8-37.579,86.635-78.8,168.481-123.08,243.861-2.9,4.949-2.2,9.6-4.038,14.762-1.473,4.154-7.482,1.611-5.967,3.307" transform="translate(-441.964 1.935)" fill="none" stroke="#000" stroke-width="1"/>
        <path id="Path_5877" data-name="Path 5877" d="M2476.194,42.23c-31.75-4.091-73.018,9.824-109.939,33.011-37.685,23.664-72.646,55.171-108.869,83.276-52.543,40.769-108.434,75.137-159.716,116.913-27.946,22.785-54.652,48.357-77.309,75.54-20.74,24.873-38.088,51.027-50.021,78.041-21.428,48.526-25.752,94.6-48.2,142.018-18.016,38.056-48.049,73.876-81.252,106.347a970.485,970.485,0,0,1-79.418,69c-129.821,102.3-288.667,177.732-388.581,328.091-45.422,68.344-76.472,148.525-107.767,228.028-28.963,73.77-57.312,147.4-87.79,217.357-37.675,86.466-79.037,168.067-123.515,243.109-2.925,4.928-2.3,9.57-4.154,14.7-1.483,4.122-7.429,1.653-5.977,3.359" transform="translate(-467.135 1.953)" fill="none" stroke="#000" stroke-width="1"/>
        <path id="Path_5878" data-name="Path 5878" d="M2485.406,42.35c-31.454-3.54-72.275,10.587-108.848,33.8-37.335,23.707-72.011,55.086-107.937,83.106-52.14,40.663-107.586,74.978-158.551,116.5-27.787,22.658-54.355,48.039-76.97,74.957-20.7,24.65-38.077,50.529-50.137,77.246-21.672,48-26.557,93.545-49.247,140.418-18.207,37.621-48.208,73.039-81.315,105.223-24.957,24.268-51.451,46.778-79.058,68.46C1644.36,843.623,1487,919.354,1388.005,1069.161c-45.157,68.333-76.006,148.462-107.205,227.827-28.889,73.674-57.259,147.158-87.8,216.922-37.77,86.286-79.281,167.654-123.939,242.367-2.936,4.917-2.4,9.527-4.281,14.646-1.5,4.08-7.376,1.706-5.988,3.423" transform="translate(-492.371 1.97)" fill="none" stroke="#000" stroke-width="1"/>
        <path id="Path_5879" data-name="Path 5879" d="M2494.594,42.462c-31.157-2.989-71.544,11.339-107.746,34.591s-71.375,55.012-107,82.947c-51.737,40.557-106.749,74.819-157.385,116.075-27.628,22.53-54.069,47.71-76.631,74.384-20.665,24.427-38.067,50.042-50.265,76.451-21.916,47.477-27.373,92.485-50.286,138.818-18.387,37.187-48.357,72.212-81.368,104.111a1008.275,1008.275,0,0,1-78.7,67.92c-128.135,100.847-284.036,176.863-382.1,326.119-44.892,68.333-75.54,148.388-106.644,227.626-28.815,73.59-57.206,146.9-87.8,216.488-37.865,86.116-79.524,167.23-124.362,241.614-2.946,4.9-2.491,9.485-4.409,14.582-1.515,4.048-7.323,1.749-6.009,3.476" transform="translate(-517.583 1.986)" fill="none" stroke="#000" stroke-width="1"/>
        <path id="Path_5880" data-name="Path 5880" d="M2503.8,42.575c-30.86-2.437-70.8,12.1-106.654,35.375s-70.739,54.938-106.071,82.788c-51.335,40.451-105.912,74.66-156.219,115.662-27.469,22.4-53.783,47.392-76.292,73.812-20.623,24.2-38.056,49.544-50.381,75.656-22.159,46.958-28.179,91.425-51.334,137.218-18.578,36.742-48.516,71.385-81.432,102.987a1031.46,1031.46,0,0,1-78.338,67.379c-127.3,100.115-281.726,176.429-378.853,325.134-44.626,68.323-75.073,148.324-106.082,227.414-28.751,73.494-57.153,146.66-87.8,216.053-37.961,85.946-79.768,166.817-124.8,240.862-2.967,4.875-2.585,9.453-4.525,14.519-1.536,4.006-7.27,1.791-6.019,3.529" transform="translate(-542.808 2)" fill="none" stroke="#000" stroke-width="1"/>
        <path id="Path_5881" data-name="Path 5881" d="M2513,42.7c-30.563-1.9-70.071,12.865-105.562,36.17-36.3,23.834-70.1,54.864-105.139,82.629-50.932,40.345-105.075,74.5-155.053,115.249-27.31,22.276-53.5,47.074-75.964,73.229-20.591,23.982-38.056,49.056-50.508,74.872-22.4,46.428-28.984,90.366-52.373,135.628-18.758,36.307-48.675,70.559-81.485,101.875-24.692,23.569-50.815,45.559-77.966,66.839-126.45,99.384-279.406,175.994-375.61,324.148-44.362,68.323-74.607,148.26-105.531,227.212-28.677,73.409-57.1,146.416-87.8,215.619-38.056,85.766-80.012,166.4-125.221,240.11-2.978,4.853-2.681,9.411-4.652,14.466-1.547,3.974-7.228,1.844-6.03,3.582" transform="translate(-568.036 2.014)" fill="none" stroke="#000" stroke-width="1"/>
        <path id="Path_5882" data-name="Path 5882" d="M2522.2,42.815c-30.277-1.346-69.33,13.629-104.471,36.954-35.947,23.876-69.467,54.79-104.206,82.46C2263,202.467,2209.289,236.57,2159.65,277.053c-27.151,22.16-53.21,46.746-75.625,72.657-20.559,23.76-38.045,48.569-50.635,74.077-22.647,45.909-29.8,89.306-53.422,134.028-18.949,35.862-48.823,69.732-81.538,100.762-24.608,23.336-50.6,45.146-77.606,66.3-125.613,98.664-277.095,175.56-372.367,323.163-44.1,68.323-74.141,148.2-104.969,227.011-28.6,73.314-57.047,146.172-87.812,215.184-38.151,85.6-80.255,165.99-125.656,239.357-2.988,4.833-2.776,9.368-4.779,14.4-1.568,3.932-7.175,1.886-6.041,3.635" transform="translate(-593.253 2.025)" fill="none" stroke="#000" stroke-width="1"/>
        <path id="Path_5883" data-name="Path 5883" d="M2531.4,42.942c-29.98-.795-68.587,14.381-103.369,37.749s-68.831,54.715-103.284,82.3c-50.116,40.133-103.39,74.183-152.711,114.412-26.992,22.032-52.924,46.428-75.285,72.085-20.517,23.537-38.035,48.071-50.752,73.282-22.891,45.389-30.606,88.246-54.461,132.427-19.129,35.428-48.982,68.895-81.6,99.638-24.512,23.1-50.392,44.732-77.246,65.758-124.776,97.932-274.774,175.136-369.124,322.177-43.832,68.312-73.675,148.133-104.408,226.809-28.528,73.229-56.994,145.918-87.812,214.739-38.247,85.427-80.5,165.566-126.08,238.6-3.01,4.811-2.872,9.336-4.906,14.339-1.579,3.9-7.122,1.939-6.051,3.688" transform="translate(-618.469 2.036)" fill="none" stroke="#000" stroke-width="1"/>
        <path id="Path_5884" data-name="Path 5884" d="M2540.59,43.06c-29.684-.244-67.856,15.144-102.277,38.543-35.258,23.961-68.2,54.641-102.352,82.142-49.713,40.038-102.553,74.035-151.545,114-26.833,21.905-52.627,46.11-74.946,71.5-20.485,23.315-38.035,47.583-50.879,72.487-23.135,44.86-31.411,87.186-55.51,130.827-19.309,34.983-49.13,68.068-81.655,98.526-24.427,22.87-50.179,44.33-76.885,65.207C1720.612,813.5,1572.087,891,1478.659,1037.485c-43.567,68.312-73.208,148.069-103.846,226.6-28.455,73.145-56.941,145.674-87.812,214.3-38.342,85.247-80.743,165.153-126.5,237.852-3.02,4.8-2.967,9.294-5.023,14.286-1.59,3.868-7.068,1.982-6.062,3.741" transform="translate(-643.686 2.045)" fill="none" stroke="#000" stroke-width="1"/>
        <path id="Path_5885" data-name="Path 5885" d="M2549.772,43.18c-29.387.307-67.115,15.907-101.186,39.328s-67.56,54.567-101.419,81.972c-49.311,39.932-101.715,73.876-150.379,113.574-26.685,21.778-52.342,45.782-74.607,70.93-20.443,23.092-38.024,47.085-51,71.693-23.378,44.34-32.227,86.127-56.549,129.227-19.5,34.548-49.29,67.242-81.718,97.4-24.343,22.636-49.968,43.916-76.514,64.667-123.091,96.48-270.132,174.277-362.628,320.206-43.3,68.312-72.742,148-103.284,226.4-28.391,73.049-56.888,145.431-87.812,213.87-38.438,85.078-80.987,164.74-126.938,237.11-3.031,4.78-3.062,9.252-5.15,14.222-1.611,3.826-7.016,2.035-6.072,3.794" transform="translate(-668.892 2.052)" fill="none" stroke="#000" stroke-width="1"/>
        <path id="Path_5886" data-name="Path 5886" d="M2558.977,43.31c-29.1.858-66.383,16.67-100.083,40.122s-66.924,54.482-100.487,81.813c-48.908,39.826-100.878,73.717-149.214,113.161-26.526,21.651-52.055,45.464-74.278,70.357-20.411,22.87-38.014,46.6-51.123,70.909-23.622,43.821-33.033,85.067-57.6,127.627-19.68,34.1-49.448,66.415-81.771,96.29-24.247,22.4-49.755,43.514-76.154,64.126-122.243,95.76-267.812,173.853-359.386,319.22-43.037,68.312-72.276,147.932-102.722,226.195-28.317,72.964-56.845,145.176-87.812,213.435-38.533,84.908-81.23,164.326-127.362,236.358-3.052,4.758-3.158,9.22-5.277,14.158-1.621,3.794-6.963,2.077-6.083,3.858" transform="translate(-694.12 2.06)" fill="none" stroke="#000" stroke-width="1"/>
        <path id="Path_5887" data-name="Path 5887" d="M2568.194,43.43c-28.8,1.409-65.641,17.433-98.992,40.907-34.209,24.088-66.288,54.408-99.554,81.654-48.505,39.72-100.031,73.558-148.048,112.748-26.367,21.534-51.769,45.135-73.939,69.775-20.379,22.647-38.013,46.11-51.25,70.114-23.866,43.291-33.838,84-58.647,126.037-19.87,33.669-49.6,65.588-81.824,95.166-24.163,22.181-49.544,43.1-75.794,63.586C1758.74,798.444,1614.666,876.845,1524,1021.651c-42.772,68.312-71.809,147.868-102.161,225.994-28.242,72.869-56.792,144.933-87.822,213-38.628,84.728-81.474,163.9-127.8,235.605-3.063,4.737-3.254,9.178-5.405,14.106-1.642,3.751-6.91,2.119-6.094,3.911" transform="translate(-719.35 2.067)" fill="none" stroke="#000" stroke-width="1"/>
        <path id="Path_5888" data-name="Path 5888" d="M2577.387,43.56c-28.508,1.961-64.9,18.2-97.9,41.7s-65.652,54.334-98.621,81.5c-48.092,39.614-99.193,73.4-146.882,112.324-26.208,21.407-51.483,44.817-73.6,69.2-20.336,22.424-38,45.612-51.367,69.319-24.109,42.772-34.654,82.937-59.685,124.437-20.051,33.234-49.756,64.762-81.888,94.054-24.078,21.948-49.332,42.7-75.433,63.045-120.558,94.308-263.16,173.005-352.9,317.249-42.5,68.312-71.343,147.8-101.6,225.782-28.168,72.784-56.74,144.678-87.823,212.566-38.723,84.558-81.718,163.489-128.22,234.853-3.073,4.716-3.349,9.146-5.521,14.042-1.653,3.72-6.856,2.172-6.115,3.963" transform="translate(-744.567 2.075)" fill="none" stroke="#000" stroke-width="1"/>
        <path id="Path_5889" data-name="Path 5889" d="M2586.573,43.68c-28.211,2.512-64.168,18.948-96.8,42.486-33.51,24.173-65.016,54.26-97.689,81.326C2344.4,207,2293.729,240.732,2246.369,279.4a700.027,700.027,0,0,0-73.261,68.63c-20.3,22.2-37.992,45.125-51.494,68.524-24.364,42.253-35.459,81.877-60.735,122.837-20.231,32.789-49.9,63.924-81.94,92.93-23.983,21.714-49.12,42.284-75.063,62.5-119.721,93.577-260.828,172.582-349.657,316.264-42.231,68.312-70.876,147.741-101.038,225.58-28.094,72.689-56.687,144.435-87.822,212.121-38.819,84.389-81.962,163.076-128.644,234.1-3.083,4.705-3.444,9.1-5.648,13.978-1.664,3.677-6.8,2.215-6.125,4.017" transform="translate(-769.776 2.082)" fill="none" stroke="#000" stroke-width="1"/>
        <path id="Path_5890" data-name="Path 5890" d="M2595.791,43.8c-27.914,3.063-63.427,19.712-95.707,43.281s-64.38,54.185-96.756,81.167c-47.286,39.4-97.519,73.081-144.551,111.5a715.8,715.8,0,0,0-72.922,68.047c-20.263,21.979-37.992,44.626-51.61,67.74-24.607,41.723-36.265,80.817-61.773,121.236-20.421,32.354-50.063,63.1-82,91.818-23.9,21.481-48.908,41.871-74.7,61.964-118.884,92.856-258.5,172.158-346.414,315.278-41.956,68.312-70.411,147.667-100.487,225.379-28.031,72.6-56.633,144.191-87.822,211.687-38.915,84.208-82.216,162.652-129.079,233.348-3.1,4.684-3.529,9.061-5.776,13.925-1.685,3.645-6.751,2.268-6.136,4.069" transform="translate(-795.017 2.089)" fill="none" stroke="#000" stroke-width="1"/>
        <path id="Path_5891" data-name="Path 5891" d="M2605,43.93c-27.628,3.614-62.7,20.475-94.615,44.075-32.821,24.258-63.745,54.111-95.824,81.008-46.883,39.306-96.671,72.922-143.385,111.073a736.874,736.874,0,0,0-72.594,67.475c-20.231,21.757-37.982,44.139-51.738,66.945-24.851,41.2-37.07,79.757-62.822,119.636-20.6,31.909-50.211,62.271-82.057,90.694-23.8,21.248-48.7,41.468-74.342,61.424-118.036,92.125-256.165,171.734-343.171,314.293-41.691,68.312-69.944,147.6-99.925,225.178-27.957,72.519-56.581,143.936-87.823,211.252-39.009,84.039-82.46,162.238-129.5,232.607-3.116,4.663-3.624,9.029-5.892,13.861-1.7,3.614-6.7,2.31-6.147,4.123" transform="translate(-820.248 2.097)" fill="none" stroke="#000" stroke-width="1"/>
        <path id="Path_5892" data-name="Path 5892" d="M2614.2,44.05c-27.331,4.165-61.953,21.238-93.513,44.86s-63.109,54.037-94.891,80.849c-46.481,39.2-95.834,72.763-142.219,110.66a754.433,754.433,0,0,0-72.254,66.9c-20.2,21.534-37.982,43.651-51.865,66.15-25.095,40.673-37.886,78.7-63.861,118.036-20.782,31.475-50.371,61.445-82.11,89.581C1989.765,642.1,1965,662.144,1939.5,681.972c-117.2,91.4-253.833,171.31-339.928,313.318-41.415,68.312-69.478,147.539-99.363,224.966-27.882,72.424-56.528,143.693-87.833,210.818-39.1,83.869-82.7,161.825-129.927,231.854-3.126,4.641-3.72,8.987-6.019,13.809-1.707,3.571-6.645,2.363-6.157,4.175" transform="translate(-845.469 2.104)" fill="none" stroke="#000" stroke-width="1"/>
        <path id="Path_5893" data-name="Path 5893" d="M2623.374,44.17c-27.034,4.705-61.212,22-92.421,45.654s-62.473,53.963-93.958,80.679c-46.068,39.094-95,72.6-141.043,110.247a776.2,776.2,0,0,0-71.915,66.32c-20.157,21.3-37.971,43.153-51.981,65.355-25.339,40.154-38.692,77.638-64.91,116.446-20.972,31.04-50.519,60.618-82.174,88.458-23.633,20.782-48.261,40.652-73.611,60.343-116.351,90.673-251.5,170.9-336.675,312.332-41.14,68.312-69.012,147.476-98.8,224.764-27.808,72.339-56.474,143.449-87.833,210.383-39.2,83.689-82.948,161.4-130.361,231.1-3.148,4.62-3.815,8.955-6.147,13.745-1.727,3.54-6.592,2.406-6.167,4.239" transform="translate(-870.661 2.111)" fill="none" stroke="#000" stroke-width="1"/>
        <path id="Path_5894" data-name="Path 5894" d="M2632.584,44.3c-26.738,5.256-60.48,22.764-91.33,46.439-31.771,24.385-61.837,53.889-93.036,80.52-45.665,38.989-94.16,72.445-139.878,109.823a798.619,798.619,0,0,0-71.576,65.747c-20.125,21.079-37.96,42.666-52.108,64.56-25.593,39.624-39.5,76.578-65.949,114.846-21.153,30.6-50.677,59.792-82.227,87.345-23.537,20.559-48.049,40.239-73.25,59.8C1847.716,763.336,1714.07,843.856,1629.8,984.73c-40.875,68.323-68.545,147.412-98.24,224.563-27.744,72.244-56.421,143.195-87.833,209.949-39.307,83.52-83.191,160.988-130.785,230.349-3.158,4.6-3.91,8.913-6.273,13.681-1.739,3.508-6.539,2.448-6.178,4.292" transform="translate(-895.894 2.119)" fill="none" stroke="#000" stroke-width="1"/>
        <path id="Path_5895" data-name="Path 5895" d="M2641.8,44.42c-26.441,5.807-59.739,23.527-90.228,47.233-31.421,24.427-61.2,53.815-92.1,80.362C2414.2,210.9,2366.153,244.3,2320.753,281.424a821.322,821.322,0,0,0-71.237,65.175c-20.082,20.856-37.961,42.168-52.235,63.776-25.837,39.105-40.3,75.518-67,113.246-21.333,30.161-50.826,58.965-82.29,86.222-23.453,20.326-47.838,39.826-72.891,59.262-114.666,89.221-246.828,170.059-330.189,310.361-40.6,68.323-68.079,147.338-97.678,224.361-27.671,72.159-56.368,142.951-87.833,209.5-39.4,83.35-83.435,160.574-131.219,229.6-3.168,4.589-4,8.881-6.39,13.629-1.749,3.465-6.486,2.5-6.189,4.345" transform="translate(-921.13 2.126)" fill="none" stroke="#000" stroke-width="1"/>
        <path id="Path_5896" data-name="Path 5896" d="M2651.008,44.55c-26.155,6.359-59,24.29-89.136,48.018-31.072,24.47-60.565,53.74-91.171,80.192-44.86,38.777-92.475,72.127-137.546,109a853.4,853.4,0,0,0-70.909,64.592c-20.051,20.633-37.95,41.68-52.352,62.982-26.081,38.586-41.108,74.459-68.037,111.646-21.524,29.716-50.985,58.138-82.343,85.109-23.357,20.093-47.625,39.423-72.53,58.721-113.829,88.5-244.487,169.635-326.946,309.375-40.324,68.323-67.613,147.275-97.116,224.15-27.6,72.063-56.326,142.707-87.844,209.069-39.5,83.17-83.678,160.151-131.643,228.844-3.189,4.568-4.091,8.838-6.517,13.565-1.759,3.434-6.432,2.543-6.2,4.4" transform="translate(-946.365 2.134)" fill="none" stroke="#000" stroke-width="1"/>
        <path id="Path_5897" data-name="Path 5897" d="M2660.211,44.67c-25.858,6.91-58.266,25.053-88.045,48.812s-59.929,53.666-90.238,80.033c-44.446,38.681-91.637,71.968-136.38,108.572a881.155,881.155,0,0,0-70.569,64.02c-20.019,20.411-37.95,41.182-52.479,62.187-26.325,38.056-41.924,73.4-69.086,110.045-21.7,29.281-51.133,57.3-82.4,83.986-23.272,19.86-47.414,39.01-72.159,58.181-112.991,87.769-242.144,169.222-323.7,308.39-40.048,68.323-67.147,147.211-96.555,223.948-27.522,71.979-56.273,142.453-87.843,208.635-39.593,83-83.933,159.737-132.067,228.092-3.2,4.547-4.186,8.807-6.645,13.5-1.781,3.391-6.38,2.6-6.21,4.451" transform="translate(-971.592 2.141)" fill="none" stroke="#000" stroke-width="1"/>
        <path id="Path_5898" data-name="Path 5898" d="M2669.415,44.79c-25.562,7.461-57.524,25.816-86.943,49.607-30.373,24.565-59.293,53.592-89.306,79.874-44.044,38.575-90.8,71.809-135.215,108.159a914.1,914.1,0,0,0-70.23,63.448c-19.977,20.188-37.939,40.695-52.6,61.392-26.579,37.537-42.729,72.339-70.125,108.445-21.884,28.847-51.292,56.474-82.459,82.873-23.177,19.627-47.2,38.607-71.8,57.64-112.144,87.049-239.8,168.809-320.46,307.4-39.762,68.333-66.68,147.148-95.993,223.747-27.448,71.894-56.347,142.145-87.843,208.2-39.858,82.746-84.177,159.313-132.5,227.35-3.211,4.525-4.271,8.764-6.772,13.448-1.791,3.359-6.327,2.639-6.231,4.5" transform="translate(-996.809 2.148)" fill="none" stroke="#000" stroke-width="1"/>
        <path id="Path_5899" data-name="Path 5899" d="M2678.62,44.92c-25.265,8.012-56.782,26.579-85.851,50.392-30.023,24.608-58.658,53.518-88.374,79.715-43.641,38.469-89.963,71.65-134.049,107.746-24.459,20.029-48.325,41.267-69.891,62.865-19.944,19.966-37.939,40.2-52.723,60.6-26.823,37.007-43.534,71.279-71.174,106.855-22.074,28.4-51.44,55.648-82.513,81.75-23.092,19.394-46.99,38.194-71.438,57.1-111.307,86.317-237.46,168.4-317.217,306.419-39.486,68.333-66.213,147.084-95.431,223.545-27.385,71.8-56.295,141.9-87.844,207.766-39.953,82.576-84.42,158.9-132.925,226.6-3.232,4.5-4.366,8.733-6.888,13.385-1.8,3.328-6.274,2.692-6.242,4.557" transform="translate(-1022.038 2.156)" fill="none" stroke="#000" stroke-width="1"/>
        <path id="Path_5900" data-name="Path 5900" d="M2687.869,45.04c-24.968,8.563-56.051,27.342-84.759,51.186-29.673,24.65-58.022,53.433-87.441,79.545-43.228,38.363-89.115,71.491-132.883,107.322-24.3,19.913-48.028,40.949-69.552,62.293-19.913,19.743-37.929,39.709-52.85,59.813-27.066,36.487-44.34,70.22-72.222,105.255-22.255,27.967-51.6,54.821-82.577,80.637-23,19.171-46.778,37.791-71.078,56.559-110.459,85.6-235.108,167.982-313.975,305.433-39.211,68.344-65.747,147.02-94.88,223.333-27.31,71.714-56.242,141.647-87.843,207.331-40.049,82.4-84.664,158.476-133.36,225.845-3.243,4.483-4.461,8.69-7.016,13.321-1.812,3.285-6.221,2.734-6.252,4.61" transform="translate(-1047.31 2.163)" fill="none" stroke="#000" stroke-width="1"/>
        <path id="Path_5901" data-name="Path 5901" d="M2697.065,45.17c-24.682,9.114-55.309,28.094-83.657,51.971-29.334,24.692-57.386,53.359-86.508,79.386-42.825,38.268-88.278,71.332-131.718,106.908-24.141,19.786-47.742,40.631-69.223,61.72-19.871,19.521-37.929,39.222-52.967,59.018-27.32,35.958-45.146,69.16-73.261,103.655-22.435,27.533-51.748,53.995-82.629,79.514-22.912,18.938-46.566,37.378-70.718,56.019-109.622,84.865-232.766,167.569-310.722,304.448-38.925,68.344-65.281,146.946-94.318,223.132-27.236,71.618-56.189,141.4-87.854,206.9-40.144,82.227-84.908,158.063-133.784,225.093-3.254,4.461-4.546,8.658-7.143,13.268-1.833,3.253-6.168,2.776-6.263,4.674" transform="translate(-1072.529 2.171)" fill="none" stroke="#000" stroke-width="1"/>
        <path id="Path_5902" data-name="Path 5902" d="M2706.261,45.29c-24.385,9.665-54.567,28.857-82.566,52.765-28.984,24.745-56.75,53.285-85.575,79.228-42.422,38.162-87.44,71.173-130.552,106.5-23.982,19.659-47.456,40.3-68.884,61.138-19.838,19.3-37.918,38.724-53.094,58.223-27.564,35.438-45.951,68.1-74.31,102.055-22.615,27.087-51.907,53.168-82.683,78.4-22.827,18.7-46.354,36.964-70.346,55.468-108.773,84.134-230.413,167.156-307.478,303.462-38.65,68.354-64.815,146.883-93.757,222.931-27.161,71.534-56.135,141.16-87.854,206.452-40.239,82.057-85.162,157.65-134.208,224.34-3.275,4.451-4.642,8.616-7.26,13.2-1.844,3.222-6.115,2.83-6.274,4.727" transform="translate(-1097.749 2.178)" fill="none" stroke="#000" stroke-width="1"/>
        <path id="Path_5903" data-name="Path 5903" d="M2715.468,45.41c-24.088,10.216-53.825,29.62-81.474,53.56s-56.1,53.21-84.643,79.069c-42.019,38.056-86.6,71.014-129.386,106.071-23.823,19.531-47.17,39.985-68.545,60.565-19.807,19.076-37.918,38.225-53.211,57.428-27.808,34.908-46.757,67.04-75.349,100.455-22.806,26.653-52.055,52.341-82.746,77.278-22.732,18.472-46.142,36.562-69.987,54.927-107.937,83.414-228.06,166.742-304.236,302.476-38.363,68.365-64.348,146.819-93.2,222.719-27.087,71.438-56.082,140.906-87.854,206.017-40.334,81.877-85.406,157.226-134.643,223.588-3.285,4.43-4.737,8.584-7.386,13.141-1.854,3.19-6.061,2.872-6.284,4.78" transform="translate(-1122.969 2.185)" fill="none" stroke="#000" stroke-width="1"/>
        <path id="Path_5904" data-name="Path 5904" d="M2724.664,45.54c-23.791,10.767-53.094,30.394-80.372,54.344s-55.468,53.136-83.71,78.9c-41.606,37.95-85.756,70.866-128.209,105.658-23.665,19.4-46.884,39.656-68.206,59.993-19.765,18.842-37.908,37.738-53.338,56.644-28.062,34.379-47.572,65.981-76.4,98.854-22.986,26.218-52.214,51.515-82.8,76.165-22.647,18.249-45.93,36.148-69.626,54.387-107.1,82.682-225.708,166.329-300.993,301.491-38.088,68.365-63.882,146.755-92.633,222.518-27.024,71.353-56.03,140.661-87.854,205.582-40.419,81.707-85.65,156.813-135.066,222.836-3.3,4.409-4.822,8.542-7.514,13.088-1.865,3.147-6.009,2.925-6.295,4.833" transform="translate(-1148.188 2.193)" fill="none" stroke="#000" stroke-width="1"/>
        <path id="Path_5905" data-name="Path 5905" d="M2733.881,45.66c-23.495,11.318-52.352,31.157-79.281,55.139-27.935,24.873-54.832,53.062-82.777,78.74-41.2,37.855-84.918,70.707-127.044,105.245-23.506,19.288-46.6,39.338-67.867,59.41-19.732,18.62-37.908,37.24-53.465,55.849-28.306,33.859-48.378,64.921-77.437,97.265-23.166,25.773-52.363,50.688-82.863,75.042-22.552,18.016-45.718,35.746-69.266,53.846-106.251,81.962-223.344,165.926-297.75,300.505-37.8,68.376-63.416,146.692-92.071,222.316-26.95,71.269-55.977,140.418-87.854,205.148-40.515,81.538-85.9,156.388-135.49,222.094-3.317,4.387-4.917,8.51-7.641,13.024-1.876,3.116-5.956,2.967-6.305,4.885" transform="translate(-1173.429 2.2)" fill="none" stroke="#000" stroke-width="1"/>
        <path id="Path_5906" data-name="Path 5906" d="M2743.109,45.79c-23.209,11.859-51.61,31.92-78.189,55.923-27.585,24.915-54.2,52.988-81.856,78.581-40.8,37.749-84.081,70.548-125.878,104.821-23.347,19.16-46.312,39.01-67.539,58.838-19.7,18.4-37.9,36.752-53.581,55.055-28.561,33.329-49.183,63.861-78.486,95.664-23.346,25.339-52.521,49.862-82.915,73.929-22.467,17.783-45.506,35.332-68.895,53.306-105.414,81.231-220.991,165.513-294.507,299.52-37.515,68.386-62.949,146.618-91.51,222.115-26.876,71.173-55.923,140.164-87.865,204.714-40.61,81.358-86.148,155.975-135.925,221.341-3.327,4.366-5,8.478-7.757,12.961-1.886,3.084-5.9,3.02-6.316,4.938" transform="translate(-1198.681 2.208)" fill="none" stroke="#000" stroke-width="1"/>
        <path id="Path_5907" data-name="Path 5907" d="M2752.315,45.91c-22.912,12.41-50.868,32.683-77.087,56.718-27.236,24.968-53.56,52.914-80.923,78.412-40.387,37.643-83.244,70.389-124.712,104.407-23.187,19.033-46.025,38.692-67.2,58.266-19.659,18.175-37.9,36.254-53.708,54.26-28.8,32.8-49.989,62.8-79.525,94.064-23.537,24.9-52.67,49.035-82.969,72.805-22.372,17.55-45.294,34.919-68.534,52.765-104.566,80.51-218.628,165.1-291.264,298.534-37.229,68.4-62.484,146.554-90.949,221.9-26.8,71.089-55.87,139.92-87.865,204.279-40.7,81.188-86.391,155.551-136.348,220.589-3.338,4.345-5.1,8.436-7.885,12.908-1.908,3.041-5.85,3.063-6.338,4.991" transform="translate(-1223.91 2.215)" fill="none" stroke="#000" stroke-width="1"/>
        <path id="Path_5908" data-name="Path 5908" d="M2761.543,46.03c-22.615,12.961-50.126,33.446-76,57.5-26.886,25.01-52.924,52.84-79.99,78.253-39.985,37.547-82.4,70.23-123.547,103.994-23.029,18.906-45.739,38.363-66.86,57.683-19.627,17.952-37.9,35.767-53.825,53.465-29.059,32.28-50.794,61.742-80.573,92.464-23.718,24.459-52.819,48.208-83.032,71.693-22.287,17.327-45.082,34.516-68.174,52.225-103.73,79.779-216.266,164.7-288.021,297.548-36.944,68.4-62.018,146.49-90.387,221.7-26.738,70.993-55.818,139.676-87.865,203.834-40.8,81.018-86.646,155.127-136.783,219.836-3.359,4.335-5.182,8.4-8.012,12.844-1.918,3.01-5.8,3.105-6.348,5.055" transform="translate(-1249.162 2.222)" fill="none" stroke="#000" stroke-width="1"/>
        <path id="Path_5909" data-name="Path 5909" d="M2770.74,46.16c-22.318,13.512-49.4,34.209-74.9,58.3-26.526,25.053-52.289,52.765-79.058,78.094-39.582,37.441-81.559,70.071-122.381,103.57-22.869,18.79-45.453,38.045-66.521,57.11-19.6,17.73-37.886,35.269-53.952,52.681-29.3,31.75-51.6,60.692-81.612,90.864-23.9,24.025-52.977,47.382-83.085,70.569-22.191,17.094-44.87,34.1-67.813,51.684-102.882,79.058-213.9,164.284-284.768,296.573-36.647,68.407-61.551,146.427-89.835,221.5-26.664,70.909-55.765,139.422-87.865,203.4-40.9,80.839-86.89,154.714-137.207,219.084-3.37,4.313-5.278,8.372-8.139,12.781-1.929,2.978-5.744,3.158-6.359,5.108" transform="translate(-1274.372 2.23)" fill="none" stroke="#000" stroke-width="1"/>
        <path id="Path_5910" data-name="Path 5910" d="M2779.956,46.28c-22.022,14.063-48.654,34.972-73.812,59.092s-51.653,52.691-78.125,77.935c-39.169,37.335-80.722,69.912-121.215,103.157-22.711,18.662-45.167,37.717-66.182,56.538-19.552,17.507-37.886,34.781-54.08,51.886-29.557,31.22-52.4,59.633-82.661,89.263-24.078,23.59-53.126,46.555-83.149,69.457-22.106,16.861-44.658,33.7-67.443,51.144-102.044,78.327-211.538,163.881-281.524,295.588-36.36,68.418-61.084,146.363-89.274,221.3-26.589,70.813-55.712,139.178-87.875,202.965-40.991,80.669-87.133,154.29-137.63,218.332-3.381,4.292-5.363,8.33-8.256,12.728-1.939,2.946-5.691,3.2-6.369,5.161" transform="translate(-1299.611 2.237)" fill="none" stroke="#000" stroke-width="1"/>
        <path id="Path_5911" data-name="Path 5911" d="M2789.164,46.41c-21.736,14.614-47.912,35.735-72.71,59.876-25.826,25.148-51.017,52.628-77.193,77.765-38.766,37.229-79.885,69.753-120.05,102.743-22.552,18.535-44.881,37.4-65.854,55.955-19.521,17.274-37.876,34.283-54.2,51.091-29.8,30.7-53.211,58.573-83.7,87.674-24.258,23.156-53.284,45.729-83.2,68.333-22.011,16.628-44.446,33.287-67.083,50.6C2063.981,678.058,1956,763.93,1886.9,895.054c-36.064,68.429-60.618,146.289-88.712,221.087-26.515,70.729-55.659,138.934-87.875,202.531-41.087,80.5-87.388,153.877-138.065,217.589-3.4,4.271-5.458,8.3-8.383,12.664-1.95,2.914-5.638,3.253-6.38,5.214" transform="translate(-1324.842 2.245)" fill="none" stroke="#000" stroke-width="1"/>
        <path id="Path_5912" data-name="Path 5912" d="M2798.38,46.53c-21.439,15.165-47.17,36.5-71.618,60.671-25.477,25.19-50.37,52.553-76.26,77.606-38.353,37.134-79.037,69.594-118.884,102.32-22.393,18.408-44.594,37.07-65.514,55.383-19.489,17.052-37.876,33.785-54.324,50.3-30.055,30.171-54.016,57.513-84.749,86.074-24.449,22.711-53.433,44.9-83.255,67.221-21.926,16.4-44.234,32.884-66.722,50.063-100.359,76.875-206.8,163.076-275.039,293.617-35.778,68.439-60.152,146.225-88.151,220.885-26.441,70.643-55.605,138.68-87.875,202.1-41.182,80.33-87.632,153.453-138.489,216.838-3.412,4.25-5.542,8.266-8.51,12.611-1.96,2.872-5.585,3.3-6.39,5.267" transform="translate(-1350.083 2.252)" fill="none" stroke="#000" stroke-width="1"/>
        <path id="Path_5913" data-name="Path 5913" d="M2807.609,46.65a653.884,653.884,0,0,0-70.527,61.455c-24.1,24.194-49.734,52.479-75.328,77.447-37.95,37.028-78.2,69.435-117.718,101.906-22.244,18.281-44.309,36.752-65.175,54.811-19.446,16.829-37.865,33.3-54.45,49.5-30.3,29.642-54.821,56.453-85.8,84.473-24.629,22.276-53.581,44.075-83.318,66.1-21.831,16.172-44.023,32.471-66.362,49.522-99.522,76.154-204.427,162.662-271.8,292.631-35.48,68.45-59.686,146.162-87.588,220.684-26.378,70.548-55.542,138.436-87.875,201.661-41.278,80.15-87.875,153.029-138.924,216.085-3.423,4.228-5.638,8.234-8.626,12.548-1.972,2.84-5.532,3.338-6.4,5.32" transform="translate(-1375.334 2.259)" fill="none" stroke="#000" stroke-width="1"/>
        <path id="Path_5914" data-name="Path 5914" d="M2816.773,46.78a723.794,723.794,0,0,0-69.425,62.25c-24.777,25.286-49.1,52.405-74.4,77.288-37.547,36.933-77.362,69.276-116.552,101.493-22.085,18.164-44.022,36.424-64.836,54.228-19.415,16.606-37.865,32.8-54.567,48.717-30.553,29.112-55.627,55.394-86.837,82.873-24.809,21.842-53.74,43.259-83.372,64.984-21.746,15.939-43.81,32.058-65.991,48.982-98.675,75.423-202.064,162.26-268.553,291.646-35.185,68.46-59.219,146.1-87.027,220.483-26.3,70.463-55.489,138.193-87.875,201.216-41.373,79.98-88.129,152.616-139.348,215.333-3.445,4.207-5.723,8.192-8.754,12.484-1.982,2.808-5.479,3.391-6.412,5.373" transform="translate(-1400.512 2.267)" fill="none" stroke="#000" stroke-width="1"/>
        <path id="Path_5915" data-name="Path 5915" d="M2826.01,46.9a813.029,813.029,0,0,0-68.333,63.034c-24.427,25.328-48.463,52.331-73.463,77.119-37.134,36.827-76.525,69.117-115.386,101.069-21.926,18.037-43.736,36.106-64.5,53.656-19.383,16.384-37.865,32.3-54.694,47.922-30.807,28.582-56.432,54.344-87.886,81.273-24.989,21.407-53.889,42.433-83.435,63.872-21.651,15.716-43.588,31.655-65.631,48.442-97.837,74.7-199.68,161.857-265.311,290.66-34.887,68.471-58.753,146.035-86.466,220.271-26.229,70.368-55.436,137.938-87.886,200.782-41.468,79.811-88.373,152.192-139.771,214.58-3.455,4.2-5.807,8.16-8.881,12.431-1.992,2.777-5.426,3.434-6.422,5.426" transform="translate(-1425.773 2.274)" fill="none" stroke="#000" stroke-width="1"/>
        <path id="Path_5916" data-name="Path 5916" d="M2835.229,47.03a920.059,920.059,0,0,0-67.241,63.829c-23.029,24.279-47.827,52.257-72.53,76.96-36.731,36.721-75.687,68.959-114.21,100.656-21.767,17.91-43.45,35.777-64.168,53.083-19.351,16.161-37.854,31.814-54.811,47.127-31.051,28.052-57.238,53.285-88.924,79.673-25.169,20.973-54.037,41.606-83.488,62.748-21.566,15.483-43.375,31.242-65.271,47.9-96.989,73.971-197.306,161.454-262.067,289.674-34.591,68.492-58.287,145.971-85.9,220.07-26.155,70.283-55.383,137.694-87.885,200.347-41.564,79.63-88.628,151.768-140.207,213.828-3.465,4.175-5.9,8.129-9.008,12.368-2.013,2.745-5.373,3.487-6.443,5.49" transform="translate(-1451.015 2.282)" fill="none" stroke="#000" stroke-width="1"/>
        <path id="Path_5917" data-name="Path 5917" d="M2844.414,47.15c-19.966,17.921-43.471,40.324-66.14,64.624-23.717,25.424-47.138,52.225-71.6,76.8-36.244,36.689-74.84,68.8-113.045,100.243-21.608,17.783-43.164,35.46-63.829,52.5-19.309,15.928-37.855,31.316-54.938,46.333-31.305,27.522-58.043,52.225-89.973,78.083-25.36,20.538-54.2,40.78-83.541,61.636-21.471,15.25-43.164,30.839-64.91,47.361-96.152,73.251-194.921,161.051-258.814,288.689-34.294,68.5-57.821,145.9-85.343,219.868-26.091,70.188-55.33,137.451-87.885,199.913-41.659,79.461-88.871,151.355-140.63,213.075-3.487,4.154-5.987,8.1-9.125,12.3-2.024,2.713-5.32,3.529-6.454,5.543" transform="translate(-1476.223 2.289)" fill="none" stroke="#000" stroke-width="1"/>
        <path id="Path_5918" data-name="Path 5918" d="M2853.631,47.27c-19.669,18.472-42.729,41.087-65.048,65.408s-46.5,52.151-70.675,76.631c-35.841,36.583-74,68.641-111.879,99.819-21.449,17.666-42.878,35.131-63.49,51.928-19.277,15.706-37.854,30.818-55.065,45.549-31.549,26.992-58.848,51.165-91.012,76.483-25.54,20.093-54.344,39.953-83.6,60.512-21.375,15.027-42.952,30.426-64.539,46.82-95.3,72.519-192.548,160.649-255.571,287.7-33.987,68.513-57.354,145.833-84.781,219.667-26.017,70.1-55.277,137.2-87.886,199.478-41.754,79.291-89.242,150.825-141.054,212.333-3.508,4.122-6.072,8.065-9.251,12.251-2.034,2.681-5.267,3.582-6.464,5.6" transform="translate(-1501.463 2.296)" fill="none" stroke="#000" stroke-width="1"/>
        <path id="Path_5919" data-name="Path 5919" d="M2862.86,47.4c-19.373,19.012-41.988,41.85-63.957,66.2s-45.866,52.077-69.742,76.472c-35.438,36.487-73.166,68.482-110.713,99.405-21.29,17.539-42.592,34.8-63.151,51.356-19.245,15.483-37.844,30.32-55.182,44.754-31.8,26.462-59.654,50.116-92.062,74.883-25.72,19.659-54.5,39.126-83.657,59.4-21.291,14.794-42.74,30.012-64.179,46.269-94.467,71.8-190.163,160.246-252.328,286.718-33.69,68.524-56.888,145.77-84.229,219.455-25.943,70.018-55.225,136.953-87.9,199.044-41.85,79.111-89.486,150.411-141.488,211.581-3.519,4.112-6.168,8.033-9.379,12.187-2.045,2.639-5.214,3.624-6.475,5.648" transform="translate(-1526.706 2.304)" fill="none" stroke="#000" stroke-width="1"/>
        <path id="Path_5920" data-name="Path 5920" d="M2872.066,47.52c-19.076,19.563-41.246,42.613-62.854,66.987s-45.23,52-68.81,76.313c-35.036,36.381-72.329,68.323-109.547,98.992-21.132,17.412-42.306,34.485-62.812,50.773-19.214,15.261-37.844,29.832-55.309,43.959-32.047,25.932-60.417,49.12-93.1,73.282-25.869,19.277-54.652,38.3-83.721,58.276-21.2,14.561-42.528,29.61-63.819,45.729-93.629,71.067-187.778,159.843-249.086,285.732-33.382,68.545-56.421,145.706-83.667,219.253-25.869,69.923-55.171,136.709-87.9,198.6-41.946,78.941-89.73,150-141.912,210.828-3.529,4.091-6.252,8-9.506,12.124-2.056,2.607-5.161,3.667-6.486,5.7" transform="translate(-1551.936 2.312)" fill="none" stroke="#000" stroke-width="1"/>
        <path id="Path_5921" data-name="Path 5921" d="M2881.283,47.64c-18.79,20.114-40.5,43.376-61.763,67.782-22.308,25.6-44.595,51.928-67.878,76.154-34.622,36.276-71.481,68.164-108.382,98.568-20.973,17.285-42.051,34.124-62.483,50.2-19.2,15-37.833,29.334-55.426,43.164-32.3,25.4-61.222,48.06-94.149,71.682-26.049,18.842-54.8,37.484-83.774,57.163-21.111,14.339-42.316,29.2-63.458,45.188-92.782,70.347-185.384,159.451-245.843,284.747-33.075,68.556-55.955,145.643-83.106,219.052-25.794,69.838-55.118,136.454-87.9,198.164-42.03,78.772-89.963,149.574-142.347,210.076-3.55,4.069-6.337,7.969-9.623,12.071-2.066,2.575-5.108,3.72-6.5,5.755" transform="translate(-1577.176 2.318)" fill="none" stroke="#000" stroke-width="1"/>
        <path id="Path_5922" data-name="Path 5922" d="M2890.489,47.77c-18.493,20.665-39.762,44.139-60.671,68.577-21.958,25.657-43.959,51.854-66.945,75.985-34.22,36.17-70.644,68-107.216,98.155-20.813,17.158-41.754,33.8-62.144,49.629-19.171,14.773-37.833,28.836-55.553,42.369-32.556,24.873-62.039,47-95.187,70.082-26.229,18.4-54.949,36.657-83.828,56.04-21.015,14.105-42.1,28.794-63.1,44.648-91.945,69.615-183,159.049-242.6,283.761-32.768,68.577-55.489,145.568-82.544,218.851-25.73,69.743-55.064,136.211-87.9,197.73-42.125,78.592-90.207,149.161-142.771,209.323-3.561,4.048-6.433,7.938-9.75,12.007-2.077,2.544-5.055,3.762-6.506,5.807" transform="translate(-1602.406 2.326)" fill="none" stroke="#000" stroke-width="1"/>
        <path id="Path_5923" data-name="Path 5923" d="M2899.7,47.89c-18.2,21.216-39.01,44.913-59.569,69.361-21.608,25.7-43.323,51.78-66.012,75.826-33.817,36.064-69.806,67.856-106.05,97.742-20.655,17.041-41.469,33.478-61.805,49.046-19.129,14.55-37.834,28.338-55.68,41.585-32.8,24.343-62.843,45.941-96.237,68.492-26.42,17.963-55.107,35.83-83.89,54.927-20.93,13.883-41.893,28.38-62.727,44.107-91.1,68.884-180.6,158.646-239.358,282.775-32.46,68.588-55.022,145.5-81.982,218.639-25.657,69.658-55.013,135.967-87.9,197.3-42.221,78.422-90.451,148.748-143.194,208.571-3.572,4.027-6.517,7.906-9.877,11.943-2.088,2.511-5,3.815-6.517,5.871" transform="translate(-1627.636 2.333)" fill="none" stroke="#000" stroke-width="1"/>
        <path id="Path_5924" data-name="Path 5924" d="M2908.893,48.02c-17.9,21.767-38.268,45.676-58.478,70.156-21.248,25.742-42.687,51.7-65.08,75.667-33.414,35.958-68.969,67.7-104.884,97.318-20.5,16.914-41.182,33.149-61.466,48.473-19.1,14.328-37.823,27.84-55.8,40.79-33.054,23.813-63.649,44.881-97.275,66.892-26.6,17.528-55.256,35-83.944,53.8-20.835,13.65-41.68,27.978-62.367,43.567-90.26,68.164-178.208,158.243-236.114,281.79-32.153,68.609-54.557,145.441-81.421,218.437-25.583,69.563-54.959,135.713-87.907,196.861-42.316,78.253-90.694,148.335-143.629,207.819-3.582,4.006-6.6,7.874-9.994,11.891-2.1,2.48-4.949,3.858-6.528,5.924" transform="translate(-1652.846 2.341)" fill="none" stroke="#000" stroke-width="1"/>
        <path id="Path_5925" data-name="Path 5925" d="M2918.121,48.14c-17.6,22.319-37.526,46.439-57.386,70.94-20.9,25.795-42.052,51.621-64.147,75.508-33.011,35.852-68.121,67.538-103.718,96.9-20.337,16.787-40.9,32.831-61.127,47.9-19.055,14.105-37.823,27.342-55.924,40-33.308,23.272-64.465,43.821-98.325,65.292-26.791,17.083-55.373,34.241-84.007,52.691-20.718,13.459-41.468,27.564-62.006,43.026-89.412,67.432-175.814,157.851-232.861,280.8-31.845,68.619-54.09,145.378-80.86,218.236-25.509,69.478-54.906,135.469-87.907,196.426-42.411,78.073-90.937,147.911-144.052,207.077-3.6,4-6.687,7.842-10.121,11.827-2.109,2.448-4.9,3.911-6.55,5.977" transform="translate(-1678.097 2.349)" fill="none" stroke="#000" stroke-width="1"/>
        <path id="Path_5926" data-name="Path 5926" d="M2927.327,48.26c-17.316,22.87-36.784,47.2-56.284,71.735-20.549,25.837-41.416,51.547-63.215,75.338-32.6,35.746-67.284,67.379-102.553,96.491-20.178,16.659-40.61,32.513-60.8,47.318-19.022,13.883-37.823,26.844-56.04,39.2-33.552,22.742-65.271,42.761-99.363,63.691-26.971,16.649-55.531,33.414-84.061,51.568-20.633,13.226-41.256,27.151-61.646,42.486-88.574,66.712-173.408,157.448-229.618,279.819-31.528,68.641-53.624,145.314-80.3,218.035-25.434,69.393-54.853,135.225-87.907,195.981-42.507,77.9-91.171,147.5-144.488,206.324-3.614,3.974-6.782,7.811-10.248,11.764-2.12,2.416-4.844,3.953-6.561,6.03" transform="translate(-1703.327 2.355)" fill="none" stroke="#000" stroke-width="1"/>
        <path id="Path_5927" data-name="Path 5927" d="M2936.523,48.39c-17.02,23.421-36,48.007-55.192,72.519-20.146,25.922-40.779,51.472-62.282,75.179-32.2,35.64-66.447,67.22-101.376,96.067-20.019,16.532-40.324,32.185-60.459,46.746-18.98,13.66-37.833,26.314-56.167,38.406-33.849,22.138-66.076,41.7-100.412,62.091-27.162,16.214-55.68,32.577-84.114,50.455-20.538,12.993-41.044,26.748-61.275,41.945-87.737,65.981-171.013,157.046-226.375,278.844-31.21,68.651-53.157,145.24-79.736,217.823-25.37,69.3-54.8,134.971-87.906,195.547-42.6,77.733-91.415,147.084-144.912,205.572-3.625,3.953-6.867,7.778-10.375,11.71-2.13,2.385-4.791,4-6.571,6.083" transform="translate(-1728.547 2.363)" fill="none" stroke="#000" stroke-width="1"/>
        <path id="Path_5928" data-name="Path 5928" d="M2945.75,48.51c-16.723,23.972-35.258,48.759-54.1,73.314-19.8,25.964-40.144,51.4-61.35,75.02A920.154,920.154,0,0,1,2730.089,292.5c-19.859,16.416-40.027,31.867-60.119,46.174-18.949,13.438-37.834,25.826-56.295,37.621-34.092,21.619-66.893,40.642-101.461,60.491-27.342,15.769-55.838,31.75-84.176,49.332-20.454,12.77-40.833,26.335-60.915,41.4-86.89,65.26-168.607,156.654-223.132,277.858C2113.1,874.051,2091.3,950.555,2064.8,1023c-25.3,69.213-54.747,134.727-87.907,195.112-42.7,77.553-91.658,146.66-145.335,204.82-3.646,3.932-6.953,7.747-10.491,11.647-2.141,2.353-4.737,4.048-6.582,6.136" transform="translate(-1753.797 2.371)" fill="none" stroke="#000" stroke-width="1"/>
        <path id="Path_5929" data-name="Path 5929" d="M2954.957,48.64c-16.426,24.523-34.517,49.523-53,74.109-19.446,26.006-39.508,51.324-60.417,74.851A885.586,885.586,0,0,1,2742.5,292.84c-19.7,16.288-39.74,31.538-59.781,45.591-18.906,13.2-37.823,25.328-56.411,36.827-34.336,21.089-67.7,39.582-102.5,58.9-27.532,15.335-56,30.924-84.23,48.219-20.369,12.537-40.621,25.932-60.554,40.864-86.052,64.529-166.2,156.251-219.889,276.872-30.574,68.694-52.225,145.113-78.624,217.42-25.222,69.117-54.694,134.483-87.917,194.677-42.793,77.384-91.9,146.247-145.77,204.067-3.656,3.91-7.037,7.726-10.618,11.583-2.152,2.321-4.7,4.091-6.592,6.189" transform="translate(-1779.028 2.378)" fill="none" stroke="#000" stroke-width="1"/>
        <path id="Path_5930" data-name="Path 5930" d="M2964.185,48.76c-16.13,25.074-33.785,50.286-51.907,74.893-19.1,26.049-38.872,51.25-59.494,74.692a852.515,852.515,0,0,1-97.879,94.817c-19.542,16.161-39.455,31.22-59.442,45.019-18.875,12.982-37.812,24.841-56.538,36.032-34.58,20.57-68.513,38.522-103.549,57.3-27.713,14.9-56.146,30.1-84.293,47.1-20.273,12.3-40.408,25.519-60.194,40.324-85.2,63.808-163.786,155.848-216.646,275.887-30.256,68.715-51.759,145.049-78.061,217.219-25.148,69.033-54.642,134.229-87.918,194.243-42.888,77.214-92.146,145.834-146.194,203.315-3.667,3.889-7.122,7.694-10.746,11.53-2.162,2.3-4.642,4.144-6.6,6.242" transform="translate(-1804.269 2.385)" fill="none" stroke="#000" stroke-width="1"/>
        <path id="Path_5931" data-name="Path 5931" d="M2973.381,48.88c-15.843,25.625-33.043,51.049-50.815,75.688-18.747,26.091-38.236,51.165-58.562,74.533a820.362,820.362,0,0,1-96.713,94.4c-19.383,16.034-39.169,30.9-59.114,44.446-18.843,12.759-37.812,24.343-56.655,35.237-34.824,20.04-69.318,37.462-104.587,55.7-27.9,14.455-56.305,29.271-84.346,45.983a693.5,693.5,0,0,0-59.823,39.783c-84.368,63.077-161.38,155.456-213.4,274.9-29.938,68.725-51.292,144.986-77.5,217.007-25.084,68.937-54.588,133.985-87.917,193.809-42.984,77.045-92.39,145.42-146.618,202.573-3.688,3.879-7.218,7.662-10.873,11.466-2.173,2.268-4.589,4.186-6.613,6.306" transform="translate(-1829.489 2.393)" fill="none" stroke="#000" stroke-width="1"/>
        <path id="Path_5932" data-name="Path 5932" d="M2982.6,49.01c-15.546,26.165-32.3,51.8-49.713,76.472-18.4,26.134-37.6,51.091-57.629,74.374a791.249,791.249,0,0,1-95.548,93.99,715.8,715.8,0,0,1-58.775,43.863c-18.8,12.537-37.8,23.855-56.782,34.453-35.067,19.521-70.124,36.4-105.636,54.1-28.084,14.021-56.464,28.444-84.41,44.86a651.167,651.167,0,0,0-59.463,39.243c-83.52,62.356-158.752,155.138-210.161,273.916-29.483,68.8-50.826,144.922-76.939,216.805-25.01,68.853-54.535,133.742-87.918,193.363-43.078,76.865-92.622,145-147.052,201.821-3.7,3.857-7.3,7.63-10.99,11.4-2.183,2.236-4.536,4.239-6.624,6.358" transform="translate(-1854.73 2.4)" fill="none" stroke="#000" stroke-width="1"/>
        <path id="Path_5933" data-name="Path 5933" d="M2991.8,49.13c-15.25,26.716-31.57,52.564-48.622,77.267a922.335,922.335,0,0,1-56.7,74.2,762.663,762.663,0,0,1-94.382,93.566,658.085,658.085,0,0,1-58.435,43.291c-18.768,12.314-37.791,23.357-56.909,33.658-35.312,18.991-70.941,35.343-106.676,52.5-28.263,13.586-56.612,27.617-84.463,43.747a611.913,611.913,0,0,0-59.1,38.7c-82.682,61.625-156.442,154.7-206.907,272.93-29.218,68.789-50.36,144.848-76.377,216.6-24.936,68.768-54.482,133.5-87.928,192.929-43.175,76.695-92.866,144.583-147.476,201.068-3.709,3.836-7.386,7.609-11.117,11.35-2.194,2.2-4.482,4.281-6.634,6.411" transform="translate(-1879.959 2.408)" fill="none" stroke="#000" stroke-width="1"/>
        <path id="Path_5934" data-name="Path 5934" d="M3001.022,49.26c-68.63,125.157-156.664,224.722-254.606,287.968-100.328,64.783-210.044,91.648-308.008,164.549-81.846,60.9-154.131,154.258-203.665,271.945-28.953,68.789-49.894,144.784-75.815,216.4-60.438,166.923-148.62,309.608-253.728,410.561" transform="translate(-1905.2 2.416)" fill="none" stroke="#000" stroke-width="1"/>
      </g>
    </g>
    <rect id="Rectangle_1891" data-name="Rectangle 1891" width="1920" height="1233" fill="url(#radial-gradient)"/>
  </g>
</svg>
