<svg id="Logos" xmlns="http://www.w3.org/2000/svg" width="109.573" height="74.198" viewBox="0 0 109.573 74.198">
  <g id="Adidas">
    <path id="Path_5747" data-name="Path 5747" d="M37.115,44.114c-5.159,0-8.2-2.634-8.415-6.4h4.9c0,1.244.7,2.927,3.659,3.037,2.122,0,3.256-1.28,3.256-2.232s-2.085-1.573-3.951-1.866a18.7,18.7,0,0,1-4.9-1.28,4.976,4.976,0,0,1-2.561-4.5c0-3.366,2.78-6,7.683-6s7.719,2.415,7.939,6.11H40.3c0-.951-.256-2.524-3.037-2.524-1.866,0-3.037.293-3.293,1.683s3.988,1.793,7.024,2.524a5.415,5.415,0,0,1,4.683,5.049c0,4.61-3.659,6.4-8.415,6.4" transform="translate(63.897 30.044)" fill="#fff"/>
    <path id="Path_5748" data-name="Path 5748" d="M7.634,34.432a5.488,5.488,0,0,0,5.3,5.524,5.3,5.3,0,0,0,5.378-5.378,5.378,5.378,0,0,0-5.378-5.6A5.561,5.561,0,0,0,7.6,34.322m5.341,9.8a9.7,9.7,0,0,1-9.549-9.7,9.585,9.585,0,0,1,9.549-9.549,9.219,9.219,0,0,1,5.6,1.683V25.1h4.5V43.615H18.353v-1.1a9.476,9.476,0,0,1-5.415,1.61" transform="translate(-3.39 30.068)" fill="#fff"/>
    <path id="Path_5749" data-name="Path 5749" d="M13.637,39.134a5.341,5.341,0,0,0,5.378,5.524,5.524,5.524,0,0,0,5.378-5.378,5.6,5.6,0,0,0-5.378-5.6,5.415,5.415,0,0,0-5.378,5.341m5.159,9.7a9.585,9.585,0,0,1-9.585-9.7A9.476,9.476,0,0,1,18.8,29.476a9.366,9.366,0,0,1,5.6,1.683V23.11H29.04V48.317H24.393v-1.1a10.134,10.134,0,0,1-5.6,1.61" transform="translate(12.082 25.365)" fill="#fff"/>
    <path id="Path_5750" data-name="Path 5750" d="M27.3,34.512a5.341,5.341,0,0,0,5.378,5.524,5.488,5.488,0,0,0,5.3-5.524,5.561,5.561,0,0,0-5.3-5.451A5.415,5.415,0,0,0,27.3,34.4m5.122,9.7a9.549,9.549,0,0,1-9.549-9.7,9.439,9.439,0,0,1,9.549-9.549,9.219,9.219,0,0,1,5.6,1.683V25.073H42.48V43.694h-4.5V42.6a9.951,9.951,0,0,1-5.6,1.61" transform="translate(48.397 29.988)" fill="#fff"/>
    <path id="Path_5751" data-name="Path 5751" d="M21.427,39.134A5.488,5.488,0,0,0,26.8,44.659a5.341,5.341,0,0,0,5.378-5.378,5.415,5.415,0,0,0-5.378-5.6,5.561,5.561,0,0,0-5.378,5.341M32.183,23.11h4.646V48.317H32.183v-1.1a8.927,8.927,0,0,1-5.378,1.61,9.768,9.768,0,0,1-9.8-9.7,9.659,9.659,0,0,1,9.8-9.549,8.3,8.3,0,0,1,5.378,1.683Z" transform="translate(32.792 25.365)" fill="#fff"/>
    <rect id="Rectangle_1733" data-name="Rectangle 1733" width="4.719" height="18.732" transform="translate(43.244 54.878)" fill="#fff"/>
    <rect id="Rectangle_1734" data-name="Rectangle 1734" width="4.683" height="4.61" transform="translate(43.244 48.585)" fill="#fff"/>
    <path id="Path_5752" data-name="Path 5752" d="M6.59,28.419,22.724,19.09l8.634,14.817H9.627Z" transform="translate(5.117 14.678)" fill="#fff"/>
    <path id="Path_5753" data-name="Path 5753" d="M39.3,58.445,16.87,19.336l16.1-9.476L60.992,58.445Z" transform="translate(32.447 -9.86)" fill="#fff"/>
    <path id="Path_5754" data-name="Path 5754" d="M46.113,45.977l-18-31.427L11.76,23.769,24.382,45.977H46.113Z" transform="translate(18.862 2.608)" fill="#fff"/>
  </g>
</svg>
