<?xml version="1.0" encoding="UTF-8"?>
<svg id="Layer_1" data-name="Layer 1" xmlns="http://www.w3.org/2000/svg" viewBox="0 0 532.91 136.31">
  <defs>
    <style>
      .cls-1 {
        fill: #0da4da;
      }
    </style>
  </defs>
  <polygon class="cls-1" points="288.7 4.48 312.39 4.48 312.39 39.27 326.44 39.27 326.44 59.66 312.39 59.66 312.39 133.66 288.7 133.66 288.7 59.66 276.56 59.66 276.56 39.27 288.7 39.27 288.7 4.48"/>
  <path class="cls-1" d="m333.56,39.27h20.3v11.89c2.2-4.68,5.12-8.24,8.76-10.67,3.64-2.43,7.63-3.64,11.97-3.64,3.06,0,6.28.81,9.63,2.43l-7.38,20.39c-2.77-1.39-5.06-2.08-6.85-2.08-3.64,0-6.72,2.26-9.24,6.77-2.52,4.51-3.78,13.36-3.78,26.55l.09,4.6v38.17h-23.51V39.27Z"/>
  <path class="cls-1" d="m405.17.41c4.15,0,7.71,1.5,10.68,4.51,2.97,3.01,4.46,6.65,4.46,10.93s-1.47,7.82-4.41,10.8c-2.94,2.98-6.46,4.47-10.55,4.47s-7.8-1.52-10.77-4.55c-2.97-3.04-4.46-6.72-4.46-11.06s1.47-7.72,4.41-10.67c2.94-2.95,6.49-4.42,10.64-4.42m-11.84,38.86h23.69v94.39h-23.69V39.27Z"/>
  <path class="cls-1" d="m482.86,36.84c8.91,0,17.28,2.23,25.12,6.68,7.84,4.46,13.95,10.5,18.35,18.13,4.4,7.63,6.59,15.88,6.59,24.72s-2.21,17.24-6.64,24.98c-4.43,7.75-10.45,13.81-18.09,18.17-7.64,4.37-16.05,6.55-25.24,6.55-13.54,0-25.09-4.81-34.66-14.44-9.57-9.63-14.36-21.33-14.36-35.09,0-14.75,5.41-27.04,16.22-36.87,9.48-8.56,20.39-12.84,32.71-12.84m.39,22.29c-7.36,0-13.48,2.56-18.38,7.68-4.9,5.12-7.34,11.67-7.34,19.65s2.42,14.86,7.26,19.95c4.84,5.09,10.96,7.63,18.38,7.63s13.59-2.57,18.51-7.72c4.92-5.15,7.39-11.77,7.39-19.87s-2.42-14.67-7.26-19.74c-4.84-5.06-11.02-7.59-18.55-7.59"/>
  <path class="cls-1" d="m198.26,0c-23.91,0-45.98,12.61-58.29,33.04l14.69,25.45.38-1.47c5.08-19.74,22.85-33.52,43.22-33.52,24.62,0,44.65,20.03,44.65,44.65,0,10.79-3.92,21.18-11.06,29.34l-22.3-38.63-20.35,11.75,35.03,60.68,3.8-1.85c23.32-11.36,38.38-35.42,38.38-61.29C266.4,30.57,235.83,0,198.26,0"/>
  <path class="cls-1" d="m199.64,112.75c-.46.02-.92.03-1.38.03-16.08,0-30.99-8.74-38.92-22.81l-34.41-59.4-.1-.15C112.13,11.4,90.93.03,68.14.03,30.57.03,0,30.6,0,68.17s30.57,68.14,68.14,68.14c14.85,0,28.89-4.67,40.67-13.5v11.15h23.5v-20.12l-20.67-35.8c-4.57,20.01-22.8,34.78-43.51,34.78-24.62,0-44.65-20.03-44.65-44.65s20.03-44.65,44.65-44.65c14.57,0,28.27,7.17,36.63,19.16l12.23,21.1h0s2.15,3.72,2.15,3.72l19.81,34.16c12.12,21.36,34.84,34.63,59.3,34.63,3.47,0,6.96-.27,10.37-.79l4.07-.62-12.78-22.13h-.28Z"/>
</svg>