<svg id="_1156738_amazon_logo_ecommerce_shopping_icon" data-name="1156738_amazon_logo_ecommerce_shopping_icon" xmlns="http://www.w3.org/2000/svg" width="109.572" height="21.635" viewBox="0 0 109.572 21.635">
  <g id="Group_487" data-name="Group 487">
    <g id="Group_465" data-name="Group 465" transform="translate(10.15 12.932)">
      <g id="Group_457" data-name="Group 457" transform="translate(0 0.911)">
        <g id="Group_456" data-name="Group 456">
          <path id="Path_5698" data-name="Path 5698" d="M40.485,36.815c-4.187,3.141-10.12,4.711-15.354,4.711A27.017,27.017,0,0,1,6.462,34.373c-.349-.349,0-.872.349-.523A37.219,37.219,0,0,0,25.48,38.735a35.668,35.668,0,0,0,14.307-2.966A.633.633,0,0,1,40.485,36.815Z" transform="translate(-6.317 -33.734)" fill="#fff" fill-rule="evenodd"/>
        </g>
      </g>
      <g id="Group_459" data-name="Group 459" transform="translate(0 0.911)">
        <g id="Group_458" data-name="Group 458">
          <path id="Path_5699" data-name="Path 5699" d="M40.485,36.815c-4.187,3.141-10.12,4.711-15.354,4.711A27.017,27.017,0,0,1,6.462,34.373c-.349-.349,0-.872.349-.523A37.219,37.219,0,0,0,25.48,38.735a35.668,35.668,0,0,0,14.307-2.966A.633.633,0,0,1,40.485,36.815Z" transform="translate(-6.317 -33.734)" fill="#fff" fill-rule="evenodd"/>
        </g>
      </g>
      <g id="Group_460" data-name="Group 460" transform="translate(0.06 0.737)">
        <path id="Path_5700" data-name="Path 5700" d="M40.459,35.843a27.641,27.641,0,0,1-15.18,4.536A27.805,27.805,0,0,1,7.657,34.1c-.174-.174-.523-.174-.7-.349-.523-.349-.872.174-.349.523A27.334,27.334,0,0,0,25.28,41.426c5.234,0,11.167-1.57,15.354-4.711A.608.608,0,0,0,40.459,35.843Z" transform="translate(-6.352 -33.634)" fill="#fff" fill-rule="evenodd"/>
      </g>
      <g id="Group_462" data-name="Group 462" transform="translate(30.488)">
        <g id="Group_461" data-name="Group 461">
          <path id="Path_5701" data-name="Path 5701" d="M29.041,35.11c-.523-.7-3.49-.349-4.885-.174-.349,0-.523-.349-.174-.523,2.443-1.745,6.281-1.221,6.63-.7.523.523-.174,4.536-2.268,6.281-.349.349-.7.174-.523-.174C28.518,38.6,29.564,35.808,29.041,35.11Z" transform="translate(-23.791 -33.212)" fill="#fff" fill-rule="evenodd"/>
        </g>
      </g>
      <g id="Group_464" data-name="Group 464" transform="translate(34.819 0.677)">
        <g id="Group_463" data-name="Group 463">
          <path id="Path_5702" data-name="Path 5702" d="M29.111,33.6c.523.523-.174,4.536-2.268,6.281-.349.349-.7.174-.523-.174.523-1.221,1.57-4.013,1.047-4.711" transform="translate(-26.273 -33.6)" fill="#fff" fill-rule="evenodd"/>
        </g>
      </g>
    </g>
    <g id="Group_486" data-name="Group 486">
      <g id="Group_467" data-name="Group 467" transform="translate(40.653 0.523)">
        <g id="Group_466" data-name="Group 466">
          <path id="Path_5703" data-name="Path 5703" d="M24.323,28.019v-1.57a.375.375,0,0,1,.349-.349H32a.375.375,0,0,1,.349.349v1.4a2.7,2.7,0,0,1-.523,1.047L27.987,34.3a9.049,9.049,0,0,1,4.187.872c.349.174.349.349.349.7v1.745c0,.174-.174.523-.523.349a8.5,8.5,0,0,0-7.677,0c-.174.174-.523-.174-.523-.349v-1.57A1.475,1.475,0,0,1,24.149,35l4.362-6.281H24.672C24.5,28.368,24.323,28.194,24.323,28.019Z" transform="translate(-23.8 -26.1)" fill="#fff" fill-rule="evenodd"/>
        </g>
      </g>
      <g id="Group_469" data-name="Group 469" transform="translate(12.213 0.174)">
        <g id="Group_468" data-name="Group 468">
          <path id="Path_5704" data-name="Path 5704" d="M10.117,38.288H7.849a.375.375,0,0,1-.349-.349V26.6a.375.375,0,0,1,.349-.349H9.943a.375.375,0,0,1,.349.349v1.4h0A2.981,2.981,0,0,1,13.258,25.9a2.781,2.781,0,0,1,2.792,2.094A3.132,3.132,0,0,1,19.016,25.9a3.37,3.37,0,0,1,2.617,1.221c.7.872.523,2.268.523,3.49v7.154a.375.375,0,0,1-.349.349H19.539a.375.375,0,0,1-.349-.349V29.739a1.274,1.274,0,0,0-1.221-1.047,1.779,1.779,0,0,0-1.4.872,8.495,8.495,0,0,0-.174,2.094V37.59a.375.375,0,0,1-.349.349H13.781a.375.375,0,0,1-.349-.349V31.658c0-1.221.174-3.141-1.4-3.141s-1.57,1.745-1.57,3.141V37.59C10.466,38.113,10.292,38.288,10.117,38.288Z" transform="translate(-7.5 -25.9)" fill="#fff" fill-rule="evenodd"/>
        </g>
      </g>
      <g id="Group_471" data-name="Group 471" transform="translate(50.599 0.174)">
        <g id="Group_470" data-name="Group 470">
          <path id="Path_5705" data-name="Path 5705" d="M34.385,25.9c3.315,0,5.06,2.792,5.06,6.456,0,3.49-1.919,6.281-5.06,6.281S29.5,35.845,29.5,32.356C29.5,28.692,31.245,25.9,34.385,25.9Zm0,2.268c-1.57,0-1.745,2.268-1.745,3.664s0,4.362,1.745,4.362,1.745-2.443,1.745-3.839a8.643,8.643,0,0,0-.349-2.966A1.329,1.329,0,0,0,34.385,28.168Z" transform="translate(-29.5 -25.9)" fill="#fff" fill-rule="evenodd"/>
        </g>
      </g>
      <g id="Group_473" data-name="Group 473" transform="translate(62.289 0.349)">
        <g id="Group_472" data-name="Group 472">
          <path id="Path_5706" data-name="Path 5706" d="M38.817,38.213H36.549a.375.375,0,0,1-.349-.349V26.523a.375.375,0,0,1,.349-.349h2.094a.375.375,0,0,1,.349.349v1.745h0c.7-1.57,1.4-2.268,2.966-2.268a2.9,2.9,0,0,1,2.617,1.4,7.735,7.735,0,0,1,.523,3.49v7.154a.375.375,0,0,1-.349.349H42.481a.375.375,0,0,1-.349-.349V31.932c0-1.221.174-2.966-1.4-2.966a1.312,1.312,0,0,0-1.221.872,4.426,4.426,0,0,0-.349,2.094v6.107A.609.609,0,0,1,38.817,38.213Z" transform="translate(-36.2 -26)" fill="#fff" fill-rule="evenodd"/>
        </g>
      </g>
      <g id="Group_475" data-name="Group 475" transform="translate(72.757 10.643)">
        <g id="Group_474" data-name="Group 474">
          <circle id="Ellipse_40" data-name="Ellipse 40" cx="1.047" cy="1.047" r="1.047" fill="#fff"/>
        </g>
      </g>
      <g id="Group_477" data-name="Group 477" transform="translate(95.788 0.174)">
        <g id="Group_476" data-name="Group 476">
          <path id="Path_5707" data-name="Path 5707" d="M55.749,38.288a.375.375,0,0,1-.349-.349V26.6a.375.375,0,0,1,.349-.349h.7a.375.375,0,0,1,.349.349v1.57A3.379,3.379,0,0,1,59.762,25.9h0c1.4,0,2.443,1.047,2.966,2.617A3.512,3.512,0,0,1,66.043,25.9h0a3.055,3.055,0,0,1,2.617,1.745,7.735,7.735,0,0,1,.523,3.49v6.8a.375.375,0,0,1-.349.349H67.788a.375.375,0,0,1-.349-.349v-6.8a5.545,5.545,0,0,0-.349-2.443,2.1,2.1,0,0,0-1.745-1.221,2.446,2.446,0,0,0-1.919,1.4,5.96,5.96,0,0,0-.523,2.966v6.107a.375.375,0,0,1-.349.349H61.507a.375.375,0,0,1-.349-.349V30.611a4.426,4.426,0,0,0-.349-2.094A2.522,2.522,0,0,0,59.064,27.3a2.1,2.1,0,0,0-1.745,1.221,5.12,5.12,0,0,0-.7,2.792v6.456a.375.375,0,0,1-.349.349h-.523Z" transform="translate(-55.4 -25.9)" fill="#fff"/>
        </g>
      </g>
      <g id="Group_479" data-name="Group 479" transform="translate(84.971)">
        <g id="Group_478" data-name="Group 478">
          <path id="Path_5708" data-name="Path 5708" d="M53.736,38.537c-3.141,0-4.536-3.141-4.536-6.456S50.77,25.8,54.085,25.8h0c3.141,0,4.536,3.141,4.536,6.281,0,3.49-1.57,6.456-4.885,6.456Zm.174-1.57a2.409,2.409,0,0,0,2.268-1.745,9.125,9.125,0,0,0,.523-3.141,7.081,7.081,0,0,0-.7-3.315,2.515,2.515,0,0,0-2.268-1.4,2.409,2.409,0,0,0-2.268,1.745,8.862,8.862,0,0,0-.523,2.966,10.159,10.159,0,0,0,.523,3.315A3.036,3.036,0,0,0,53.911,36.967Z" transform="translate(-49.2 -25.8)" fill="#fff"/>
        </g>
      </g>
      <g id="Group_481" data-name="Group 481" transform="translate(75.026 0.174)">
        <g id="Group_480" data-name="Group 480">
          <path id="Path_5709" data-name="Path 5709" d="M48.036,36.892c1.4,0,2.094-1.221,2.443-2.617a.375.375,0,0,1,.349-.349H51.7a.375.375,0,0,1,.349.349c-.349,2.443-1.919,4.187-4.013,4.187h0c-3.141,0-4.536-3.141-4.536-6.281S44.9,25.9,48.036,25.9h0c2.094,0,3.664,1.745,4.013,4.187a.375.375,0,0,1-.349.349H50.654a.375.375,0,0,1-.349-.349,2.8,2.8,0,0,0-2.443-2.617c-2.094,0-2.792,2.617-2.792,4.711C45.419,34.1,45.943,36.892,48.036,36.892Z" transform="translate(-43.5 -25.9)" fill="#fff"/>
        </g>
      </g>
      <g id="Group_483" data-name="Group 483" transform="translate(28.963 0)">
        <g id="Group_482" data-name="Group 482">
          <path id="Path_5710" data-name="Path 5710" d="M23.556,32.954a4.789,4.789,0,0,1-.349,2.268,1.677,1.677,0,0,1-1.57,1.047,1.425,1.425,0,0,1-1.4-1.57c0-1.919,1.745-2.268,3.315-2.268Zm2.268,5.409H25.3a4.379,4.379,0,0,1-1.221-1.4,4.437,4.437,0,0,1-3.664,1.57,3.164,3.164,0,0,1-3.315-3.49,4.186,4.186,0,0,1,2.268-3.664,11.122,11.122,0,0,1,4.187-.7v-.349a2.346,2.346,0,0,0-.349-1.57,1.584,1.584,0,0,0-1.221-.523,1.561,1.561,0,0,0-1.745,1.4.375.375,0,0,1-.349.349L17.8,29.639c-.174,0-.349-.174-.349-.523.523-2.617,2.792-3.315,4.885-3.315a5.745,5.745,0,0,1,3.315,1.047C26.7,27.894,26.7,29.115,26.7,30.685v3.49a2.614,2.614,0,0,0,.872,2.094c.174.174.174.523,0,.523a7.5,7.5,0,0,0-1.745,1.57Z" transform="translate(-17.1 -25.8)" fill="#fff" fill-rule="evenodd"/>
        </g>
      </g>
      <g id="Group_485" data-name="Group 485" transform="translate(0 0)">
        <g id="Group_484" data-name="Group 484">
          <path id="Path_5711" data-name="Path 5711" d="M6.956,32.954a4.789,4.789,0,0,1-.349,2.268,1.677,1.677,0,0,1-1.57,1.047,1.425,1.425,0,0,1-1.4-1.57c0-1.919,1.745-2.268,3.315-2.268Zm2.268,5.409H8.7a4.379,4.379,0,0,1-1.221-1.4,4.437,4.437,0,0,1-3.664,1.57A3.164,3.164,0,0,1,.5,35.047a4.186,4.186,0,0,1,2.268-3.664,11.122,11.122,0,0,1,4.187-.7v-.349a2.346,2.346,0,0,0-.349-1.57,1.885,1.885,0,0,0-1.221-.523,1.561,1.561,0,0,0-1.745,1.4.375.375,0,0,1-.349.349L1.2,29.639c-.174,0-.349-.174-.349-.523C1.372,26.5,3.641,25.8,5.734,25.8a5.745,5.745,0,0,1,3.315,1.047c1.221,1.047,1.047,2.443,1.047,3.839v3.49a2.614,2.614,0,0,0,.872,2.094c.174.174.174.523,0,.523a14.167,14.167,0,0,0-1.745,1.57Z" transform="translate(-0.5 -25.8)" fill="#fff" fill-rule="evenodd"/>
        </g>
      </g>
    </g>
  </g>
  <g id="Group_488" data-name="Group 488" transform="translate(62.463 0.174)">
    <path id="Path_5712" data-name="Path 5712" d="M42.058,25.9a2.82,2.82,0,0,0-2.966,2.268h0V26.423a.375.375,0,0,0-.349-.349H36.649a.375.375,0,0,0-.349.349v3.49A55.957,55.957,0,0,0,44.152,26.6,3.353,3.353,0,0,0,42.058,25.9Z" transform="translate(-36.3 -25.9)" fill="#fff" fill-rule="evenodd"/>
  </g>
  <g id="Group_489" data-name="Group 489" transform="translate(50.599 0.174)">
    <path id="Path_5713" data-name="Path 5713" d="M34.385,25.9c-3.141,0-4.885,2.792-4.885,6.281v.872c1.047-.174,2.094-.523,3.141-.7v-.523c0-1.4.174-3.664,1.745-3.664a1.327,1.327,0,0,1,1.4,1.047,8.758,8.758,0,0,1,.349,2.094c1.047-.349,2.094-.523,3.141-.872C38.747,27.819,37.177,25.9,34.385,25.9Z" transform="translate(-29.5 -25.9)" fill="#fff" fill-rule="evenodd"/>
  </g>
  <g id="Group_490" data-name="Group 490" transform="translate(41.177 0.349)">
    <path id="Path_5714" data-name="Path 5714" d="M31.777,26H24.449a.375.375,0,0,0-.349.349v1.57a.375.375,0,0,0,.349.349h3.839L24.274,34.2c1.4-.174,2.617-.349,3.839-.523l3.49-5.06a2.7,2.7,0,0,0,.523-1.047v-1.4C32.3,26.174,31.952,26,31.777,26Z" transform="translate(-24.1 -26)" fill="#fff" fill-rule="evenodd"/>
  </g>
  <g id="Group_491" data-name="Group 491" transform="translate(28.963 0.174)">
    <path id="Path_5715" data-name="Path 5715" d="M25.649,26.947A4.719,4.719,0,0,0,22.334,25.9c-2.094,0-4.362.7-4.885,3.315,0,.349.174.349.349.523l2.094.174a.375.375,0,0,0,.349-.349,1.7,1.7,0,0,1,1.745-1.4,1.358,1.358,0,0,1,1.221.523,2.593,2.593,0,0,1,.349,1.57v.349a17.515,17.515,0,0,0-4.187.7A3.566,3.566,0,0,0,17.1,34.973h3.141v-.349c0-1.919,1.745-2.268,3.315-2.268v.523a4.426,4.426,0,0,1-.349,2.094c1.221,0,2.268-.174,3.49-.174V30.785C26.7,29.215,26.7,27.819,25.649,26.947Z" transform="translate(-17.1 -25.9)" fill="#fff" fill-rule="evenodd"/>
  </g>
  <g id="Group_492" data-name="Group 492" transform="translate(12.213 0.174)">
    <path id="Path_5716" data-name="Path 5716" d="M19.19,25.9a3.132,3.132,0,0,0-2.966,2.094c-.7-1.4-1.57-2.094-2.792-2.094a2.981,2.981,0,0,0-2.966,2.094h0V26.6q-.262-.523-.523-.523H7.849a.375.375,0,0,0-.349.349v6.8c1.047.174,1.919.349,2.966.523V31.658c0-1.4,0-3.141,1.57-3.141s1.4,1.919,1.4,3.141V34.1c1.047.174,2.094.174,2.966.349V31.658a7.822,7.822,0,0,1,.174-2.094,1.382,1.382,0,0,1,1.4-.872c.7,0,1.221.174,1.221,1.047a8.408,8.408,0,0,1,0,2.094V34.8c1.047,0,2.094.174,2.966.174V30.785c0-1.221.174-2.617-.523-3.49A2.634,2.634,0,0,0,19.19,25.9Z" transform="translate(-7.5 -25.9)" fill="#fff" fill-rule="evenodd"/>
  </g>
  <g id="Group_493" data-name="Group 493" transform="translate(0.349 0)">
    <path id="Path_5717" data-name="Path 5717" d="M5.585,25.8c-2.094,0-4.362.7-4.885,3.315,0,.349.174.349.349.523l2.094.174a.375.375,0,0,0,.349-.349,1.7,1.7,0,0,1,1.745-1.4,1.358,1.358,0,0,1,1.221.523,2.593,2.593,0,0,1,.349,1.57v.349a39.251,39.251,0,0,0-3.839.872c2.268.7,4.536,1.221,6.979,1.745V30.86c0-1.4.174-2.792-1.047-3.839A4.344,4.344,0,0,0,5.585,25.8Z" transform="translate(-0.7 -25.8)" fill="#fff" fill-rule="evenodd"/>
  </g>
</svg>
