<svg xmlns="http://www.w3.org/2000/svg" xmlns:xlink="http://www.w3.org/1999/xlink" width="294.357" height="255.095" viewBox="0 0 294.357 255.095">
  <defs>
    <clipPath id="clip-path">
      <rect id="Rectangle_1921" data-name="Rectangle 1921" width="294.357" height="255.095" fill="none"/>
    </clipPath>
  </defs>
  <g id="Group_707" data-name="Group 707" transform="translate(-385.725 -2862)">
    <g id="Group_706" data-name="Group 706" transform="translate(385.725 2862)">
      <g id="Group_705" data-name="Group 705" clip-path="url(#clip-path)">
        <path id="Path_6107" data-name="Path 6107" d="M244.823,169.57a28.849,28.849,0,0,0-24.693,14l6.223,10.781.161-.622a18.907,18.907,0,1,1,32.538,17.144L249.605,194.5l-8.621,4.978,14.839,25.705,1.61-.783a28.866,28.866,0,0,0-12.611-54.833" transform="translate(-70.07 -53.976)" fill="#06bbe3"/>
        <path id="Path_6108" data-name="Path 6108" d="M217.72,217.339c-.195.008-.39.013-.585.013a18.966,18.966,0,0,1-16.487-9.663l-14.577-25.163-.042-.063a28.86,28.86,0,1,0-24.015,44.857,28.485,28.485,0,0,0,17.229-5.719v4.723H189.2V217.8l-8.756-15.165a18.91,18.91,0,1,1-2.914-14.979l5.181,8.939.911,1.575,8.392,14.471a28.954,28.954,0,0,0,25.121,14.67,29.248,29.248,0,0,0,4.393-.334l1.725-.263-5.414-9.375Z" transform="translate(-42.383 -53.982)" fill="#06bbe3"/>
        <path id="Path_6109" data-name="Path 6109" d="M157.38,274.81a19.366,19.366,0,0,0,24.569.177,194.114,194.114,0,0,0,37.662-35.56,213.85,213.85,0,0,0,38.648-72.4c5.878-19.063,9.3-39.293,10.461-61.846a11.822,11.822,0,0,0-3.2-8.683,12.326,12.326,0,0,0-9.042-3.419,18.876,18.876,0,0,0-2.7.2c-3.2.462-6.446.843-9.587,1.211q-1.98.233-3.959.471a98.142,98.142,0,0,1-11.855.736,86.979,86.979,0,0,1-50.63-16.2c-3.483-2.432-5.874-3.469-8-3.47s-4.475,1-8.066,3.458c-15.669,10.72-31.542,15.989-48.527,16.11q-.4,0-.8,0a195.73,195.73,0,0,1-27-2.353,16.465,16.465,0,0,0-2.292-.164,12.206,12.206,0,0,0-9.12,3.731A13.123,13.123,0,0,0,70.81,106.9c.329,4.3.71,8.719,1.133,13.146,3.064,32.1,12.178,61.929,27.089,88.654A203.8,203.8,0,0,0,157.38,274.81M76.17,122.119q-.147-1.539-.3-3.078c-.389-3.9-.791-7.936-.965-11.952-.1-2.28.017-5.569,2.153-7.8,1.439-1.5,3.468-2.233,6.205-2.233a21.149,21.149,0,0,1,2.886.219l2.057.284c7.537,1.046,15.332,2.127,23.019,2.127.406,0,.811,0,1.218-.009,17.825-.266,34.723-5.671,50.227-16.064,3.13-2.1,4.855-3.254,7.067-3.254,2.189,0,3.867,1.121,6.914,3.158,16.086,10.75,33.534,16.2,51.859,16.2a100.907,100.907,0,0,0,15.174-1.178c1.6-.244,3.205-.425,4.76-.6,1.222-.138,2.487-.28,3.708-.45a30.556,30.556,0,0,1,4.156-.351h0a7.856,7.856,0,0,1,5.837,2.032c2.151,2.2,2.507,5.747,2.4,11.141v.062l0,.062c-1.663,25.081-6.744,48.614-15.1,69.947a208.4,208.4,0,0,1-34.491,58.478,195.871,195.871,0,0,1-36.305,33.661,14.955,14.955,0,0,1-8.709,2.729,16.022,16.022,0,0,1-9.131-2.858,178.423,178.423,0,0,1-30.71-27.158,205.379,205.379,0,0,1-35.165-53.283A218.266,218.266,0,0,1,76.17,122.119" transform="translate(-22.524 -24.2)" fill="#fff"/>
        <path id="Path_6110" data-name="Path 6110" d="M392.788,253.258c-.043-1.933-2.2-1.959-2.905-1.967-3.905-.046-7.871-.069-11.788-.069-3.834,0-7.728.022-11.57.066a3.82,3.82,0,0,0-2.66.853,1.6,1.6,0,0,0-.434,1.207c.04,1.736,2.346,1.973,3.336,1.995,1.318.029,2.731.042,4.446.042,1.185,0,2.372-.006,3.557-.012q1.739-.009,3.479-.013h.086c1.16,0,2.319.007,3.479.014s2.3.014,3.447.014c1.726,0,3.143-.016,4.461-.049,3.112-.078,3.08-1.532,3.068-2.079" transform="translate(-115.685 -79.967)" fill="#fff"/>
        <path id="Path_6111" data-name="Path 6111" d="M51.3,255.348a4.488,4.488,0,0,0,3.079-.967,1.445,1.445,0,0,0,.394-1.106c-.047-1.823-2.545-1.989-3.31-2-3.636-.036-7.456-.055-11.356-.055-3.64,0-7.341.016-11.316.046-3.32.027-3.385,1.372-3.41,1.879a1.545,1.545,0,0,0,.383,1.222,4.317,4.317,0,0,0,2.955.954c1.3.04,2.707.059,4.413.059,1.165,0,2.33-.008,3.5-.017s2.357-.017,3.536-.017h2.7v.023l.727,0q1.7.008,3.4.011c1.661,0,3.029-.012,4.3-.038" transform="translate(-8.078 -79.968)" fill="#fff"/>
        <path id="Path_6112" data-name="Path 6112" d="M108.232,42.709c-4.813-4.852-9.791-9.87-14.779-14.688a1.381,1.381,0,0,0-.928-.463,2.1,2.1,0,0,0-1.347.718c-1.243,1.246-.543,1.971-.243,2.281C97.078,36.914,103.5,43.252,109.549,49.2a1.012,1.012,0,0,0,.771.337,2.761,2.761,0,0,0,1.168-.329,1.518,1.518,0,0,0,.9-1.487c-.014-.844-.2-1.029-.26-1.091q-1.948-1.958-3.892-3.92" transform="translate(-28.796 -8.772)" fill="#fff"/>
        <path id="Path_6113" data-name="Path 6113" d="M325.941,35.564q2.124-2.132,4.249-4.262a2.5,2.5,0,0,0,.8-2.226A1.453,1.453,0,0,0,330.062,28a2.582,2.582,0,0,0-1.046-.267,1.682,1.682,0,0,0-1.235.605L325.608,30.5c-5.13,5.095-10.436,10.363-15.557,15.622-1.235,1.268-.981,2.073-.171,2.961a1.351,1.351,0,0,0,1.035.489,3.042,3.042,0,0,0,1.969-1c4.381-4.3,8.792-8.728,13.057-13.009" transform="translate(-98.422 -8.829)" fill="#fff"/>
        <path id="Path_6114" data-name="Path 6114" d="M216.922,14.676q0-1.709.01-3.417c.011-2.766.022-5.625-.019-8.425C216.871,0,215.734,0,215.122,0H215.1c-1.746.012-1.763,1.816-1.77,2.587-.068,7.462-.044,15.059-.02,22.406L213.315,27c0,1.326.128,2.137,1.813,2.223q.08,0,.157,0c.506,0,1.558,0,1.612-2.387.061-2.765.048-5.6.035-8.334-.006-1.277-.012-2.554-.011-3.83" transform="translate(-67.891)" fill="#fff"/>
        <path id="Path_6115" data-name="Path 6115" d="M336.868,364.138c-.055-.505-.379-1.215-2.066-2.282q-2.765-1.747-5.524-3.5c-2.7-1.713-5.486-3.485-8.235-5.211-.342-.215-.684-.434-1.026-.653a28.673,28.673,0,0,0-3.884-2.222,3.12,3.12,0,0,0-1.2-.29c-.394,0-.864.106-1.358.9-.927,1.486.022,2.112.334,2.318,7.791,5.143,14.33,9.236,20.578,12.884a1.12,1.12,0,0,0,.575.164,2.094,2.094,0,0,0,1.8-2.1" transform="translate(-99.689 -111.402)" fill="#fff"/>
        <path id="Path_6116" data-name="Path 6116" d="M417.542,106.783l-.539.127c-.751.177-1.526.359-2.267.588-5.892,1.813-12.57,3.869-19.115,5.947a3.349,3.349,0,0,0-2.027,1.444,1.512,1.512,0,0,0-.059,1.222,1.81,1.81,0,0,0,1.969,1.282,4.841,4.841,0,0,0,1.382-.223c4.133-1.241,8.325-2.573,12.379-3.862l2.171-.689c.646-.205,1.3-.4,1.945-.6a42.834,42.834,0,0,0,5.155-1.785c.832-.373,1.281-.87.945-2.193-.141-.556-.275-1.085-1.939-1.262" transform="translate(-125.235 -33.99)" fill="#fff"/>
        <path id="Path_6117" data-name="Path 6117" d="M24.292,124.048a1.323,1.323,0,0,0,.358.051,1.878,1.878,0,0,0,1.631-1.813c-.107-.756-.489-1.633-2.08-2.144-3.445-1.107-6.925-2.2-10.344-3.243q-1.424-.436-2.846-.886c-2.751-.864-5.6-1.758-8.4-2.423a3.935,3.935,0,0,0-.9-.115,1.442,1.442,0,0,0-1.567,1.245c-.382,1.251-.053,1.894,1.175,2.294,8.739,2.848,16.036,5.083,22.967,7.032" transform="translate(0 -36.121)" fill="#fff"/>
        <path id="Path_6118" data-name="Path 6118" d="M105.782,350.126a3.842,3.842,0,0,0-1.958.613c-5.431,3.3-11.253,6.963-18.32,11.533-2.2,1.424-1.512,2.588-1.286,2.971.588.992,1.211.992,1.445.992a3.726,3.726,0,0,0,1.843-.643c5.673-3.479,11.394-7.114,16.926-10.63l2.006-1.274a2.174,2.174,0,0,0,1.1-1.949,1.6,1.6,0,0,0-1.76-1.614" transform="translate(-26.718 -111.45)" fill="#fff"/>
      </g>
    </g>
  </g>
</svg>
