<svg xmlns="http://www.w3.org/2000/svg" width="936.131" height="505.297" viewBox="0 0 936.131 505.297">
  <g id="Group_590" data-name="Group 590" transform="translate(-0.005 0)">
    <path id="Path_5940" data-name="Path 5940" d="M191.229,619.359l-2.92,14.65c-.22,1.12-.45,2.26-.7,3.39a14.287,14.287,0,0,0-7.34.41,68.5,68.5,0,0,1,5.04,8.43c-1.84,5.67-4.54,10.91-9.06,14.7a22.719,22.719,0,0,1-21.95,3.86l.13-.58c-4.86-9.43-2.22-21.32,3.82-30.03a58.385,58.385,0,0,1,10.85-11.47c4.08-3.4,8.49-6.45,12.86-9.46a5.99,5.99,0,0,1,9.27,6.1Z" transform="translate(-131.934 -197.352)" fill="#e4e4e4"/>
    <path id="a4b268fa-75d0-4ac1-9d87-14bdca948464-2189" d="M155.339,700.049c-1.229-8.953-2.493-18.02-1.631-27.069.766-8.036,3.217-15.885,8.209-22.321a37.131,37.131,0,0,1,9.527-8.633c.953-.6,1.829.909.881,1.507a35.3,35.3,0,0,0-13.963,16.847c-3.04,7.732-3.528,16.161-3,24.374.317,4.967.988,9.9,1.665,14.83a.9.9,0,0,1-.61,1.074.878.878,0,0,1-1.074-.61Z" transform="translate(-131.934 -197.352)" fill="#f2f2f2"/>
    <path id="Path_5941" data-name="Path 5941" d="M165.887,250.986q64.256-1.117,128.526-.321t128.478,3.524q36.035,1.528,72.041,3.661c1.929.114,1.922-2.886,0-3q-64.153-3.8-128.4-5.681t-128.513-1.837q-36.067.024-72.131.654c-1.928.034-1.934,3.034,0,3Z" transform="translate(-131.934 -197.352)" fill="#e6e6e6"/>
    <path id="Path_5942" data-name="Path 5942" d="M464.422,232.175l18.732-1.394c1.914-.142,1.929-3.144,0-3l-18.732,1.394C462.508,229.317,462.493,232.319,464.422,232.175Z" transform="translate(-131.934 -197.352)" fill="#e6e6e6"/>
    <path id="Path_5943" data-name="Path 5943" d="M464.422,250.175l18.732-1.394c1.914-.142,1.929-3.144,0-3l-18.732,1.394C462.508,247.317,462.493,250.319,464.422,250.175Z" transform="translate(-131.934 -197.352)" fill="#e6e6e6"/>
    <path id="Path_5944" data-name="Path 5944" d="M463.013,241.955l26.632,2.419c1.922.175,1.91-2.826,0-3l-26.632-2.419C461.091,238.78,461.1,241.781,463.013,241.955Z" transform="translate(-131.934 -197.352)" fill="#e6e6e6"/>
    <path id="Path_5945" data-name="Path 5945" d="M176.972,228.141a6.636,6.636,0,0,0-6.133,4.006,5.974,5.974,0,0,0,1.375,7.1,7.1,7.1,0,0,0,6.729,1.367,6,6,0,0,0,4.023-5.643,6.707,6.707,0,0,0-4.179-6.469,1.506,1.506,0,0,0-1.845,1.048,1.543,1.543,0,0,0,1.048,1.845c.261.1-.239-.128.005,0,.1.055.2.1.3.162s.164.1.245.157c.28.183-.137-.134.042.03.155.142.309.281.45.439.053.059.262.225.1.109-.124-.088-.048-.068,0,0,.036.054.075.106.111.16a5.354,5.354,0,0,1,.318.55c.022.044.042.089.065.132.042.082.1.1,0,0s-.034-.091,0,0c.022.062.046.123.068.185a5.778,5.778,0,0,1,.177.617c.022.1.04.194.059.291.067.344-.01-.214.006.042.014.214.029.425.026.639q0,.147-.013.294c0,.049-.009.1-.012.146-.016.235-.016-.086.017-.108a2.769,2.769,0,0,0-.136.617c-.027.093-.059.184-.089.277-.1.322.1-.175-.013.045a5.485,5.485,0,0,1-.306.55c-.049.074-.233.242-.082.125s-.086.091-.139.148q-.1.108-.213.209a1.707,1.707,0,0,1-.149.129c-.01,0,.251-.174.11-.084-.178.114-.347.235-.535.334-.022.012-.262.123-.261.127-.01-.04.309-.112.09-.042-.046.015-.091.033-.137.048a4.9,4.9,0,0,1-.609.162c-.047.009-.1.014-.144.026-.155.04.148-.024.157-.018a1.309,1.309,0,0,0-.341.03,5.573,5.573,0,0,1-.639,0l-.148-.011c-.114-.007-.2-.089-.046,0,.117.069.108.019,0,0l-.146-.026a5.812,5.812,0,0,1-.624-.153c-.11-.034-.218-.073-.327-.111a.869.869,0,0,1-.138-.053c0-.012.281.134.132.054-.187-.1-.381-.186-.564-.3-.1-.059-.191-.123-.286-.186a.924.924,0,0,1-.119-.085c0-.013.233.2.112.085-.152-.145-.315-.275-.459-.43-.033-.035-.064-.072-.1-.108l-.032-.036q-.122-.149,0,0c.079.023.076.111,0,0-.027-.04-.055-.08-.082-.12a3.134,3.134,0,0,1-.31-.554c.007-.006.13.361.036.084-.018-.052-.038-.1-.055-.156q-.052-.156-.091-.315c-.026-.105-.039-.214-.065-.319-.044-.177.026.139.018.132-.025-.025-.014-.178-.016-.215-.012-.235.015-.464.019-.7,0-.181-.015.141-.019.132a.508.508,0,0,1,.028-.159c.027-.123.052-.247.086-.369q.057-.21.131-.414c.019-.051.041-.1.058-.153.063-.188-.125.227-.021.058.143-.234.249-.487.4-.717.036-.055.254-.359.138-.206s.119-.137.163-.187c.184-.2.4-.373.591-.569.113-.116-.079.057-.09.065.059-.042.117-.086.176-.127q.156-.108.32-.2c.123-.072.262-.126.381-.2.141-.09-.108.04-.112.042a1.117,1.117,0,0,1,.2-.077c.116-.041.621-.259.727-.191,0,0-.384.03-.077.011.072,0,.144-.012.217-.015.147-.006.293,0,.439.005a1.51,1.51,0,0,0,1.5-1.5,1.533,1.533,0,0,0-1.5-1.5Z" transform="translate(-131.934 -197.352)" fill="#e6e6e6"/>
    <path id="Path_5946" data-name="Path 5946" d="M197.972,228.141a6.636,6.636,0,0,0-6.133,4.006,5.974,5.974,0,0,0,1.375,7.1,7.1,7.1,0,0,0,6.729,1.367,6,6,0,0,0,4.023-5.643,6.707,6.707,0,0,0-4.179-6.469,1.506,1.506,0,0,0-1.845,1.048,1.543,1.543,0,0,0,1.048,1.845c.261.1-.239-.128.005,0,.1.055.2.1.3.162s.164.1.245.157c.28.183-.137-.134.042.03.155.142.309.281.45.439.053.059.262.225.1.109-.124-.088-.048-.068,0,0,.036.054.075.106.111.16a5.351,5.351,0,0,1,.318.55c.022.044.042.089.065.132.042.082.1.1,0,0s-.034-.091,0,0c.022.062.046.123.068.185a5.778,5.778,0,0,1,.177.617c.022.1.04.194.059.291.067.344-.01-.214.006.042.014.214.029.425.026.639q0,.147-.013.294c0,.049-.009.1-.012.146-.016.235-.016-.086.017-.108a2.769,2.769,0,0,0-.136.617c-.027.093-.059.184-.089.277-.1.322.1-.175-.013.045a5.485,5.485,0,0,1-.306.55c-.049.074-.233.242-.082.125s-.086.091-.139.148q-.1.108-.213.209a1.707,1.707,0,0,1-.149.129c-.01,0,.251-.174.11-.084-.178.114-.347.235-.535.334-.022.012-.262.123-.261.127-.01-.04.309-.112.09-.042-.046.015-.091.033-.137.048a4.9,4.9,0,0,1-.609.162c-.047.009-.1.014-.144.026-.155.04.148-.024.157-.018a1.309,1.309,0,0,0-.341.03,5.573,5.573,0,0,1-.639,0l-.148-.011c-.114-.007-.2-.089-.046,0,.117.069.108.019,0,0l-.146-.026a5.812,5.812,0,0,1-.624-.153c-.11-.034-.218-.073-.327-.111a.869.869,0,0,1-.138-.053c0-.012.281.134.132.054-.187-.1-.381-.186-.564-.3-.1-.059-.191-.123-.286-.186a.924.924,0,0,1-.119-.085c0-.013.233.2.112.085-.152-.145-.315-.275-.459-.43-.033-.035-.064-.072-.1-.108l-.032-.036q-.122-.149,0,0c.079.023.076.111,0,0-.027-.04-.055-.08-.082-.12a3.134,3.134,0,0,1-.31-.554c.007-.006.13.361.036.084-.018-.052-.038-.1-.055-.156q-.052-.156-.091-.315c-.026-.105-.039-.214-.065-.319-.044-.177.026.139.018.132-.025-.025-.014-.178-.016-.215-.012-.235.015-.464.019-.7,0-.181-.015.141-.019.132a.508.508,0,0,1,.028-.159c.027-.123.052-.247.086-.369q.057-.21.131-.414c.019-.051.041-.1.058-.153.063-.188-.125.227-.021.058.143-.234.249-.487.4-.717.036-.055.254-.359.138-.206s.119-.137.163-.187c.184-.2.4-.373.591-.569.113-.116-.079.057-.09.065.059-.042.117-.086.176-.127q.156-.108.32-.2c.123-.072.262-.126.381-.2.141-.09-.108.04-.112.042a1.116,1.116,0,0,1,.2-.077c.116-.041.621-.259.727-.191,0,0-.384.03-.077.011.072,0,.144-.012.217-.015.147-.006.293,0,.439.005a1.51,1.51,0,0,0,1.5-1.5,1.533,1.533,0,0,0-1.5-1.5Z" transform="translate(-131.934 -197.352)" fill="#e6e6e6"/>
    <path id="Path_5947" data-name="Path 5947" d="M218.972,228.141a6.636,6.636,0,0,0-6.133,4.006,5.974,5.974,0,0,0,1.375,7.1,7.1,7.1,0,0,0,6.729,1.367,6,6,0,0,0,4.023-5.643,6.707,6.707,0,0,0-4.179-6.469,1.506,1.506,0,0,0-1.845,1.048,1.543,1.543,0,0,0,1.048,1.845c.261.1-.239-.128.005,0,.1.055.2.1.3.162s.164.1.245.157c.28.183-.137-.134.042.03.155.142.309.281.45.439.053.059.262.225.1.109-.124-.088-.048-.068,0,0,.036.054.075.106.111.16a5.341,5.341,0,0,1,.318.55c.022.044.042.089.065.132.042.082.1.1,0,0s-.034-.091,0,0c.022.062.046.123.068.185a5.778,5.778,0,0,1,.177.617c.022.1.04.194.059.291.067.344-.01-.214.006.042.014.214.029.425.026.639q0,.147-.013.294c0,.049-.009.1-.012.146-.016.235-.016-.086.017-.108a2.769,2.769,0,0,0-.136.617c-.027.093-.059.184-.089.277-.1.322.1-.175-.013.045a5.485,5.485,0,0,1-.306.55c-.049.074-.233.242-.082.125s-.086.091-.139.148q-.1.108-.213.209a1.707,1.707,0,0,1-.149.129c-.01,0,.251-.174.11-.084-.178.114-.347.235-.535.334-.022.012-.262.123-.261.127-.01-.04.309-.112.09-.042-.046.015-.091.033-.137.048a4.9,4.9,0,0,1-.609.162c-.047.009-.1.014-.144.026-.155.04.148-.024.157-.018a1.309,1.309,0,0,0-.341.03,5.573,5.573,0,0,1-.639,0l-.148-.011c-.114-.007-.2-.089-.046,0,.117.069.108.019,0,0l-.146-.026a5.811,5.811,0,0,1-.624-.153c-.11-.034-.218-.073-.327-.111a.869.869,0,0,1-.138-.053c0-.012.281.134.132.054-.187-.1-.381-.186-.564-.3-.1-.059-.191-.123-.286-.186a.924.924,0,0,1-.119-.085c0-.013.233.2.112.085-.152-.145-.315-.275-.459-.43-.033-.035-.064-.072-.1-.108l-.032-.036q-.122-.149,0,0c.079.023.076.111,0,0-.027-.04-.055-.08-.082-.12a3.132,3.132,0,0,1-.31-.554c.007-.006.13.361.036.084-.018-.052-.038-.1-.055-.156q-.052-.156-.091-.315c-.026-.105-.039-.214-.065-.319-.044-.177.026.139.018.132-.025-.025-.014-.178-.016-.215-.012-.235.015-.464.019-.7,0-.181-.015.141-.019.132a.508.508,0,0,1,.028-.159c.027-.123.052-.247.086-.369q.057-.21.131-.414c.019-.051.041-.1.058-.153.063-.188-.125.227-.021.058.143-.234.249-.487.4-.717.036-.055.254-.359.138-.206s.119-.137.163-.187c.184-.2.4-.373.591-.569.113-.116-.079.057-.09.065.059-.042.117-.086.176-.127q.156-.108.32-.2c.123-.072.262-.126.381-.2.141-.09-.108.04-.112.042a1.117,1.117,0,0,1,.2-.077c.116-.041.621-.259.727-.191,0,0-.384.03-.077.011.072,0,.144-.012.217-.015.147-.006.293,0,.439.005a1.51,1.51,0,0,0,1.5-1.5,1.533,1.533,0,0,0-1.5-1.5Z" transform="translate(-131.934 -197.352)" fill="#e6e6e6"/>
    <path id="Path_5948" data-name="Path 5948" d="M522.346,560.352H154.44a17.567,17.567,0,0,1-17.547-17.547V214.9a17.567,17.567,0,0,1,17.547-17.547H522.346A17.567,17.567,0,0,1,539.893,214.9V542.8A17.567,17.567,0,0,1,522.346,560.352Zm-367.9-361A15.565,15.565,0,0,0,138.894,214.9V542.8a15.565,15.565,0,0,0,15.547,15.547H522.346A15.565,15.565,0,0,0,537.893,542.8V214.9a15.565,15.565,0,0,0-15.547-15.547Z" transform="translate(-131.934 -197.352)" fill="#e6e6e6"/>
    <path id="Path_5949" data-name="Path 5949" d="M153.831,420.458l129.379-.394,128.719-.392,72.611-.221a1.5,1.5,0,0,0,0-3l-129.379.393-128.719.392-72.611.221a1.5,1.5,0,0,0,0,3Z" transform="translate(-131.934 -197.352)" fill="#e6e6e6"/>
    <path id="Path_5950" data-name="Path 5950" d="M219.1,418.026l.8-47.237c.033-1.931-2.967-1.932-3,0l-.8,47.237C216.067,419.957,219.067,419.958,219.1,418.026Z" transform="translate(-131.934 -197.352)" fill="#e6e6e6"/>
    <path id="Path_5951" data-name="Path 5951" d="M280.936,418.537l1.95-59.375.557-16.964c.063-1.931-2.937-1.929-3,0l-1.95,59.375-.557,16.964C277.873,420.468,280.873,420.466,280.936,418.537Z" transform="translate(-131.934 -197.352)" fill="#e6e6e6"/>
    <path id="Path_5952" data-name="Path 5952" d="M342.6,314.053c-1.176,21.03-3.352,83.06-4.528,104.09-.108,1.929,2.892,1.923,3,0,1.176-21.03,3.352-83.06,4.528-104.09C345.712,312.124,342.712,312.13,342.6,314.053Z" transform="translate(-131.934 -197.352)" fill="#e6e6e6"/>
    <path id="Path_5953" data-name="Path 5953" d="M403.976,397.041l-.368,20.213c-.035,1.931,2.965,1.931,3,0,.434-23.873,1.548-23.1,1.671-29.833.035-1.931-2.965-1.931-3,0C405.279,387.422,404.41,373.168,403.976,397.041Z" transform="translate(-131.934 -197.352)" fill="#e6e6e6"/>
    <path id="Path_5954" data-name="Path 5954" d="M464.088,343.941l.339,56.709.1,16.238a1.5,1.5,0,0,0,3,0l-.339-56.709-.1-16.238a1.5,1.5,0,0,0-3,0Z" transform="translate(-131.934 -197.352)" fill="#e6e6e6"/>
    <path id="Path_5955" data-name="Path 5955" d="M154.072,418.77c-2.483-6.824,3.115-13.387,8.866-16.336,6.891-3.533,14.818-4.334,21.782-7.74,10.382-5.078,17.944-14.191,24.673-23.314,6.926-9.389,13.263-19.466,22.063-27.268a44.194,44.194,0,0,1,16.069-9.3c7.5-2.341,15.459-2.5,23.211-1.558,16.019,1.95,30.868,8.566,46.324,12.771,14.572,3.965,30.628,6.194,44.931.029,7.267-3.132,13.209-8.386,19.592-12.932a65.3,65.3,0,0,1,20.408-9.845c14.358-3.993,30.038-2.926,43.405,3.823a58.243,58.243,0,0,1,27.47,28.992c6.337,15.138,5.512,32.056,3.442,47.99-.535,4.119-1.172,8.224-1.816,12.327-.3,1.889,2.594,2.7,2.893.8,2.578-16.431,5.148-33.382,1.94-49.916a60.456,60.456,0,0,0-22.331-36.376A62.044,62.044,0,0,0,416.084,318a67.079,67.079,0,0,0-22.474,5c-7.419,3.069-13.7,7.618-20.084,12.4-6.561,4.921-13.325,8.991-21.471,10.6-7.9,1.557-16.121.973-23.988-.5-16.232-3.033-31.363-9.985-47.457-13.547-14.912-3.3-31-3.63-44.355,4.794-10.271,6.48-17.529,16.54-24.495,26.254-6.9,9.629-13.9,19.925-23.992,26.5-6.159,4.012-13.082,5.493-19.971,7.749-6.907,2.262-13.538,6.079-16.355,13.155a12.794,12.794,0,0,0-.262,9.154c.655,1.8,3.555,1.023,2.893-.8Z" transform="translate(-131.934 -197.352)" fill="#e6e6e6"/>
    <path id="Path_5956" data-name="Path 5956" d="M86.171,166.9l0,0,.008,0Z" fill="#e6e6e6"/>
    <path id="Path_5957" data-name="Path 5957" d="M223.307,361.5a5.962,5.962,0,0,0-7.223-2.673,5.247,5.247,0,0,0-2.989,2.783c-.057.136-.091.279-.138.419-.065.105-.143.2-.2.31a5.958,5.958,0,0,0,9.291,7.118,6.416,6.416,0,0,0,1.261-7.956Zm-3.757,2.548C219.562,364.121,219.558,364.191,219.55,364.046Zm-.382-.868Zm-1.683.677C217.462,363.819,217.46,363.814,217.484,363.854Zm.4.338C217.979,364.225,217.941,364.218,217.883,364.192Zm.178.085.039-.018a.05.05,0,0,1-.028-.006h0l.031,0,.006,0-.018,0c.016,0,.017,0,.018,0,.178-.082.058-.042-.046-.01l-.007,0a.681.681,0,0,0-.206-.066c-.007,0-.014-.006-.02-.01-.057-.041-.348-.268-.078-.03-.059-.052-.117-.1-.172-.158a.781.781,0,0,1-.088-.108q-.053-.091-.1-.183l-.005-.033c0-.028-.008-.039-.011-.056s0-.036.007-.053a.648.648,0,0,0,.038-.168l.012-.015c.043-.06.081-.13.122-.193-.217.33.085-.036.108-.083,0-.008,0,0,0-.009s.006,0,.017-.008c.067-.04.131-.084.2-.122s.4-.136.07-.041c.076-.022.148-.049.225-.069.014,0,.126-.019.186-.03l.11,0c.025,0,.05,0,.075,0-.055.007.19.06.262.071l.03.024c.061.045.136.085.2.127-.29-.187,0,.015.059.07.033.033.064.068.095.1a.809.809,0,0,1,.077.106c.048.087.1.175.148.261l.014.022a.079.079,0,0,0,0,.008,2.37,2.37,0,0,0,.115.408.33.33,0,0,1,.006.034c0,.076.011.152.011.229v.016a1.643,1.643,0,0,0-1.5-.011Z" transform="translate(-131.934 -197.352)" fill="#e6e6e6"/>
    <path id="Path_5958" data-name="Path 5958" d="M218.115,364.255s0,0,0,0Z" transform="translate(-131.934 -197.352)" fill="#e6e6e6"/>
    <path id="Path_5959" data-name="Path 5959" d="M218.113,364.255h0Z" transform="translate(-131.934 -197.352)" fill="#e6e6e6"/>
    <path id="Path_5960" data-name="Path 5960" d="M218.114,364.257h0C218.115,364.258,218.113,364.257,218.114,364.257Z" transform="translate(-131.934 -197.352)" fill="#e6e6e6"/>
    <path id="Path_5961" data-name="Path 5961" d="M86.177,166.9Z" fill="#e6e6e6"/>
    <path id="Path_5962" data-name="Path 5962" d="M150.171,138.9l0,0,.008,0Z" fill="#e6e6e6"/>
    <path id="Path_5963" data-name="Path 5963" d="M287.307,333.5a5.962,5.962,0,0,0-7.223-2.673,5.247,5.247,0,0,0-2.989,2.783c-.057.136-.091.279-.138.419-.065.105-.143.2-.2.31a5.958,5.958,0,0,0,9.291,7.118A6.416,6.416,0,0,0,287.307,333.5Zm-3.757,2.548C283.562,336.121,283.558,336.191,283.55,336.046Zm-.382-.868Zm-1.683.677C281.462,335.819,281.46,335.814,281.484,335.854Zm.4.338C281.978,336.225,281.941,336.218,281.883,336.192Zm.178.085.039-.018a.05.05,0,0,1-.028-.006h0l.031,0,.006,0-.018,0c.016,0,.017,0,.018,0,.178-.082.058-.042-.046-.01l-.007,0a.682.682,0,0,0-.206-.066c-.007,0-.014-.006-.02-.01-.057-.041-.348-.268-.078-.03-.059-.052-.117-.1-.172-.158a.784.784,0,0,1-.088-.108q-.053-.091-.1-.183l-.005-.033c0-.028-.008-.039-.011-.056s0-.036.007-.053a.647.647,0,0,0,.038-.168l.012-.015c.043-.06.081-.13.122-.193-.217.33.085-.036.108-.083,0-.008,0,0,0-.009s.006,0,.017-.008c.067-.04.131-.084.2-.122s.4-.136.07-.041c.076-.022.148-.049.225-.069.014,0,.126-.019.186-.03l.11,0c.025,0,.05,0,.075,0-.055.007.19.06.262.071l.03.024c.061.045.136.085.2.127-.29-.187,0,.015.059.07.033.033.064.068.095.1a.806.806,0,0,1,.077.106c.048.087.1.175.148.261l.014.022a.071.071,0,0,0,0,.008,2.373,2.373,0,0,0,.115.408c0,.011,0,.022.006.034,0,.076.011.152.011.229v.016a1.643,1.643,0,0,0-1.5-.011Z" transform="translate(-131.934 -197.352)" fill="#e6e6e6"/>
    <path id="Path_5964" data-name="Path 5964" d="M282.114,336.257h0C282.115,336.258,282.113,336.257,282.114,336.257Z" transform="translate(-131.934 -197.352)" fill="#e6e6e6"/>
    <path id="Path_5965" data-name="Path 5965" d="M150.177,138.9Z" fill="#e6e6e6"/>
    <path id="Path_5966" data-name="Path 5966" d="M282.115,336.255s0,0,0,0Z" transform="translate(-131.934 -197.352)" fill="#e6e6e6"/>
    <path id="Path_5967" data-name="Path 5967" d="M282.113,336.255h0Z" transform="translate(-131.934 -197.352)" fill="#e6e6e6"/>
    <path id="Path_5968" data-name="Path 5968" d="M212.177,152.9Z" fill="#e6e6e6"/>
    <path id="Path_5969" data-name="Path 5969" d="M349.307,305.5a5.962,5.962,0,0,0-7.223-2.673,5.247,5.247,0,0,0-2.989,2.783c-.057.136-.091.279-.138.419-.065.105-.143.2-.2.31a5.958,5.958,0,0,0,9.291,7.118A6.416,6.416,0,0,0,349.307,305.5Zm-3.757,2.548C345.562,308.121,345.558,308.191,345.55,308.046Zm-.382-.868Zm-1.683.677C343.462,307.819,343.46,307.814,343.484,307.854Zm.4.338C343.978,308.225,343.941,308.218,343.883,308.192Zm.178.085.039-.018a.05.05,0,0,1-.028-.006h0l.031,0,.006,0-.018,0c.016,0,.017,0,.018,0,.178-.082.058-.042-.046-.01l-.007,0a.681.681,0,0,0-.206-.066c-.007,0-.014-.006-.02-.01-.057-.041-.348-.268-.078-.03-.059-.052-.117-.1-.172-.158a.784.784,0,0,1-.088-.108q-.053-.091-.1-.183l-.005-.033c0-.028-.008-.039-.011-.056s0-.036.007-.053a.649.649,0,0,0,.038-.168l.012-.015c.043-.06.081-.13.122-.193-.217.33.085-.036.108-.083,0-.008,0,0,0-.009s.006,0,.017-.008c.067-.04.131-.084.2-.122s.4-.136.07-.041c.076-.022.148-.049.225-.069.014,0,.126-.019.186-.03l.11,0c.025,0,.05,0,.075,0-.055.007.19.06.262.071l.03.024c.061.045.136.085.2.127-.29-.187,0,.015.059.07.033.033.064.068.095.1a.81.81,0,0,1,.077.106c.048.087.1.175.148.261l.014.022a.072.072,0,0,0,0,.008,2.369,2.369,0,0,0,.115.408.336.336,0,0,1,.006.034c0,.076.011.152.011.229v.016a1.643,1.643,0,0,0-1.5-.011Z" transform="translate(-131.934 -197.352)" fill="#e6e6e6"/>
    <path id="Path_5970" data-name="Path 5970" d="M212.171,152.9l0,0,.008,0Z" fill="#e6e6e6"/>
    <path id="Path_5971" data-name="Path 5971" d="M344.113,350.255h0Z" transform="translate(-131.934 -197.352)" fill="#e6e6e6"/>
    <path id="Path_5972" data-name="Path 5972" d="M344.114,350.257h0C344.115,350.258,344.113,350.257,344.114,350.257Z" transform="translate(-131.934 -197.352)" fill="#e6e6e6"/>
    <path id="Path_5973" data-name="Path 5973" d="M344.115,350.255s0,0,0,0Z" transform="translate(-131.934 -197.352)" fill="#e6e6e6"/>
    <path id="Path_5974" data-name="Path 5974" d="M412.307,382.5a5.962,5.962,0,0,0-7.223-2.673,5.247,5.247,0,0,0-2.989,2.783c-.057.136-.091.279-.138.419-.065.105-.143.2-.2.31a5.958,5.958,0,0,0,9.291,7.118,6.416,6.416,0,0,0,1.261-7.956Zm-3.757,2.548C408.562,385.121,408.558,385.191,408.55,385.046Zm-.382-.868Zm-1.683.677C406.462,384.819,406.46,384.814,406.484,384.854Zm.4.338C406.978,385.225,406.941,385.218,406.883,385.192Zm.178.085.039-.018a.05.05,0,0,1-.028-.006h0l.031,0,.006,0-.018,0c.016,0,.017,0,.018,0,.178-.082.058-.042-.046-.01l-.007,0a.681.681,0,0,0-.206-.066c-.007,0-.014-.006-.02-.01-.057-.041-.348-.268-.078-.03-.059-.052-.117-.1-.172-.158a.786.786,0,0,1-.088-.108q-.053-.091-.1-.183l-.005-.033c0-.028-.008-.039-.011-.056s0-.036.007-.053a.646.646,0,0,0,.038-.168l.012-.015c.043-.06.081-.13.122-.193-.217.33.085-.036.108-.083,0-.008,0,0,0-.009s.006,0,.017-.008c.067-.04.131-.084.2-.122s.4-.136.07-.041c.076-.022.148-.049.225-.069.014,0,.126-.019.186-.03l.11,0c.025,0,.05,0,.075,0-.055.007.19.06.262.071l.03.024c.061.045.136.085.2.127-.29-.187,0,.015.059.07.033.033.064.068.095.1a.809.809,0,0,1,.077.106c.048.087.1.175.148.261l.014.022a.071.071,0,0,0,0,.008,2.37,2.37,0,0,0,.115.408.334.334,0,0,1,.006.034c0,.076.011.152.011.229v.016a1.643,1.643,0,0,0-1.5-.011Z" transform="translate(-131.934 -197.352)" fill="#e6e6e6"/>
    <path id="Path_5975" data-name="Path 5975" d="M275.171,121.9l0,0,.008,0Z" fill="#e6e6e6"/>
    <path id="Path_5976" data-name="Path 5976" d="M407.113,319.255h0Z" transform="translate(-131.934 -197.352)" fill="#e6e6e6"/>
    <path id="Path_5977" data-name="Path 5977" d="M407.114,319.257h0C407.115,319.258,407.113,319.257,407.114,319.257Z" transform="translate(-131.934 -197.352)" fill="#e6e6e6"/>
    <path id="Path_5978" data-name="Path 5978" d="M407.115,319.255s0,0,0,0Z" transform="translate(-131.934 -197.352)" fill="#e6e6e6"/>
    <path id="Path_5979" data-name="Path 5979" d="M275.177,121.9Z" fill="#e6e6e6"/>
    <path id="Path_5980" data-name="Path 5980" d="M466.113,339.255h0Z" transform="translate(-131.934 -197.352)" fill="#e6e6e6"/>
    <path id="Path_5981" data-name="Path 5981" d="M471.307,336.5a5.962,5.962,0,0,0-7.223-2.673,5.247,5.247,0,0,0-2.989,2.783c-.057.136-.091.279-.138.419-.065.105-.143.2-.2.31a5.958,5.958,0,0,0,9.291,7.118,6.416,6.416,0,0,0,1.261-7.956Zm-3.757,2.548C467.562,339.121,467.558,339.191,467.55,339.046Zm-.382-.868Zm-1.683.677C465.462,338.819,465.46,338.814,465.484,338.854Zm.4.338C465.978,339.225,465.941,339.218,465.883,339.192Zm.178.085.039-.018a.05.05,0,0,1-.028-.006h0l.031,0,.006,0-.018,0c.016,0,.017,0,.018,0,.178-.082.058-.042-.046-.01l-.007,0a.682.682,0,0,0-.206-.066c-.007,0-.014-.006-.02-.01-.057-.041-.348-.268-.078-.03-.059-.052-.117-.1-.172-.158a.781.781,0,0,1-.088-.108q-.053-.091-.1-.183l-.005-.033c0-.028-.008-.039-.011-.056s0-.036.007-.053a.65.65,0,0,0,.038-.168l.012-.015c.043-.06.081-.13.122-.193-.217.33.085-.036.108-.083,0-.008,0,0,0-.009s.006,0,.017-.008c.067-.04.131-.084.2-.122s.4-.136.07-.041c.076-.022.148-.049.225-.069.014,0,.126-.019.186-.03l.11,0c.025,0,.05,0,.075,0-.055.007.19.06.262.071l.03.024c.061.045.136.085.2.127-.29-.187,0,.015.059.07.033.033.064.068.095.1a.807.807,0,0,1,.077.106c.048.087.1.175.148.261l.014.022a.079.079,0,0,0,0,.008,2.369,2.369,0,0,0,.115.408c0,.011,0,.022.006.034,0,.076.011.152.011.229v.016a1.643,1.643,0,0,0-1.5-.011Z" transform="translate(-131.934 -197.352)" fill="#e6e6e6"/>
    <path id="Path_5982" data-name="Path 5982" d="M334.171,141.9l0,0,.008,0Z" fill="#e6e6e6"/>
    <path id="Path_5983" data-name="Path 5983" d="M334.177,141.9Z" fill="#e6e6e6"/>
    <path id="Path_5984" data-name="Path 5984" d="M466.115,339.255s0,0,0,0Z" transform="translate(-131.934 -197.352)" fill="#e6e6e6"/>
    <path id="Path_5985" data-name="Path 5985" d="M466.114,339.257h0C466.115,339.258,466.113,339.257,466.114,339.257Z" transform="translate(-131.934 -197.352)" fill="#e6e6e6"/>
    <path id="Path_5986" data-name="Path 5986" d="M449.938,385.085l-46.5,2.584a1.025,1.025,0,0,1-.222-2.035l47.525-7.733Z" transform="translate(-131.934 -197.352)" fill="#3f3d56"/>
    <path id="Path_5987" data-name="Path 5987" d="M509.028,488.6l17.522-29.478,12.951,6.117s-22.315,27.872-23.026,28.673a6.857,6.857,0,1,1-7.446-5.312Z" transform="translate(-131.934 -197.352)" fill="#ffb6b6"/>
    <path id="Path_5988" data-name="Path 5988" d="M516.317,420.126,544.7,434.937a15.716,15.716,0,0,1,2.66,23.079l-19.57,22.449-8.526-11.553,6.571-13.74-12.724-3.355Z" transform="translate(-131.934 -197.352)" fill="#06bbe3"/>
    <path id="Path_5989" data-name="Path 5989" d="M435.42,385.567l-3.2,34.143-14.322.024s8.217-34.746,8.516-35.775a6.857,6.857,0,1,1,9,1.608Z" transform="translate(-131.934 -197.352)" fill="#ffb6b6"/>
    <path id="Path_5990" data-name="Path 5990" d="M463.929,455.389l-32.965-6.045c-13.881-1.669-19.578-10.8-17.073-19.712l8.061-28.67,12.654,6.784-.049,15.23,17.713-2.422Z" transform="translate(-131.934 -197.352)" fill="#06bbe3"/>
    <path id="Path_5991" data-name="Path 5991" d="M318.5,493.992h-9.064l-4.312-34.962H318.5Z" fill="#ffb6b6"/>
    <path id="Path_5992" data-name="Path 5992" d="M450.755,700.8H422.882v-.352A10.85,10.85,0,0,1,433.73,689.6h0l5.091-3.863,9.5,3.863h2.433Z" transform="translate(-131.934 -197.352)" fill="#2f2e41"/>
    <path id="Path_5993" data-name="Path 5993" d="M382.636,493.992H391.7l4.312-34.962H382.634Z" fill="#ffb6b6"/>
    <path id="Path_5994" data-name="Path 5994" d="M514.251,700.8h27.873v-.352A10.849,10.849,0,0,0,531.276,689.6h0l-5.091-3.863-9.5,3.863H514.25Z" transform="translate(-131.934 -197.352)" fill="#2f2e41"/>
    <path id="Path_5995" data-name="Path 5995" d="M436.661,630.69c.134-1.995,1.2-13.028,1.2-13.028l2.549-23.4,4.493-62.022,4.005-16.3,19.826,7.723,16.087-7.712,19.121,6.112,14.889,5.583s.025,2.39.14,5.277c.153,3.78.421,8.413,1.058,9.618,1.064,2.129.8,13.557.8,13.557s1.058,23.251,2.39,25.8,1.6,7.859,1.2,8.923,1.332,28.987,1.332,28.987,4.449,49.413,1.658,56.864-13.341,2.57-13.341,2.57.51-1.989-2.549-2.926-12.378-71-12.378-71-1.734-14.366-3.327-18.484-3.059-15.685-3.059-15.685-9.841-19.146-9.968-23.4c0,0-1.287-3.984-2.5.4s-4.806,14.889-4.806,14.889l-3.5,12.9-4.118,19.274-2.664,16.227s-3.99,21.536-4.627,22.467,0,20.606,0,20.606-3.085,16.756-7.444,19.682-15.91.046-15.91.046S436.527,632.685,436.661,630.69Z" transform="translate(-131.934 -197.352)" fill="#2f2e41"/>
    <path id="Path_5996" data-name="Path 5996" d="M451.481,463.484,448.948,496.3l-3.806,3.939a3.67,3.67,0,0,0,.192,5.286h0l-2.1,3.6-.742,11.33a6.158,6.158,0,0,0,5.7,7.59l65.632,3.083a6.158,6.158,0,0,0,6.394-6.962l-5.581-42.014v-3.141l-2.5-6.067,1.284-20.324,2.987-32.259-17.362-4.485-9.414-6.477-16.355.26-9.924,8.15-13.231,2.072-10.007,1.989-1.275,2.77,2.549-.554,9.241,36.041Z" transform="translate(-131.934 -197.352)" fill="#06bbe3"/>
    <circle id="Ellipse_75" data-name="Ellipse 75" cx="19.266" cy="19.266" r="19.266" transform="translate(329.892 169.116)" fill="#ffb6b6"/>
    <path id="Path_5997" data-name="Path 5997" d="M476.447,403.757l13.92-.71c1.784-.091,3.73-.249,5.028-1.476a7.616,7.616,0,0,0,1.578-2.621c1.287-2.989,2.574-5.978,3.828-8.982,1.735-4.154,3.438-8.54,3-13.02a8.285,8.285,0,0,0-2.408-5.431,4.6,4.6,0,0,0-5.59-.566,9.452,9.452,0,0,0-4.692-6.812,14.486,14.486,0,0,0-8.262-1.752,19.941,19.941,0,0,0-11.356,4.476,24.652,24.652,0,0,1-2.9,2.3,4.548,4.548,0,0,1-3.536.654,2.559,2.559,0,0,1-1.878-2.789,4.923,4.923,0,0,0-1.259,6.5,4.543,4.543,0,0,1-4.44-.525,5.428,5.428,0,1,0,5.693,9.188c.845,1.183.53,2.791.42,4.241s.279,3.251,1.676,3.652c1.889.542,3.42-2,5.385-1.975a2.955,2.955,0,0,1,2.344,1.51,8.725,8.725,0,0,1,.938,2.739l2.515,11.324" transform="translate(-131.934 -197.352)" fill="#2f2e41"/>
    <path id="Path_5998" data-name="Path 5998" d="M1019.19,576.989c0-2.983-1-5.4-2.232-5.41H681.615c-1.236.006-2.232,2.427-2.238,5.41V699.8a1.115,1.115,0,0,1-1.007,1.11q-1.35.13-2.7.241c-.022,0-.045.006-.067.006-.49.044-.98.078-1.469.117h-.006q-.378-.7-.747-1.41a1.119,1.119,0,0,1-.127-.517V569.97c0-.824.033-1.653.089-2.471a31.663,31.663,0,0,1,.417-3.351c.941-5.171,3.067-8.672,5.483-8.683h340.081a2.606,2.606,0,0,1,1.024.217,3.992,3.992,0,0,1,1.264.885,7.832,7.832,0,0,1,1.241,1.7,22.344,22.344,0,0,1,2.343,8.867c0,.033.006.067.006.1.078.9.117,1.82.111,2.738l.078,11.928.05,7.113.15,22.32.056,7.926.245,81.375h0a1.113,1.113,0,0,1-1.113,1.113H1020.3a1.113,1.113,0,0,1-1.113-1.113Z" transform="translate(-131.934 -197.352)" fill="#e6e6e6"/>
    <path id="Path_5999" data-name="Path 5999" d="M928.068,499.652H891.934a1.928,1.928,0,0,0-1.925,1.93v57.081H930V501.582a1.929,1.929,0,0,0-1.93-1.93Zm-17.946,32.433a4.287,4.287,0,0,1-4.267-4.267v-6.584a4.267,4.267,0,0,1,8.534,0v6.584A4.287,4.287,0,0,1,910.122,532.085Z" transform="translate(-131.934 -197.352)" fill="#ccc"/>
    <path id="Path_6000" data-name="Path 6000" d="M889.884,556.837v5.507a1.079,1.079,0,0,0,1.077,1.077h38.084a1.082,1.082,0,0,0,1.077-1.077v-5.507Z" transform="translate(-131.934 -197.352)" fill="#3f3d56"/>
    <path id="Path_6001" data-name="Path 6001" d="M987.9,410.571H833.443a5.014,5.014,0,0,0-5.006,5.006V519.806a5.011,5.011,0,0,0,5.006,5.006H987.9a5.011,5.011,0,0,0,5.006-5.006V415.577a5.014,5.014,0,0,0-5.006-5.006Z" transform="translate(-131.934 -197.352)" fill="#e6e6e6"/>
    <path id="Path_6002" data-name="Path 6002" d="M986.613,414.186H834.734a2.683,2.683,0,0,0-2.677,2.683V518.515a2.682,2.682,0,0,0,2.677,2.677H986.613a2.682,2.682,0,0,0,2.677-2.677V416.869a2.683,2.683,0,0,0-2.677-2.683Z" transform="translate(-131.934 -197.352)" fill="#fff"/>
    <path id="Path_6003" data-name="Path 6003" d="M957.029,565.337H866.67a1.662,1.662,0,0,1-1.627-2l1.4-6.659a1.669,1.669,0,0,1,1.626-1.32h87.556a1.669,1.669,0,0,1,1.626,1.32l1.4,6.659a1.662,1.662,0,0,1-1.627,2Z" transform="translate(-131.934 -197.352)" fill="#ccc"/>
    <rect id="Rectangle_1847" data-name="Rectangle 1847" width="2.783" height="1.67" rx="0.488" transform="translate(736.779 359.201)" fill="#e6e6e6"/>
    <rect id="Rectangle_1848" data-name="Rectangle 1848" width="2.783" height="1.67" rx="0.488" transform="translate(742.345 359.201)" fill="#e6e6e6"/>
    <rect id="Rectangle_1849" data-name="Rectangle 1849" width="2.783" height="1.67" rx="0.488" transform="translate(747.911 359.201)" fill="#e6e6e6"/>
    <rect id="Rectangle_1850" data-name="Rectangle 1850" width="2.783" height="1.67" rx="0.488" transform="translate(753.477 359.201)" fill="#e6e6e6"/>
    <rect id="Rectangle_1851" data-name="Rectangle 1851" width="2.783" height="1.67" rx="0.488" transform="translate(759.043 359.201)" fill="#e6e6e6"/>
    <rect id="Rectangle_1852" data-name="Rectangle 1852" width="2.783" height="1.67" rx="0.488" transform="translate(764.609 359.201)" fill="#e6e6e6"/>
    <rect id="Rectangle_1853" data-name="Rectangle 1853" width="2.783" height="1.67" rx="0.488" transform="translate(770.175 359.201)" fill="#e6e6e6"/>
    <rect id="Rectangle_1854" data-name="Rectangle 1854" width="2.783" height="1.67" rx="0.488" transform="translate(775.741 359.201)" fill="#e6e6e6"/>
    <rect id="Rectangle_1855" data-name="Rectangle 1855" width="2.783" height="1.67" rx="0.488" transform="translate(781.307 359.201)" fill="#e6e6e6"/>
    <rect id="Rectangle_1856" data-name="Rectangle 1856" width="2.783" height="1.67" rx="0.488" transform="translate(786.873 359.201)" fill="#e6e6e6"/>
    <rect id="Rectangle_1857" data-name="Rectangle 1857" width="2.783" height="1.67" rx="0.488" transform="translate(792.439 359.201)" fill="#e6e6e6"/>
    <rect id="Rectangle_1858" data-name="Rectangle 1858" width="2.783" height="1.67" rx="0.488" transform="translate(798.005 359.201)" fill="#e6e6e6"/>
    <rect id="Rectangle_1859" data-name="Rectangle 1859" width="2.783" height="1.67" rx="0.488" transform="translate(803.571 359.201)" fill="#e6e6e6"/>
    <rect id="Rectangle_1860" data-name="Rectangle 1860" width="2.783" height="1.67" rx="0.488" transform="translate(809.137 359.201)" fill="#e6e6e6"/>
    <rect id="Rectangle_1861" data-name="Rectangle 1861" width="2.783" height="1.67" rx="0.488" transform="translate(814.703 359.201)" fill="#e6e6e6"/>
    <rect id="Rectangle_1862" data-name="Rectangle 1862" width="2.783" height="1.67" rx="0.488" transform="translate(820.269 359.201)" fill="#e6e6e6"/>
    <rect id="Rectangle_1863" data-name="Rectangle 1863" width="2.783" height="1.67" rx="0.488" transform="translate(736.713 361.984)" fill="#e6e6e6"/>
    <rect id="Rectangle_1864" data-name="Rectangle 1864" width="2.783" height="1.67" rx="0.488" transform="translate(742.279 361.984)" fill="#e6e6e6"/>
    <rect id="Rectangle_1865" data-name="Rectangle 1865" width="2.783" height="1.67" rx="0.488" transform="translate(747.845 361.984)" fill="#e6e6e6"/>
    <rect id="Rectangle_1866" data-name="Rectangle 1866" width="2.783" height="1.67" rx="0.488" transform="translate(753.411 361.984)" fill="#e6e6e6"/>
    <rect id="Rectangle_1867" data-name="Rectangle 1867" width="2.783" height="1.67" rx="0.488" transform="translate(758.977 361.984)" fill="#e6e6e6"/>
    <rect id="Rectangle_1868" data-name="Rectangle 1868" width="2.783" height="1.67" rx="0.488" transform="translate(764.543 361.984)" fill="#e6e6e6"/>
    <rect id="Rectangle_1869" data-name="Rectangle 1869" width="2.783" height="1.67" rx="0.488" transform="translate(770.109 361.984)" fill="#e6e6e6"/>
    <rect id="Rectangle_1870" data-name="Rectangle 1870" width="2.783" height="1.67" rx="0.488" transform="translate(775.675 361.984)" fill="#e6e6e6"/>
    <rect id="Rectangle_1871" data-name="Rectangle 1871" width="2.783" height="1.67" rx="0.488" transform="translate(781.241 361.984)" fill="#e6e6e6"/>
    <rect id="Rectangle_1872" data-name="Rectangle 1872" width="2.783" height="1.67" rx="0.488" transform="translate(786.807 361.984)" fill="#e6e6e6"/>
    <rect id="Rectangle_1873" data-name="Rectangle 1873" width="2.783" height="1.67" rx="0.488" transform="translate(792.373 361.984)" fill="#e6e6e6"/>
    <rect id="Rectangle_1874" data-name="Rectangle 1874" width="2.783" height="1.67" rx="0.488" transform="translate(797.939 361.984)" fill="#e6e6e6"/>
    <rect id="Rectangle_1875" data-name="Rectangle 1875" width="2.783" height="1.67" rx="0.488" transform="translate(803.505 361.984)" fill="#e6e6e6"/>
    <rect id="Rectangle_1876" data-name="Rectangle 1876" width="2.783" height="1.67" rx="0.488" transform="translate(809.071 361.984)" fill="#e6e6e6"/>
    <rect id="Rectangle_1877" data-name="Rectangle 1877" width="2.783" height="1.67" rx="0.488" transform="translate(814.637 361.984)" fill="#e6e6e6"/>
    <rect id="Rectangle_1878" data-name="Rectangle 1878" width="2.783" height="1.67" rx="0.488" transform="translate(820.203 361.984)" fill="#e6e6e6"/>
    <rect id="Rectangle_1879" data-name="Rectangle 1879" width="22.264" height="1.67" rx="0.488" transform="translate(763.43 365.324)" fill="#e6e6e6"/>
    <path id="Path_6004" data-name="Path 6004" d="M978.978,428.191H836.866a.565.565,0,1,1,0-1.13H978.978a.565.565,0,1,1,0,1.13Z" transform="translate(-131.934 -197.352)" fill="#cacaca"/>
    <ellipse id="Ellipse_76" data-name="Ellipse 76" cx="3.312" cy="3.386" rx="3.312" ry="3.386" transform="translate(711.293 220.051)" fill="#ccc"/>
    <ellipse id="Ellipse_77" data-name="Ellipse 77" cx="3.312" cy="3.386" rx="3.312" ry="3.386" transform="translate(722.735 220.051)" fill="#ccc"/>
    <ellipse id="Ellipse_78" data-name="Ellipse 78" cx="3.312" cy="3.386" rx="3.312" ry="3.386" transform="translate(734.176 220.051)" fill="#ccc"/>
    <path id="Path_6005" data-name="Path 6005" d="M972.089,418.243h-8.127a.615.615,0,1,0,0,1.231h8.127a.615.615,0,1,0,0-1.231Z" transform="translate(-131.934 -197.352)" fill="#ccc"/>
    <path id="Path_6006" data-name="Path 6006" d="M972.089,420.553h-8.127a.615.615,0,1,0,0,1.231h8.127a.615.615,0,1,0,0-1.231Z" transform="translate(-131.934 -197.352)" fill="#ccc"/>
    <path id="Path_6007" data-name="Path 6007" d="M972.089,422.86h-8.127a.615.615,0,1,0,0,1.231h8.127a.615.615,0,1,0,0-1.231Z" transform="translate(-131.934 -197.352)" fill="#ccc"/>
    <rect id="Rectangle_1880" data-name="Rectangle 1880" width="22.588" height="4.83" rx="2.415" transform="translate(767.289 261.629)" fill="#06bbe3"/>
    <rect id="Rectangle_1881" data-name="Rectangle 1881" width="45.531" height="4.83" rx="2.415" transform="translate(755.817 271.289)" fill="#e6e6e6"/>
    <rect id="Rectangle_1882" data-name="Rectangle 1882" width="45.531" height="4.83" rx="2.415" transform="translate(755.817 280.949)" fill="#e6e6e6"/>
    <path id="Path_6008" data-name="Path 6008" d="M524.726,431.447l-8.186-3.916,11.245-34.217,12.082,5.778Z" fill="#ffb6b6"/>
    <path id="Path_6009" data-name="Path 6009" d="M711.543,623.282c-.6.373-1.191.74-1.792,1.106-1.2.734-2.405,1.455-3.614,2.165-.607.355-1.221.71-1.828,1.058v.018l-.036.006-.012.006-.926.229-1.329-3.512-.613-1.617-.866-2.291-1.587-4.191-8.358-22.068,12.994-3.205.487,1.99h.006l.24.986,4.54,18.412.926,3.764.03.114.559,2.249.481,1.948.535,2.177Z" transform="translate(-131.934 -197.352)" fill="#ffb6b6"/>
    <path id="Path_6010" data-name="Path 6010" d="M789.059,545.784c-.824,1.323-1.666,2.64-2.513,3.945q-2.363,3.644-4.853,7.18c0,.006-.006.006-.012.012a16.978,16.978,0,0,1-3.187,2.327c-.048.036-.1.06-.15.09a11.746,11.746,0,0,1-2.682,1.076l-1.016.253c-1.215.289-2.417.535-3.614.752q-3.193.568-6.326.818c-.168.018-.337.03-.505.042-8.6.631-16.981-.385-25.724-2.05-4.317-.818-8.725-1.8-13.289-2.814-1.491-.337-2.988-.667-4.5-1-.114-.024-.234-.054-.355-.078-2.165-.475-4.365-.944-6.62-1.407-2.838-.583-5.767-1.148-8.809-1.684l.216,4.287a32.27,32.27,0,0,0,2.032,9.639c1.3,3.8,2.327,6.807.156,13.066l-1.047,3.031a10.35,10.35,0,0,1-1.064,9.158l-.21.319,8.725,22.074.565,1.431h-4.468l-5.5.006H695l-13.439-26.963-.643-1.287v-.066l1.389-51.815c.018-.457.054-.92.114-1.377a15.753,15.753,0,0,1,6-10.607,15.17,15.17,0,0,1,11.3-3.091l4.6.6,9.4,1.215,6.62.86.132.018,19.524,2.526,1.4-5.712.259-.1,8.22-3.013,28.43-10.421.072-.024,1.87-.685.222.361c.066.108.132.216.192.325a55.724,55.724,0,0,1,4.492,10.427,163.674,163.674,0,0,1,4.72,18.021q.081.4.144.722l.018.066c.018.1.03.168.036.186A16.818,16.818,0,0,1,789.059,545.784Z" transform="translate(-131.934 -197.352)" fill="#2f2e41"/>
    <path id="Path_6011" data-name="Path 6011" d="M790.259,526.689c-.09-.385-.2-.776-.325-1.154a82.253,82.253,0,0,0-3.331-8.43c-1.419-3.127-3.121-6.476-5.147-10.1q-1.47-2.634-3.163-5.478-.848-1.425-1.762-2.9a1.522,1.522,0,0,0-.078-.132l-.174-.289-28.129,3.764-10.475,1.4-.625,5.219-.15,1.293c-.006,0-.006,0,0,.006l-.421,3.524v.006l-.559,4.654-.048-.006-15.544-2.014-16.019-2.075-8.6-1.112a15.161,15.161,0,0,0-11.3,3.091,15.761,15.761,0,0,0-6,10.607c-.054.421-.09.854-.108,1.281l-8.118,19.236a124.111,124.111,0,0,0-9.176,36.1l-5.953,19.031.848.078,12.615,1.173,3.331.313,7.336-10.709c.836-1.221,1.63-2.477,2.369-3.764a57.164,57.164,0,0,0,3.241-6.518l15.868-37.762q1.84.316,3.644.6,8.343,1.353,16.019,2.207c16.638,1.858,31.046,2,43.872.427q5.4-.658,10.445-1.732,1.849-.388,3.65-.836c.283-.066.559-.132.836-.2a15.345,15.345,0,0,0,10.733-10.03,15.657,15.657,0,0,0,.4-8.761Z" transform="translate(-131.934 -197.352)" fill="#2f2e41"/>
    <path id="Path_6012" data-name="Path 6012" d="M659.276,623.211l-8.857-4.245-1.389-.667-2.219,5.448-15.49,3.409a3.675,3.675,0,0,0-.6,6.993l15.135,6.175,4.8-4.323-1.179,5.8,5.7,2.327,6.248-19.885Z" transform="translate(-131.934 -197.352)" fill="#2f2e41"/>
    <path id="Path_6013" data-name="Path 6013" d="M581.774,417.469l.566,1.431h-.566Z" fill="#2f2e41"/>
    <path id="Path_6014" data-name="Path 6014" d="M710.624,616.558l-9.281,3.216-1.457.5,2.257,5.432-8.608,13.322a3.675,3.675,0,0,0,4.493,5.392l15.1-6.261.372-6.453,3.245,4.953,5.688-2.357-9.552-18.526Z" transform="translate(-131.934 -197.352)" fill="#2f2e41"/>
    <path id="Path_6015" data-name="Path 6015" d="M654.294,417.6a6.592,6.592,0,0,0,9.857,2.234l19.516,12.956.037-12.172-18.538-10.436a6.627,6.627,0,0,0-10.872,7.419Z" transform="translate(-131.934 -197.352)" fill="#ffb6b6"/>
    <path id="Path_6016" data-name="Path 6016" d="M668.874,423.227l9.105-10.359,37.074,22.009,49.146-4.5a16.619,16.619,0,0,1,18.063,18.081h0a16.637,16.637,0,0,1-18.08,15.016l-55.35-5.123Z" transform="translate(-131.934 -197.352)" fill="#ccc"/>
    <path id="Path_6017" data-name="Path 6017" d="M782.94,423.387l-.085-.107h0A35.907,35.907,0,0,0,748.1,441.286l-4.171,7.347c-13.491,16.493-3.688,27.867-3.1,29.559l-4.683,21.591,1.05,7.226.524,2.147,53.454,27.931c3.043-14.622.1-27.082-10.987-36.6l10.728-33.378a47.02,47.02,0,0,0-7.977-43.721Z" transform="translate(-131.934 -197.352)" fill="#ccc"/>
    <path id="Path_6018" data-name="Path 6018" d="M740.438,585.544H723.292a3.917,3.917,0,0,1-3.875-3.367,87.175,87.175,0,0,1,0-23.479,3.917,3.917,0,0,1,3.81-3.366c5.395-2.418,11.2-2.418,17.271,0a3.872,3.872,0,0,1,2.946,1.421,3.961,3.961,0,0,1,.817,3.3,52.71,52.71,0,0,0,0,20.768,3.961,3.961,0,0,1-.817,3.3,3.871,3.871,0,0,1-3.005,1.421Z" transform="translate(-131.934 -197.352)" fill="#06bbe3"/>
    <path id="Path_6019" data-name="Path 6019" d="M738.642,564.282H724.211a.9.9,0,1,1,0-1.8h14.431a.9.9,0,0,1,0,1.8Z" transform="translate(-131.934 -197.352)" fill="#fff"/>
    <path id="Path_6020" data-name="Path 6020" d="M738.642,571.5H724.211a.9.9,0,1,1,0-1.8h14.431a.9.9,0,0,1,0,1.8Z" transform="translate(-131.934 -197.352)" fill="#fff"/>
    <path id="Path_6021" data-name="Path 6021" d="M738.642,578.714H724.211a.9.9,0,1,1,0-1.8h14.431a.9.9,0,0,1,0,1.8Z" transform="translate(-131.934 -197.352)" fill="#fff"/>
    <path id="Path_6022" data-name="Path 6022" d="M657.438,423.544H640.292a3.917,3.917,0,0,1-3.875-3.367,87.18,87.18,0,0,1,0-23.479,3.917,3.917,0,0,1,3.81-3.366c5.395-2.418,11.2-2.418,17.271,0a3.872,3.872,0,0,1,2.946,1.421,3.961,3.961,0,0,1,.817,3.3,52.71,52.71,0,0,0,0,20.768,3.961,3.961,0,0,1-.817,3.3A3.871,3.871,0,0,1,657.438,423.544Z" transform="translate(-131.934 -197.352)" fill="#06bbe3"/>
    <path id="Path_6023" data-name="Path 6023" d="M655.642,402.282H641.211a.9.9,0,0,1,0-1.8h14.431a.9.9,0,1,1,0,1.8Z" transform="translate(-131.934 -197.352)" fill="#fff"/>
    <path id="Path_6024" data-name="Path 6024" d="M655.642,409.5H641.211a.9.9,0,1,1,0-1.8h14.431a.9.9,0,0,1,0,1.8Z" transform="translate(-131.934 -197.352)" fill="#fff"/>
    <path id="Path_6025" data-name="Path 6025" d="M655.642,416.714H641.211a.9.9,0,1,1,0-1.8h14.431a.9.9,0,0,1,0,1.8Z" transform="translate(-131.934 -197.352)" fill="#fff"/>
    <path id="Path_6026" data-name="Path 6026" d="M356.438,467.544H339.292a3.917,3.917,0,0,1-3.875-3.367,87.18,87.18,0,0,1,0-23.479,3.917,3.917,0,0,1,3.81-3.366c5.395-2.418,11.2-2.418,17.271,0a3.872,3.872,0,0,1,2.946,1.421,3.961,3.961,0,0,1,.817,3.3,52.71,52.71,0,0,0,0,20.768,3.961,3.961,0,0,1-.817,3.3,3.871,3.871,0,0,1-3.005,1.421Z" transform="translate(-131.934 -197.352)" fill="#06bbe3"/>
    <path id="Path_6027" data-name="Path 6027" d="M354.642,446.282H340.211a.9.9,0,1,1,0-1.8h14.431a.9.9,0,1,1,0,1.8Z" transform="translate(-131.934 -197.352)" fill="#fff"/>
    <path id="Path_6028" data-name="Path 6028" d="M354.642,453.5H340.211a.9.9,0,1,1,0-1.8h14.431a.9.9,0,1,1,0,1.8Z" transform="translate(-131.934 -197.352)" fill="#fff"/>
    <path id="Path_6029" data-name="Path 6029" d="M354.642,460.714H340.211a.9.9,0,1,1,0-1.8h14.431a.9.9,0,1,1,0,1.8Z" transform="translate(-131.934 -197.352)" fill="#fff"/>
    <path id="Path_6030" data-name="Path 6030" d="M745.462,563.626a6.592,6.592,0,0,0,1.646-9.973l11.775-20.25-12.153.685-9.318,19.125a6.627,6.627,0,0,0,8.051,10.413Z" transform="translate(-131.934 -197.352)" fill="#ffb6b6"/>
    <path id="Path_6031" data-name="Path 6031" d="M750.213,548.738l-10.88-8.475L759.1,501.949,751.7,453.156a16.619,16.619,0,0,1,16.977-19.1h0a16.637,16.637,0,0,1,16.062,17.157l-1.83,55.556Z" transform="translate(-131.934 -197.352)" fill="#ccc"/>
    <path id="Path_6032" data-name="Path 6032" d="M224.32,538.27a6.646,6.646,0,0,0-.924-10.149l10.582-52.56-11.686,3.752-8.47,50.839a6.682,6.682,0,0,0,10.5,8.118Z" transform="translate(-131.934 -197.352)" fill="#9e616a"/>
    <path id="Path_6033" data-name="Path 6033" d="M239.945,427.066l-7.251-5.473s-6.4-.453-7.529,11.082-3.459,34.014-3.459,34.014l-11.095,51.386,15.358,3.371,11.883-55.455,7.129-16.468Z" transform="translate(-131.934 -197.352)" fill="#ccc"/>
    <path id="Path_6034" data-name="Path 6034" d="M96.057,313.623l40.857-.681,3.4-27.919H96.057Z" fill="#9e616a"/>
    <path id="Path_6035" data-name="Path 6035" d="M132.828,485.427h9.432l4.487-36.381H132.826Z" fill="#9e616a"/>
    <path id="Path_6036" data-name="Path 6036" d="M73.738,486.3l9.432-.067L87.4,449.823l-12.267,2.814Z" fill="#9e616a"/>
    <path id="Path_6037" data-name="Path 6037" d="M103.238,260.98l-2.137,5.556.427,5.557,41.827,14.487-2.075-24.318-4.7-5.557Z" fill="#ffb6b6"/>
    <circle id="Ellipse_79" data-name="Ellipse 79" cx="14.939" cy="14.939" r="14.939" transform="translate(106.243 181.097)" fill="#9e616a"/>
    <path id="Path_6038" data-name="Path 6038" d="M262.423,678.126l14.91-.89v6.388l14.176,9.79a3.99,3.99,0,0,1-2.267,7.274H271.49l-3.06-6.319-1.195,6.319h-6.693Z" transform="translate(-131.934 -197.352)" fill="#2f2e41"/>
    <path id="Path_6039" data-name="Path 6039" d="M202.446,679.022l14.9-.994.045,6.388,14.244,9.691a3.99,3.99,0,0,1-2.216,7.29l-17.751.124-3.1-6.3-1.15,6.327-6.693.047Z" transform="translate(-131.934 -197.352)" fill="#2f2e41"/>
    <path id="Path_6040" data-name="Path 6040" d="M202.737,655.759l6.868-54.9,8.171-57.881c-5.984-11.113,7.49-45.624,7.49-45.624l1.9.091,43.05,8.122-.009-.041c8.805,24.016,11.722,35.88,11.24,61.455l-1.735,91.935h.544a3.4,3.4,0,1,1,0,6.81H263.236a3.4,3.4,0,1,1,0-6.81h.439L248.049,549.45,234.8,595.413,219.82,655.337c5.448-1.362,4.6,1.794,4.6,3.581a3.4,3.4,0,0,1-3.4,3.4H203.993a3.4,3.4,0,0,1-1.256-6.564Z" transform="translate(-131.934 -197.352)" fill="#2f2e41"/>
    <path id="Path_6041" data-name="Path 6041" d="M221.915,499.144l1.362-13.619a2.715,2.715,0,0,1,2.455-2.039c.567-6.488,2.955-34.476,3.1-35.7l.006-.052,1.086-23.192a3.43,3.43,0,0,1,3.2-3.262l5.734-.375a.3.3,0,0,0,.293-.3,4.822,4.822,0,0,1,4.822-4.822h16.977a4.515,4.515,0,0,1,4.478,3.952.3.3,0,0,0,.305.27h0a8.066,8.066,0,0,1,8.114,6.69c2.321,13.5,6.972,44.153,4.673,61.192-.8,5.932.925,1.234,1.228,6.2a3.653,3.653,0,0,1-.909,2.649,2.634,2.634,0,0,1,1.585,3.348l.3-.074a2.724,2.724,0,0,1-3.307,1.975L233,508C231.541,507.632,221.548,500.6,221.915,499.144Z" transform="translate(-131.934 -197.352)" fill="#ccc"/>
    <path id="Path_6042" data-name="Path 6042" d="M340.6,443.772a6.646,6.646,0,0,1-9.36,4.031l-17.171,15.67-2.28-12.06,16.666-12.993a6.682,6.682,0,0,1,12.145,5.351Z" transform="translate(-131.934 -197.352)" fill="#9e616a"/>
    <path id="Path_6043" data-name="Path 6043" d="M280.836,431.794s-5.987-13.531-13.549-10.841-3.658,15.818-3.658,15.818l28.411,42.811s40.979-26.288,36-26.473-6.474-9.249-6.474-9.249L299.9,454.682l-.733-3.852L298,452l-3.031-2.386Z" transform="translate(-131.934 -197.352)" fill="#ccc"/>
    <circle id="Ellipse_80" data-name="Ellipse 80" cx="20.857" cy="20.857" r="20.857" transform="translate(617.826 177.864)" fill="#ffb6b6"/>
    <path id="Path_6044" data-name="Path 6044" d="M837.554,426.764a18.088,18.088,0,0,1-9.943,7,20.8,20.8,0,0,1-4.95.841,18.712,18.712,0,0,0-1.471-5.5,15.448,15.448,0,0,1-.763,5.486,18.387,18.387,0,0,1-7.236-1.939,15.945,15.945,0,0,1-8.531-11.444c-.884-5.7,1.7-11.307,2.638-17s-.824-12.911-6.4-14.408c-4.246-1.141-3.77-.648-7.3,1.973,3.672,5.429-9.891,25.326-15.441,23.591-3.138-.981-5.147-3.86-5.795-3.86-4.362,7.515,3.852,20.177-4.427,22.806l.682-.682c5-6.147-5.447-19.156-.45-25.3,1.394-1.72,2.878-3.757,2.466-5.932-.39-2.067-3.672-3.161-4.632-1.463,1.729-3.959-.824-9.243-5.048-10.26-3.753-.9-3.685.21-7.451.695a18.688,18.688,0,0,0-1.368-4.723,15.322,15.322,0,0,1-.562,4.813,6.043,6.043,0,0,1-3.654-1.321c-3.071-2.475-2.449-7.674.292-10.509s6.824-3.856,10.715-4.517c1.131-7.875,22.86-8.7,25.74-.828,1.227-5.876,8.583-8.926,14.3-7.1s9.685,7.163,11.774,12.791,2.672,11.675,3.959,17.535,3.461,11.826,7.939,15.819,11.774,5.31,16.492,1.6a13.208,13.208,0,0,1-1.574,11.838Z" transform="translate(-131.934 -197.352)" fill="#2f2e41"/>
    <path id="Path_6045" data-name="Path 6045" d="M1033.23,474.359l-2.92,14.65c-.22,1.12-.45,2.26-.7,3.39a14.287,14.287,0,0,0-7.34.41,68.52,68.52,0,0,1,5.04,8.43c-1.84,5.67-4.54,10.91-9.06,14.7a22.72,22.72,0,0,1-21.95,3.86l.13-.58c-4.86-9.43-2.22-21.32,3.82-30.03a58.387,58.387,0,0,1,10.85-11.47c4.08-3.4,8.49-6.45,12.86-9.46a5.99,5.99,0,0,1,9.27,6.1Z" transform="translate(-131.934 -197.352)" fill="#e4e4e4"/>
    <path id="a4b268fa-75d0-4ac1-9d87-14bdca948464-2189-2" data-name="a4b268fa-75d0-4ac1-9d87-14bdca948464-2189" d="M997.339,555.049c-1.229-8.953-2.493-18.02-1.631-27.069.766-8.036,3.217-15.885,8.209-22.321a37.132,37.132,0,0,1,9.527-8.633c.953-.6,1.829.909.881,1.507a35.3,35.3,0,0,0-13.963,16.847c-3.04,7.732-3.528,16.161-3,24.374.317,4.967.988,9.9,1.665,14.83a.9.9,0,0,1-.61,1.074.878.878,0,0,1-1.074-.61Z" transform="translate(-131.934 -197.352)" fill="#f2f2f2"/>
    <path id="Path_6046" data-name="Path 6046" d="M1066.88,702.341l-933.75.307a1.191,1.191,0,1,1,0-2.381l933.75-.307a1.191,1.191,0,1,1,0,2.381Z" transform="translate(-131.934 -197.352)" fill="#cacaca"/>
    <path id="Path_6047" data-name="Path 6047" d="M235.534,384.241c-2.291,1.1-4.856-.555-6.834-2.194l.708.611c-3.5,3.4-5.13,8.3-5.929,13.112s-.889,9.733-1.9,14.512-3.1,9.569-7,12.492c-5.229,3.915-12.441,3.664-18.858,2.464-.085-.017-.165-.031-.251-.048a39.176,39.176,0,0,0,2.064-15.531,35.62,35.62,0,0,1-8.551,14.016,81.773,81.773,0,0,1-12.418-4.525c-2.595-1.194-5.389-2.827-6.109-5.593-.722-2.744.955-5.623,3.2-7.356s4.993-2.637,7.547-3.872,5.073-2.981,6.094-5.625c2.355-6.084-4.353-13.065-1.739-19.046,1.289-2.941,4.447-4.541,7.415-5.774a108.827,108.827,0,0,1,13.926-4.7c4.163-1.1,8.51-1.952,12.751-1.232s8.4,3.3,9.922,7.327c2.547.861,5.251,1.831,6.885,3.975S237.96,383.079,235.534,384.241Z" transform="translate(-131.934 -197.352)" fill="#2f2e41"/>
    <path id="Path_6048" data-name="Path 6048" d="M255.921,377.191c-6.555-5.174-11.854-4.291-15.942-1.076-.687-.765-3.612,1.339-4.6,1.037l-3.582,6.724c-1.843,3.253-2.6,6.573-2.3,8.441-3.39,9.508,4.65,15.928,14.158,19.319a18.143,18.143,0,0,0,11.765.17l.117-1.62.72,1.328s8.692,17.9,10.746,18.7c-1.246-3.233-4.533-18.6-5.451-21.8-1.258-4.358-.4-11.281.341-15.526a24.057,24.057,0,0,0,.071-7.917l-.018-.115,2.034,4.105,4.563-2.869C266.794,381.012,266.759,374.936,255.921,377.191Z" transform="translate(-131.934 -197.352)" fill="#2f2e41"/>
  </g>
</svg>
