<svg id="_7123960_logo_google_icon" data-name="7123960_logo_google_icon" xmlns="http://www.w3.org/2000/svg" width="109.572" height="36.069" viewBox="0 0 109.572 36.069">
  <path id="Path_5732" data-name="Path 5732" d="M89.333,34.013A9.042,9.042,0,1,1,80.292,25,8.9,8.9,0,0,1,89.333,34.013Zm-3.958,0a5.1,5.1,0,1,0-10.167,0,5.1,5.1,0,1,0,10.167,0Z" transform="translate(-42.443 -15.032)" fill="#fff"/>
  <path id="Path_5733" data-name="Path 5733" d="M137.333,34.013A9.042,9.042,0,1,1,128.292,25,8.9,8.9,0,0,1,137.333,34.013Zm-3.958,0a5.1,5.1,0,1,0-10.167,0,5.1,5.1,0,1,0,10.167,0Z" transform="translate(-70.937 -15.032)" fill="#fff"/>
  <path id="Path_5734" data-name="Path 5734" d="M184.509,25.545V41.726c0,6.656-3.925,9.375-8.566,9.375a8.583,8.583,0,0,1-7.989-5.311l3.446-1.434a4.979,4.979,0,0,0,4.539,3.2c2.971,0,4.811-1.833,4.811-5.283v-1.3h-.138a6.137,6.137,0,0,1-4.746,2.048,9.019,9.019,0,0,1,0-18.022,6.246,6.246,0,0,1,4.746,2.016h.138V25.549h3.759Zm-3.478,8.5c0-3.174-2.117-5.494-4.811-5.494a5.212,5.212,0,0,0-5.019,5.494,5.173,5.173,0,0,0,5.019,5.429C178.913,39.475,181.03,37.187,181.03,34.046Z" transform="translate(-99.42 -15.032)" fill="#fff"/>
  <path id="Path_5735" data-name="Path 5735" d="M219.36,3V29.414H215.5V3Z" transform="translate(-128.075 -1.972)" fill="#fff"/>
  <path id="Path_5736" data-name="Path 5736" d="M242.472,36.974l3.072,2.048a8.971,8.971,0,0,1-7.51,3.995A8.819,8.819,0,0,1,229.09,34c0-5.36,3.856-9.013,8.5-9.013,4.677,0,6.965,3.722,7.713,5.734l.41,1.024-12.049,4.99a4.587,4.587,0,0,0,4.368,2.731,5.144,5.144,0,0,0,4.438-2.5Zm-9.456-3.243,8.054-3.344a3.49,3.49,0,0,0-3.344-1.91A4.944,4.944,0,0,0,233.015,33.731Z" transform="translate(-136.142 -15.026)" fill="#fff"/>
  <path id="Path_5737" data-name="Path 5737" d="M14.554,17.107V13.283H27.44a12.67,12.67,0,0,1,.191,2.308,12.628,12.628,0,0,1-3.312,8.944,12.8,12.8,0,0,1-9.761,3.925,14.192,14.192,0,0,1-14.2-14,14.192,14.192,0,0,1,14.2-14,13.336,13.336,0,0,1,9.59,3.856l-2.7,2.7a9.747,9.747,0,0,0-6.9-2.731A10.039,10.039,0,0,0,4.517,14.465,10.039,10.039,0,0,0,14.554,24.637a9.363,9.363,0,0,0,7.067-2.8A7.926,7.926,0,0,0,23.693,17.1Z" transform="translate(-0.36 -0.47)" fill="#fff"/>
</svg>
