<svg xmlns="http://www.w3.org/2000/svg" width="30" height="30" viewBox="0 0 30 30">
  <path id="_5279112_camera_instagram_social_media_instagram_logo_icon_1_" data-name="5279112_camera_instagram_social media_instagram logo_icon (1)" d="M15,0A15,15,0,1,1,0,15,15.007,15.007,0,0,1,15,0Zm0,5.625c-2.546,0-2.865.011-3.865.056a6.882,6.882,0,0,0-2.276.436A4.794,4.794,0,0,0,6.117,8.859a6.883,6.883,0,0,0-.436,2.276c-.046,1-.056,1.319-.056,3.865s.011,2.865.056,3.865a6.883,6.883,0,0,0,.436,2.276,4.794,4.794,0,0,0,2.742,2.742,6.883,6.883,0,0,0,2.276.436c1,.046,1.319.056,3.865.056s2.865-.011,3.865-.056a6.883,6.883,0,0,0,2.276-.436,4.794,4.794,0,0,0,2.742-2.742,6.883,6.883,0,0,0,.436-2.276c.046-1,.056-1.319.056-3.865s-.011-2.865-.056-3.865a6.883,6.883,0,0,0-.436-2.276,4.794,4.794,0,0,0-2.742-2.742,6.881,6.881,0,0,0-2.276-.436C17.865,5.636,17.546,5.625,15,5.625Zm0,1.689c2.5,0,2.8.01,3.788.055a5.188,5.188,0,0,1,1.741.323,3.1,3.1,0,0,1,1.779,1.779,5.186,5.186,0,0,1,.323,1.741c.045.989.055,1.285.055,3.788s-.01,2.8-.055,3.788a5.186,5.186,0,0,1-.323,1.741,3.1,3.1,0,0,1-1.779,1.779,5.186,5.186,0,0,1-1.741.323c-.988.045-1.285.055-3.788.055s-2.8-.01-3.788-.055a5.186,5.186,0,0,1-1.741-.323,3.1,3.1,0,0,1-1.779-1.779,5.187,5.187,0,0,1-.323-1.741C7.324,17.8,7.314,17.5,7.314,15s.009-2.8.055-3.788a5.187,5.187,0,0,1,.323-1.741A3.1,3.1,0,0,1,9.471,7.692a5.188,5.188,0,0,1,1.741-.323C12.2,7.324,12.5,7.314,15,7.314Zm0,2.872A4.814,4.814,0,1,0,19.814,15,4.814,4.814,0,0,0,15,10.186Zm0,7.939A3.125,3.125,0,1,1,18.125,15,3.125,3.125,0,0,1,15,18.125ZM21.129,10A1.125,1.125,0,1,1,20,8.871,1.125,1.125,0,0,1,21.129,10Z" fill="#000" fill-rule="evenodd"/>
</svg>
