<svg xmlns="http://www.w3.org/2000/svg" width="30" height="30" viewBox="0 0 30 30">
  <path id="_5279114_linkedin_network_social_network_linkedin_logo_icon" data-name="5279114_linkedin_network_social network_linkedin logo_icon" d="M15,0A15,15,0,1,1,0,15,15.007,15.007,0,0,1,15,0ZM10.31,23.43V11.716H6.416V23.43Zm14.04,0V16.712c0-3.6-1.921-5.272-4.483-5.272a3.867,3.867,0,0,0-3.509,1.934V11.716H12.465c.052,1.1,0,11.714,0,11.714h3.893V16.888a2.662,2.662,0,0,1,.128-.95,2.131,2.131,0,0,1,2-1.424c1.408,0,1.972,1.075,1.972,2.649V23.43h3.894ZM8.389,6.067a2.03,2.03,0,1,0-.052,4.048h.025a2.03,2.03,0,1,0,.026-4.048Z" fill="#000" fill-rule="evenodd"/>
</svg>
