<svg id="_1156713_citi_finance_logo_payment_icon" data-name="1156713_citi_finance_logo_payment_icon" xmlns="http://www.w3.org/2000/svg" width="109.572" height="70.692" viewBox="0 0 109.572 70.692">
  <g id="Group_451" data-name="Group 451">
    <g id="Group_420" data-name="Group 420" transform="translate(44.182 26.509)">
      <g id="Group_419" data-name="Group 419">
        <path id="Path_5677" data-name="Path 5677" d="M34.836,27H26V71.182h8.836Z" transform="translate(-26 -27)" fill="#fff" fill-rule="evenodd"/>
      </g>
    </g>
    <g id="Group_422" data-name="Group 422" transform="translate(60.088 12.548)">
      <g id="Group_421" data-name="Group 421">
        <path id="Path_5678" data-name="Path 5678" d="M35,33.062v7.069h8.836V65.58c0,3.358.53,6.186,2.474,8.13a8.657,8.657,0,0,0,7.069,3.181,14.771,14.771,0,0,0,7.953-1.944h.177V74.77l1.944-8.306-.53.353c-2.474,1.414-4.242,2.121-6.362,2.121-2.828,0-3.888-1.591-3.888-4.948V40.131h8.836V33.062H52.673V19.1l-8.836,4.772v9.19Z" transform="translate(-35 -19.1)" fill="#fff" fill-rule="evenodd"/>
      </g>
    </g>
    <g id="Group_424" data-name="Group 424" transform="translate(95.434 26.509)">
      <g id="Group_423" data-name="Group 423">
        <path id="Path_5679" data-name="Path 5679" d="M63.836,27H55V71.182h8.836Z" transform="translate(-55 -27)" fill="#fff" fill-rule="evenodd"/>
      </g>
    </g>
    <g id="Group_426" data-name="Group 426" transform="translate(0 25.449)">
      <g id="Group_425" data-name="Group 425">
        <path id="Path_5680" data-name="Path 5680" d="M39.527,34l-.177-.177A19.073,19.073,0,0,0,23.975,26.4c-6.539,0-11.841,1.944-16.082,5.832C3.3,36.474,1,41.952,1,49.021S3.3,61.569,7.892,65.811c4.242,3.888,9.543,5.832,16.082,5.832A19.073,19.073,0,0,0,39.35,64.22l.177-.177L34.4,57.858l-.177.177c-3.358,3.181-6.892,4.948-10.6,4.948a12.926,12.926,0,0,1-9.72-4.065,13.584,13.584,0,0,1-3.888-10.074A13.584,13.584,0,0,1,13.9,38.771a13.054,13.054,0,0,1,9.72-3.888c3.711,0,7.246,1.767,10.6,4.948l.177.177L39.527,34Z" transform="translate(-1 -26.4)" fill="#fff" fill-rule="evenodd"/>
      </g>
    </g>
    <g id="Group_428" data-name="Group 428" transform="translate(37.643)">
      <g id="Group_427" data-name="Group 427">
        <path id="Path_5681" data-name="Path 5681" d="M32.727,31.087A37.578,37.578,0,0,1,44.745,22.78a32.392,32.392,0,0,1,13.608-2.828A33.784,33.784,0,0,1,72.138,22.78a36.6,36.6,0,0,1,11.841,8.483l.177.353H94.229l-.353-.707A43.364,43.364,0,0,0,78.147,17.3,40.069,40.069,0,0,0,58.353,12a42.293,42.293,0,0,0-19.97,4.948A43.834,43.834,0,0,0,22.653,30.733l-.353.707H32.55l.177-.353Z" transform="translate(-22.3 -12)" fill="#fff" fill-rule="evenodd"/>
      </g>
    </g>
    <g id="Group_430" data-name="Group 430" transform="translate(44.182 27.923)">
      <g id="Group_429" data-name="Group 429">
        <path id="Path_5682" data-name="Path 5682" d="M34.836,29.744,26,27.8V70.569h8.836V29.744Z" transform="translate(-26 -27.8)" fill="#fff" fill-rule="evenodd"/>
      </g>
    </g>
    <g id="Group_432" data-name="Group 432" transform="translate(60.088 12.548)">
      <g id="Group_431" data-name="Group 431">
        <path id="Path_5683" data-name="Path 5683" d="M35,33.062v7.069h8.836V65.58c0,3.358.53,6.186,2.474,8.13a8.657,8.657,0,0,0,7.069,3.181,14.771,14.771,0,0,0,7.953-1.944h.177V74.77l1.944-8.306-.53.353c-2.474,1.414-4.242,2.121-6.362,2.121-2.828,0-3.888-1.591-3.888-4.948V40.131h8.836V33.062H52.673V19.1l-8.836,4.772v9.19Z" transform="translate(-35 -19.1)" fill="#fff" fill-rule="evenodd"/>
      </g>
    </g>
    <g id="Group_434" data-name="Group 434" transform="translate(60.088 17.319)">
      <g id="Group_433" data-name="Group 433">
        <path id="Path_5684" data-name="Path 5684" d="M35,30.99v7.069h8.836V63.508c0,3.358.53,6.186,2.474,8.13a8.657,8.657,0,0,0,7.069,3.181,14.771,14.771,0,0,0,7.953-1.944h.177V72.7l1.944-8.306-.53.353c-2.474,1.414-4.242,2.121-6.362,2.121-2.828,0-3.888-1.591-3.888-4.948V38.059h8.836V30.99H52.673v-5.3L43.836,21.8v9.19Z" transform="translate(-35 -21.8)" fill="#fff" fill-rule="evenodd"/>
      </g>
    </g>
    <g id="Group_436" data-name="Group 436" transform="translate(95.434 26.509)">
      <g id="Group_435" data-name="Group 435">
        <path id="Path_5685" data-name="Path 5685" d="M63.836,27H55V71.182h8.836Z" transform="translate(-55 -27)" fill="#fff" fill-rule="evenodd"/>
      </g>
    </g>
    <g id="Group_438" data-name="Group 438" transform="translate(95.434 26.509)">
      <g id="Group_437" data-name="Group 437">
        <path id="Path_5686" data-name="Path 5686" d="M63.836,27,55,30V71.182h8.836Z" transform="translate(-55 -27)" fill="#fff" fill-rule="evenodd"/>
      </g>
    </g>
    <g id="Group_440" data-name="Group 440" transform="translate(0 25.449)">
      <g id="Group_439" data-name="Group 439">
        <path id="Path_5687" data-name="Path 5687" d="M39.35,34.176v-.353A19.073,19.073,0,0,0,23.975,26.4c-6.539,0-11.841,1.944-16.082,5.832C3.3,36.474,1,41.952,1,49.021S3.3,61.569,7.892,65.811c4.242,3.888,9.543,5.832,16.082,5.832A19.073,19.073,0,0,0,39.35,64.22l.177-.177L34.4,57.858l-.177.177c-3.358,3.181-6.892,4.948-10.6,4.948a12.926,12.926,0,0,1-9.72-4.065,13.584,13.584,0,0,1-3.888-10.074A13.584,13.584,0,0,1,13.9,38.771a13.054,13.054,0,0,1,9.72-3.888c3.711,0,7.246,1.767,10.6,4.948l.177.177,5.125-6.186Z" transform="translate(-1 -26.4)" fill="#fff" fill-rule="evenodd"/>
      </g>
    </g>
    <g id="Group_442" data-name="Group 442" transform="translate(0 31.281)">
      <g id="Group_441" data-name="Group 441">
        <path id="Path_5688" data-name="Path 5688" d="M7.892,29.7C3.3,33.942,1,39.42,1,46.489S3.3,59.037,7.892,63.279c4.242,3.888,9.543,5.832,16.082,5.832A19.073,19.073,0,0,0,39.35,61.688l.177-.177L34.4,55.326l-.177.177c-3.358,3.181-6.892,4.948-10.6,4.948a12.926,12.926,0,0,1-9.72-4.065,13.584,13.584,0,0,1-3.888-10.074A13.584,13.584,0,0,1,13.9,36.239a13.054,13.054,0,0,1,9.72-3.888c3.711,0,7.246,1.767,10.6,4.948l.177.177,4.772-5.832h0v-.353" transform="translate(-1 -29.7)" fill="#fff" fill-rule="evenodd"/>
      </g>
    </g>
    <g id="Group_444" data-name="Group 444" transform="translate(37.643)">
      <g id="Group_443" data-name="Group 443">
        <path id="Path_5689" data-name="Path 5689" d="M32.727,31.087A37.578,37.578,0,0,1,44.745,22.78a32.392,32.392,0,0,1,13.608-2.828A33.784,33.784,0,0,1,72.138,22.78a36.6,36.6,0,0,1,11.841,8.483l.177.353H94.229l-.353-.707A43.364,43.364,0,0,0,78.147,17.3,40.069,40.069,0,0,0,58.353,12a42.293,42.293,0,0,0-19.97,4.948A43.834,43.834,0,0,0,22.653,30.733l-.353.707H32.55l.177-.353Z" transform="translate(-22.3 -12)" fill="#fff" fill-rule="evenodd"/>
      </g>
    </g>
    <g id="Group_446" data-name="Group 446" transform="translate(37.643)">
      <g id="Group_445" data-name="Group 445">
        <path id="Path_5690" data-name="Path 5690" d="M32.727,31.087A37.578,37.578,0,0,1,44.745,22.78a32.392,32.392,0,0,1,13.608-2.828A33.784,33.784,0,0,1,72.138,22.78a36.6,36.6,0,0,1,11.841,8.483l.177.353H94.229l-.353-.707A43.364,43.364,0,0,0,78.147,17.3,40.069,40.069,0,0,0,58.353,12a42.293,42.293,0,0,0-19.97,4.948A43.834,43.834,0,0,0,22.653,30.733l-.353.707H32.55l.177-.353Z" transform="translate(-22.3 -12)" fill="#fff" fill-rule="evenodd"/>
      </g>
    </g>
    <g id="Group_448" data-name="Group 448" transform="translate(37.643)">
      <g id="Group_447" data-name="Group 447">
        <path id="Path_5691" data-name="Path 5691" d="M32.727,31.087A37.578,37.578,0,0,1,44.745,22.78a32.392,32.392,0,0,1,13.608-2.828A33.784,33.784,0,0,1,72.138,22.78a36.6,36.6,0,0,1,11.841,8.483l.177.353H94.229l-.353-.707A43.364,43.364,0,0,0,78.147,17.3,40.069,40.069,0,0,0,58.353,12a42.293,42.293,0,0,0-19.97,4.948A43.834,43.834,0,0,0,22.653,30.733l-.353.707H32.55l.177-.353Z" transform="translate(-22.3 -12)" fill="#fff" fill-rule="evenodd"/>
      </g>
    </g>
    <g id="Group_449" data-name="Group 449" transform="translate(39.587 3.004)">
      <path id="Path_5692" data-name="Path 5692" d="M77.3,18.648A41.788,41.788,0,0,0,57.332,13.7a44.484,44.484,0,0,0-19.97,4.948A37.841,37.841,0,0,0,23.4,30.136h8.13v-.353a37.578,37.578,0,0,1,12.018-8.306,32.392,32.392,0,0,1,13.608-2.828A33.784,33.784,0,0,1,70.94,21.476a36.6,36.6,0,0,1,11.841,8.483l.177.353h8.13C87.553,24.834,82.781,21.476,77.3,18.648Z" transform="translate(-23.4 -13.7)" fill="#fff" fill-rule="evenodd"/>
    </g>
    <g id="Group_450" data-name="Group 450" transform="translate(42.415 6.009)">
      <path id="Path_5693" data-name="Path 5693" d="M30.479,28.831h0A40.809,40.809,0,0,1,42.5,20.172,32.392,32.392,0,0,1,56.1,17.344a33.784,33.784,0,0,1,13.785,2.828A36.6,36.6,0,0,1,81.73,28.655l.177.353h5.655a44.8,44.8,0,0,0-11.311-8.66A41.788,41.788,0,0,0,56.281,15.4a44.484,44.484,0,0,0-19.97,4.948A41.881,41.881,0,0,0,25,29.008h5.479Z" transform="translate(-25 -15.4)" fill="#fff" fill-rule="evenodd"/>
    </g>
  </g>
  <g id="Group_452" data-name="Group 452" transform="translate(95.434 44.536)">
    <path id="Path_5694" data-name="Path 5694" d="M55,37.2V63.356h8.836V43.386C60.3,40.911,58.535,38.967,55,37.2Z" transform="translate(-55 -37.2)" fill="#fff" fill-rule="evenodd"/>
  </g>
  <g id="Group_453" data-name="Group 453" transform="translate(68.924 38.527)">
    <path id="Path_5695" data-name="Path 5695" d="M43.711,33.8A18.4,18.4,0,0,0,40,33.977V54.3c0,3.358.53,6.186,2.474,8.13a8.657,8.657,0,0,0,7.069,3.181A14.771,14.771,0,0,0,57.5,63.667h.177v-.177l1.944-8.306-.53.353c-2.474,1.414-4.242,2.121-6.362,2.121-2.828,0-3.888-1.591-3.888-4.948V33.977A49.664,49.664,0,0,0,43.711,33.8Z" transform="translate(-40 -33.8)" fill="#fff" fill-rule="evenodd"/>
  </g>
  <g id="Group_454" data-name="Group 454" transform="translate(44.182 42.769)">
    <path id="Path_5696" data-name="Path 5696" d="M26,41.325v22.8h8.836V36.2C31.3,37.614,27.767,39.381,26,41.325Z" transform="translate(-26 -36.2)" fill="#fff" fill-rule="evenodd"/>
  </g>
  <g id="Group_455" data-name="Group 455" transform="translate(24.035 57.084)">
    <path id="Path_5697" data-name="Path 5697" d="M14.6,57.731a19.114,19.114,0,0,0,14.138-7.423l.177-.177L24.143,44.3A83.355,83.355,0,0,0,14.6,57.731Z" transform="translate(-14.6 -44.3)" fill="#fff" fill-rule="evenodd"/>
  </g>
</svg>
