<svg id="_1156741_shopify_shopping_ecommerce_icon" data-name="1156741_shopify_shopping_ecommerce_icon" xmlns="http://www.w3.org/2000/svg" width="109.572" height="35.346" viewBox="0 0 109.572 35.346">
  <g id="Group_501" data-name="Group 501">
    <g id="Group_494" data-name="Group 494" transform="translate(0 8.13)">
      <path id="Path_5718" data-name="Path 5718" d="M2.237,40.738A7.538,7.538,0,0,0,6.479,41.8c1.414,0,2.3-.707,2.3-1.767,0-.884-.53-1.591-2.121-2.474C4.711,36.5,3.3,34.906,3.3,32.786c0-3.711,3.181-6.186,7.6-6.186a9.215,9.215,0,0,1,4.418.884l-1.237,3.711a7.7,7.7,0,0,0-3.181-.707c-1.414,0-2.474.707-2.474,1.767,0,.884.707,1.414,1.944,2.121,1.944,1.237,3.711,2.828,3.711,4.948,0,4.065-3.358,6.539-7.953,6.362A9.931,9.931,0,0,1,1,44.45Z" transform="translate(-1 -26.6)" fill="#fff"/>
    </g>
    <g id="Group_495" data-name="Group 495" transform="translate(14.138)">
      <path id="Path_5719" data-name="Path 5719" d="M9,48.509,14.125,22H19.25L17.306,32.6v.177a7.137,7.137,0,0,1,5.479-2.651c2.651,0,4.242,1.767,4.242,4.772a21.855,21.855,0,0,1-.353,3.181L24.729,48.509H19.6l1.944-10.25a8.6,8.6,0,0,0,.177-2.121c0-1.06-.53-1.944-1.591-1.944-1.591,0-3.358,1.944-4.065,5.3L14.3,48.333H9Z" transform="translate(-9 -22)" fill="#fff"/>
    </g>
    <g id="Group_496" data-name="Group 496" transform="translate(33.755 8.13)">
      <path id="Path_5720" data-name="Path 5720" d="M37.419,33.846c0,6.362-4.065,11.841-10.25,11.841-4.595,0-7.069-3.181-7.069-7.246,0-6.362,4.065-11.841,10.427-11.841C35.122,26.6,37.419,30.135,37.419,33.846ZM25.225,38.441c0,1.944.707,3.358,2.474,3.358,2.828,0,4.242-4.948,4.242-8.13,0-1.591-.53-3.181-2.474-3.181C26.816,30.665,25.225,35.436,25.225,38.441Z" transform="translate(-20.1 -26.6)" fill="#fff"/>
    </g>
    <g id="Group_497" data-name="Group 497" transform="translate(49.661 7.776)">
      <path id="Path_5721" data-name="Path 5721" d="M29.1,52.2l3.535-18.38c.353-2.121.884-4.595,1.06-6.362H38.29l-.353,1.767h0A7.04,7.04,0,0,1,43.415,26.4c3.711,0,5.3,3.358,5.3,6.716,0,6.362-4.065,12.548-10.074,12.548-.884.177-2.121-.53-2.651-.53h-.177L34.4,52.2Zm7.423-10.957a2.817,2.817,0,0,0,2.121.707c2.828,0,4.948-4.772,4.948-8.13,0-1.414-.53-2.828-2.121-2.828-1.767,0-3.535,2.121-4.065,5.3Z" transform="translate(-29.1 -26.4)" fill="#fff"/>
    </g>
    <g id="Group_498" data-name="Group 498" transform="translate(69.808 0.884)">
      <path id="Path_5722" data-name="Path 5722" d="M40.5,48.126l3.535-17.673h5.3L45.8,48.126Zm6.716-19.44a2.789,2.789,0,0,1-2.474-3,3.023,3.023,0,0,1,3-3.181A2.753,2.753,0,0,1,50.4,25.328a3.449,3.449,0,0,1-3.181,3.358Z" transform="translate(-40.5 -22.5)" fill="#fff"/>
    </g>
    <g id="Group_499" data-name="Group 499" transform="translate(79.528)">
      <path id="Path_5723" data-name="Path 5723" d="M46,48.509l2.828-14.138H46.353l.707-3.535h2.474l.177-1.06a10.3,10.3,0,0,1,3-6.009A7.549,7.549,0,0,1,57.841,22a10.014,10.014,0,0,1,2.828.353l-1.06,4.065a5.16,5.16,0,0,0-1.591-.353c-1.767,0-2.828,1.767-3,3.535l-.53,1.237h3.535l-.707,3.535H53.776L50.948,48.509Z" transform="translate(-46 -22)" fill="#fff"/>
    </g>
    <g id="Group_500" data-name="Group 500" transform="translate(89.779 8.836)">
      <path id="Path_5724" data-name="Path 5724" d="M60.106,27l.884,8.13c.177,1.767.353,2.474.53,4.242h0a15.775,15.775,0,0,1,1.591-4.242L66.292,27h5.3L65.231,40.431c-2.3,4.595-4.418,7.953-6.892,10.25a12.564,12.564,0,0,1-5.125,2.828L51.8,49.091a15,15,0,0,0,3-1.414A8.045,8.045,0,0,0,57.632,44.5c.177-.177.177-.353.177-.707L54.628,27Z" transform="translate(-51.8 -27)" fill="#fff"/>
    </g>
  </g>
  <g id="Group_509" data-name="Group 509">
    <g id="Group_502" data-name="Group 502" transform="translate(0 8.13)">
      <path id="Path_5725" data-name="Path 5725" d="M10.9,26.6a9.215,9.215,0,0,1,4.418.884l-1.237,3.711a7.7,7.7,0,0,0-3.181-.707c-1.414,0-2.474.707-2.474,1.767,0,.884.707,1.414,1.944,2.121,1.944,1.237,3.711,2.828,3.711,4.948,0,4.065-3.358,6.539-7.953,6.362A9.931,9.931,0,0,1,1,44.45l1.237-3.711A7.538,7.538,0,0,0,6.479,41.8c1.414,0,2.3-.707,2.3-1.767,0-.884-.53-1.591-2.121-2.474C4.711,36.5,3.3,34.906,3.3,32.786" transform="translate(-1 -26.6)" fill="#fff"/>
    </g>
    <g id="Group_503" data-name="Group 503" transform="translate(14.138 0.353)">
      <path id="Path_5726" data-name="Path 5726" d="M9,48.356l4.595-21.031L19.25,22.2,17.306,32.627h0a7.137,7.137,0,0,1,5.479-2.651c2.651,0,4.242,1.767,4.242,4.772a21.855,21.855,0,0,1-.353,3.181L24.729,48.356H19.6l1.944-10.25a8.6,8.6,0,0,0,.177-2.121c0-1.06-.53-1.944-1.591-1.944-1.591,0-3.358,1.944-4.065,5.3L14.3,48.179H9Z" transform="translate(-9 -22.2)" fill="#fff"/>
    </g>
    <g id="Group_504" data-name="Group 504" transform="translate(33.755 8.13)">
      <path id="Path_5727" data-name="Path 5727" d="M30.35,26.6c4.772,0,7.069,3.535,7.069,7.246,0,6.362-4.065,11.841-10.25,11.841-4.595,0-7.069-3.181-7.069-7.246m5.125,0c0,1.944.707,3.358,2.474,3.358,2.828,0,4.242-4.948,4.242-8.13,0-1.591-.53-3.181-2.474-3.181C26.816,30.665,25.225,35.436,25.225,38.441Z" transform="translate(-20.1 -26.6)" fill="#fff"/>
    </g>
    <g id="Group_505" data-name="Group 505" transform="translate(49.838 7.776)">
      <path id="Path_5728" data-name="Path 5728" d="M38.39,27.46l-.353,1.767h0A7.04,7.04,0,0,1,43.515,26.4c3.711,0,5.3,3.358,5.3,6.716,0,6.362-4.065,12.548-10.074,12.548-1.06.177-2.3-.53-2.828-.53h-.177L34.325,52.2H29.2l3.535-18.733m3.711,7.776a2.817,2.817,0,0,0,2.121.707c2.828,0,4.948-4.772,4.948-8.13,0-1.414-.53-2.828-2.121-2.828-1.767,0-3.535,2.121-4.065,5.3Z" transform="translate(-29.2 -26.4)" fill="#fff"/>
    </g>
    <g id="Group_506" data-name="Group 506" transform="translate(69.808 0.884)">
      <path id="Path_5729" data-name="Path 5729" d="M40.5,48.126l3.535-13.431,5.3-4.242L45.8,48.126ZM47.746,22.5A2.649,2.649,0,0,1,50.4,25.328a3.184,3.184,0,0,1-3,3.358h0a2.789,2.789,0,0,1-2.474-3" transform="translate(-40.5 -22.5)" fill="#fff"/>
    </g>
    <g id="Group_507" data-name="Group 507" transform="translate(79.528)">
      <path id="Path_5730" data-name="Path 5730" d="M57.664,22a5.715,5.715,0,0,1,2.828.53l-1.06,4.065a5.16,5.16,0,0,0-1.591-.353c-1.767,0-2.828,1.767-3,3.535l-.353,1.06h3.535l-.707,3.535H53.776L50.948,48.509H46l2.828-14.138H46.353l.707-3.535h2.474l.177-1.06" transform="translate(-46 -22)" fill="#fff"/>
    </g>
    <g id="Group_508" data-name="Group 508" transform="translate(89.779 8.836)">
      <path id="Path_5731" data-name="Path 5731" d="M60.106,27l.884,7.953c.177,1.767.353,2.651.53,4.418h0a15.775,15.775,0,0,1,1.591-4.242L66.292,27h5.3L65.231,40.431c-2.3,4.595-4.418,7.953-6.892,10.25a12.564,12.564,0,0,1-5.125,2.828L51.8,49.091a15,15,0,0,0,3-1.414A8.045,8.045,0,0,0,57.632,44.5a1.324,1.324,0,0,0,.177-.884L56.572,30.888Z" transform="translate(-51.8 -27)" fill="#fff"/>
    </g>
  </g>
</svg>
