<svg id="_7124272_spotify_logo_icon" data-name="7124272_spotify_logo_icon" xmlns="http://www.w3.org/2000/svg" width="109.572" height="30.427" viewBox="0 0 109.572 30.427">
  <path id="Path_5739" data-name="Path 5739" d="M207.518,56.748c-4.333-1.033-5.1-1.759-5.1-3.282,0-1.439,1.356-2.408,3.371-2.408a9.85,9.85,0,0,1,5.922,2.25.284.284,0,0,0,.214.052.281.281,0,0,0,.187-.116l2.115-2.982a.284.284,0,0,0-.054-.386,12.8,12.8,0,0,0-8.321-2.883c-4.678,0-7.946,2.807-7.946,6.824,0,4.308,2.819,5.833,7.69,7.01,4.146.955,4.846,1.755,4.846,3.185,0,1.585-1.415,2.57-3.692,2.57a9.952,9.952,0,0,1-6.9-2.85.3.3,0,0,0-.208-.068.281.281,0,0,0-.194.1l-2.372,2.823a.282.282,0,0,0,.028.393,14.142,14.142,0,0,0,9.55,3.663c5.041,0,8.3-2.755,8.3-7.018C214.95,60.025,212.8,58.032,207.518,56.748Z" transform="translate(-197.006 -45.124)" fill="#fff"/>
  <path id="Path_5740" data-name="Path 5740" d="M275.467,74.389c0,3.042-1.874,5.165-4.557,5.165-2.653,0-4.654-2.219-4.654-5.165s2-5.165,4.654-5.165S275.467,71.4,275.467,74.389Zm-3.659-9.1a6.8,6.8,0,0,0-5.455,2.624V65.926a.284.284,0,0,0-.284-.284h-3.879a.284.284,0,0,0-.283.284V87.98a.284.284,0,0,0,.283.284h3.879a.284.284,0,0,0,.284-.284V81.019a6.968,6.968,0,0,0,5.455,2.469c4.06,0,8.17-3.125,8.17-9.1S275.867,65.287,271.807,65.287Z" transform="translate(-242.459 -57.935)" fill="#fff"/>
  <path id="Path_5741" data-name="Path 5741" d="M335.579,79.586a4.934,4.934,0,0,1-4.878-5.2,4.818,4.818,0,0,1,4.814-5.134,4.949,4.949,0,0,1,4.91,5.2A4.83,4.83,0,0,1,335.579,79.586Zm0-14.3a9.12,9.12,0,1,0,9.292,9.1A9.148,9.148,0,0,0,335.579,65.287Z" transform="translate(-287.525 -57.935)" fill="#fff"/>
  <path id="Path_5742" data-name="Path 5742" d="M400.253,55.605h-4.269V51.24a.284.284,0,0,0-.283-.284h-3.879a.285.285,0,0,0-.285.284v4.365h-1.865a.283.283,0,0,0-.283.284v3.334a.283.283,0,0,0,.283.284h1.865v8.627c0,3.486,1.735,5.254,5.158,5.254a7.077,7.077,0,0,0,3.634-.9.283.283,0,0,0,.144-.246V69.063a.285.285,0,0,0-.411-.255,4.889,4.889,0,0,1-2.277.55c-1.244,0-1.8-.565-1.8-1.831V59.508h4.269a.284.284,0,0,0,.283-.284V55.889A.283.283,0,0,0,400.253,55.605Z" transform="translate(-331.742 -47.898)" fill="#fff"/>
  <path id="Path_5743" data-name="Path 5743" d="M460.017,50.9v-.536c0-1.577.6-2.28,1.961-2.28a6.553,6.553,0,0,1,2.186.4.283.283,0,0,0,.373-.27V44.943a.284.284,0,0,0-.2-.272,10.646,10.646,0,0,0-3.224-.464c-3.583,0-5.477,2.018-5.477,5.833v.821h-1.864a.285.285,0,0,0-.285.284V54.5a.285.285,0,0,0,.285.284h1.864V68.088a.283.283,0,0,0,.283.284H459.8a.285.285,0,0,0,.284-.284V54.781H463.7l5.549,13.3c-.63,1.4-1.249,1.676-2.095,1.676a4.474,4.474,0,0,1-2.139-.607.291.291,0,0,0-.226-.021.287.287,0,0,0-.168.153l-1.315,2.885a.282.282,0,0,0,.122.367,8.17,8.17,0,0,0,4.143,1.061c2.865,0,4.448-1.335,5.844-4.924l6.73-17.391a.284.284,0,0,0-.263-.387h-4.039a.285.285,0,0,0-.269.191L471.44,62.9l-4.532-11.825a.283.283,0,0,0-.265-.183Z" transform="translate(-376.633 -43.172)" fill="#fff"/>
  <path id="Path_5744" data-name="Path 5744" d="M436.774,66.471h-3.88a.284.284,0,0,0-.284.284V83.681a.284.284,0,0,0,.284.284h3.88a.284.284,0,0,0,.284-.284V66.755A.285.285,0,0,0,436.774,66.471Z" transform="translate(-362.012 -58.764)" fill="#fff"/>
  <path id="Path_5745" data-name="Path 5745" d="M433.59,40.752a2.782,2.782,0,1,0,2.782,2.781A2.783,2.783,0,0,0,433.59,40.752Z" transform="translate(-360.749 -40.752)" fill="#fff"/>
  <path id="Path_5746" data-name="Path 5746" d="M547.3,68.077h-.711v.906h.711c.355,0,.567-.173.567-.453S547.652,68.077,547.3,68.077Zm.461,1.293.772,1.081h-.651l-.7-.992h-.6v.992h-.545V67.585h1.278c.666,0,1.1.341,1.1.914A.855.855,0,0,1,547.758,69.37Zm-.605-2.738a2.465,2.465,0,1,0,2.443,2.457A2.441,2.441,0,0,0,547.152,66.631Zm-.014,5.2a2.737,2.737,0,1,1,2.745-2.746A2.719,2.719,0,0,1,547.138,71.835Z" transform="translate(-440.31 -58.687)" fill="#fff"/>
</svg>
